<?xml version="1.0" standalone="no"?>
<!DOCTYPE svg PUBLIC "-//W3C//DTD SVG 20001102//EN"
	"http://www.w3.org/TR/2000/CR-SVG-20001102/DTD/svg-20001102.dtd">
<svg width="60.000" height="60.000"
     viewBox="0 0 60 60" preserveAspectRatio="xMidYMid" >
<desc><!-- Generated by KVEC (http://www.kvec.de)-->
</desc>
<!-- Generated by: KVEC for Linux vers. 2.94, KK-Software -->
<!-- SN: 0 -->
<path d="M0 60 L60 60 L60 0 L0 0 L0 60 "
style="fill:rgb(252,252,252); fill-rule:evenodd; stroke:rgb(252,252,252); stroke-width:0 "/>
<path d="M53 14 L51 13 L52 12 L52 11 L50 11 L47 12 L43 13 L35 14 L35 15 L32 15 L32 18 L33 19 L34 19 L34 22 L32 23 L32 24 L30 24 L31 21 L31 18 
L30 20 L29 20 L29 19 L27 19 L27 20 L26 20 L26 24 L24 24 L24 27 L21 27 L21 43 L20 43 L20 27 L17 27 L17 28 L16 28 L16 38 L17 41 
L20 45 L20 47 L22 47 L23 43 L24 39 L25 30 L26 30 L26 40 L25 47 L24 47 L24 51 L27 50 L30 50 L30 51 L34 51 L34 48 L33 44 L32 36 
L31 36 L31 32 L32 33 L34 43 L35 42 L36 40 L39 38 L39 37 L41 37 L41 35 L43 34 L43 33 L41 33 L40 34 L40 35 L37 35 L36 33 L34 31 
L34 29 L36 29 L39 28 L39 27 L41 27 L41 25 L45 24 L44 23 L47 22 L46 21 L46 20 L48 20 L48 18 L49 18 L51 17 L49 16 L52 15 L52 14 
L53 14 "
style="fill:rgb(1,1,210); fill-rule:evenodd; stroke:rgb(1,1,210); stroke-width:0 "/>
<path d="M5 12 L6 13 L8 14 L5 15 L7 16 L6 17 L8 18 L11 19 L9 20 L13 21 L10 22 L10 23 L12 23 L12 25 L14 25 L15 27 L16 27 L16 26 L23 26 
L23 24 L24 24 L23 22 L22 22 L22 19 L24 19 L24 18 L25 18 L25 15 L21 15 L21 14 L15 14 L15 15 L14 15 L11 14 L7 13 L7 12 L5 12 "
style="fill:rgb(1,1,210); fill-rule:evenodd; stroke:rgb(1,1,210); stroke-width:0 "/>
<path d="M25 18 L24 18 L24 19 L22 19 L22 22 L24 23 L24 24 L26 24 L26 20 L25 20 L25 18 "
style="fill:rgb(252,252,252); fill-rule:evenodd; stroke:rgb(252,252,252); stroke-width:0 "/>
<path d="M53 26 L53 25 L51 25 L48 28 L48 29 L50 29 L50 28 L51 28 L51 27 L52 27 L52 26 L53 26 "
style="fill:rgb(1,1,210); fill-rule:evenodd; stroke:rgb(1,1,210); stroke-width:0 "/>
<path d="M48 30 L48 29 L46 29 L43 32 L43 33 L45 33 L45 32 L46 32 L46 31 L47 31 L47 30 L48 30 "
style="fill:rgb(1,1,210); fill-rule:evenodd; stroke:rgb(1,1,210); stroke-width:0 "/>
<path d="M30 18 L26 18 L26 20 L27 20 L27 19 L29 19 L29 20 L30 20 L30 18 "
style="fill:rgb(252,252,252); fill-rule:evenodd; stroke:rgb(252,252,252); stroke-width:0 "/>
<path d="M54 22 L54 20 L53 19 L52 19 L52 22 L54 22 "
style="fill:rgb(1,1,210); fill-rule:evenodd; stroke:rgb(1,1,210); stroke-width:0 "/>
<path d="M30 17 L26 17 L26 18 L30 18 L30 17 "
style="fill:rgb(1,1,210); fill-rule:evenodd; stroke:rgb(1,1,210); stroke-width:0 "/>
<path d="M51 14 L51 13 L48 13 L48 14 L51 14 "
style="fill:rgb(252,252,252); fill-rule:evenodd; stroke:rgb(252,252,252); stroke-width:0 "/>
<path d="M45 29 L45 27 L43 27 L43 28 L44 28 L44 29 L45 29 "
style="fill:rgb(1,1,210); fill-rule:evenodd; stroke:rgb(1,1,210); stroke-width:0 "/>
<path d="M51 23 L51 21 L49 21 L49 22 L50 22 L50 23 L51 23 "
style="fill:rgb(1,1,210); fill-rule:evenodd; stroke:rgb(1,1,210); stroke-width:0 "/>
<path d="M24 27 L25 29 L26 29 L26 27 L24 27 "
style="fill:rgb(252,252,252); fill-rule:evenodd; stroke:rgb(252,252,252); stroke-width:0 "/>
<path d="M48 25 L48 23 L46 24 L46 25 L48 25 "
style="fill:rgb(1,1,210); fill-rule:evenodd; stroke:rgb(1,1,210); stroke-width:0 "/>
<path d="M42 31 L42 29 L40 30 L40 31 L42 31 "
style="fill:rgb(1,1,210); fill-rule:evenodd; stroke:rgb(1,1,210); stroke-width:0 "/>
<path d="M26 18 L25 18 L25 20 L26 20 L26 18 "
style="fill:rgb(1,1,210); fill-rule:evenodd; stroke:rgb(1,1,210); stroke-width:0 "/>
<path d="M52 31 L52 29 L51 29 L51 31 L52 31 "
style="fill:rgb(1,1,210); fill-rule:evenodd; stroke:rgb(1,1,210); stroke-width:0 "/>
<path d="M34 52 L36 52 L36 51 L34 51 L34 52 "
style="fill:rgb(1,1,210); fill-rule:evenodd; stroke:rgb(1,1,210); stroke-width:0 "/>
<path d="M22 52 L24 52 L24 51 L22 51 L22 52 "
style="fill:rgb(1,1,210); fill-rule:evenodd; stroke:rgb(1,1,210); stroke-width:0 "/>
<path d="M50 32 L50 31 L48 31 L48 32 L50 32 "
style="fill:rgb(1,1,210); fill-rule:evenodd; stroke:rgb(1,1,210); stroke-width:0 "/>
<path d="M33 24 L32 24 L32 25 L33 25 L33 24 "
style="fill:rgb(252,252,252); fill-rule:evenodd; stroke:rgb(252,252,252); stroke-width:0 "/>
<path d="M54 28 L54 27 L53 27 L53 28 L54 28 "
style="fill:rgb(1,1,210); fill-rule:evenodd; stroke:rgb(1,1,210); stroke-width:0 "/>
<path d="M34 29 L34 28 L33 28 L33 29 L34 29 "
style="fill:rgb(252,252,252); fill-rule:evenodd; stroke:rgb(252,252,252); stroke-width:0 "/>
<path d="M55 27 L55 26 L54 26 L54 27 L55 27 "
style="fill:rgb(1,1,210); fill-rule:evenodd; stroke:rgb(1,1,210); stroke-width:0 "/>
<path d="M46 35 L46 34 L45 34 L45 35 L46 35 "
style="fill:rgb(1,1,210); fill-rule:evenodd; stroke:rgb(1,1,210); stroke-width:0 "/>
<path d="M46 26 L46 25 L45 25 L45 26 L46 26 "
style="fill:rgb(1,1,210); fill-rule:evenodd; stroke:rgb(1,1,210); stroke-width:0 "/>
<path d="M53 11 L53 10 L52 10 L52 11 L53 11 "
style="fill:rgb(1,1,210); fill-rule:evenodd; stroke:rgb(1,1,210); stroke-width:0 "/>
<path d="M47 34 L47 33 L46 33 L46 34 L47 34 "
style="fill:rgb(1,1,210); fill-rule:evenodd; stroke:rgb(1,1,210); stroke-width:0 "/>
<g id="kvec-trailer" style="fill:black;font-family:Helvetica;font-size:1.200">
<rect x="3.000" y="63.000" width="32.400" height="3.000" style="fill:none;stroke:#000000"/>
<text x="3.480" y="64.200">Generated by KVEC for Linux vers. 2.94 </text>
<a xlink:href="http://www.kvec.de">
<text x="3.480" y="65.520" style="fill:blue">Copyright 2002 KK-Software</text>
</a>
</g>
</svg>
