<?xml version="1.0" standalone="no"?>
<!DOCTYPE svg PUBLIC "-//W3C//DTD SVG 20001102//EN"
	"http://www.w3.org/TR/2000/CR-SVG-20001102/DTD/svg-20001102.dtd">
<svg width="60.000" height="60.000"
     viewBox="0 0 60 60" preserveAspectRatio="xMidYMid" >
<desc><!-- Generated by KVEC (http://www.kvec.de)-->
</desc>
<!-- Generated by: KVEC for Linux vers. 2.94, KK-Software -->
<!-- SN: 0 -->
<path d="M0 60 L60 60 L60 0 L0 0 L0 60 "
style="fill:rgb(252,252,252); fill-rule:evenodd; stroke:rgb(252,252,252); stroke-width:0 "/>
<path d="M21 51 L27 51 L27 46 L28 46 L28 44 L27 44 L28 40 L28 36 L27 36 L27 31 L28 31 L28 27 L27 27 L27 24 L29 23 L31 22 L31 21 L32 23 L33 24 
L35 26 L35 28 L34 28 L34 32 L35 34 L36 34 L36 35 L35 38 L33 40 L34 44 L35 45 L36 45 L35 48 L35 51 L41 51 L41 50 L39 42 L38 36 
L37 36 L37 29 L38 31 L39 30 L40 27 L41 31 L42 28 L43 33 L44 32 L45 28 L46 28 L46 36 L45 36 L45 39 L46 38 L47 38 L47 41 L46 41 
L46 43 L47 42 L48 42 L48 44 L47 44 L47 47 L48 45 L49 42 L50 38 L51 38 L51 25 L50 21 L47 15 L46 14 L45 12 L44 12 L42 11 L41 10 
L41 9 L38 9 L38 10 L37 12 L36 12 L36 13 L37 15 L38 15 L38 18 L37 19 L36 21 L34 19 L33 16 L32 16 L32 15 L30 15 L30 16 L29 16 
L29 19 L26 19 L25 21 L24 19 L23 19 L23 14 L24 14 L24 11 L23 11 L21 9 L19 10 L17 10 L17 12 L16 13 L15 15 L14 16 L13 18 L12 21 
L11 25 L10 25 L10 36 L11 40 L12 43 L13 45 L14 40 L15 43 L16 45 L17 45 L17 42 L15 37 L15 32 L16 33 L17 36 L18 28 L19 31 L20 28 
L21 28 L21 30 L23 30 L23 29 L24 29 L24 42 L23 48 L22 50 L21 50 L21 51 "
style="fill:rgb(254,146,45); fill-rule:evenodd; stroke:rgb(254,146,45); stroke-width:0 "/>
<path d="M30 44 L32 44 L32 30 L33 30 L33 29 L32 29 L32 27 L33 27 L31 24 L29 25 L29 26 L30 26 L30 29 L29 29 L29 30 L30 30 L30 44 "
style="fill:rgb(254,146,45); fill-rule:evenodd; stroke:rgb(254,146,45); stroke-width:0 "/>
<path d="M15 49 L16 49 L15 45 L14 45 L14 48 L15 48 L15 49 "
style="fill:rgb(254,146,45); fill-rule:evenodd; stroke:rgb(254,146,45); stroke-width:0 "/>
<path d="M48 38 L48 35 L47 35 L47 38 L48 38 "
style="fill:rgb(252,252,252); fill-rule:evenodd; stroke:rgb(252,252,252); stroke-width:0 "/>
<path d="M37 21 L36 21 L36 23 L37 23 L37 21 "
style="fill:rgb(252,252,252); fill-rule:evenodd; stroke:rgb(252,252,252); stroke-width:0 "/>
<path d="M38 25 L38 23 L37 23 L37 25 L38 25 "
style="fill:rgb(252,252,252); fill-rule:evenodd; stroke:rgb(252,252,252); stroke-width:0 "/>
<path d="M46 49 L47 49 L47 47 L46 47 L46 49 "
style="fill:rgb(254,146,45); fill-rule:evenodd; stroke:rgb(254,146,45); stroke-width:0 "/>
<path d="M13 38 L13 40 L14 40 L14 38 L13 38 "
style="fill:rgb(252,252,252); fill-rule:evenodd; stroke:rgb(252,252,252); stroke-width:0 "/>
<path d="M23 25 L23 26 L24 26 L24 25 L23 25 "
style="fill:rgb(252,252,252); fill-rule:evenodd; stroke:rgb(252,252,252); stroke-width:0 "/>
<path d="M25 22 L24 22 L24 23 L25 23 L25 22 "
style="fill:rgb(252,252,252); fill-rule:evenodd; stroke:rgb(252,252,252); stroke-width:0 "/>
<path d="M45 50 L46 50 L46 49 L45 49 L45 50 "
style="fill:rgb(254,146,45); fill-rule:evenodd; stroke:rgb(254,146,45); stroke-width:0 "/>
<g id="kvec-trailer" style="fill:black;font-family:Helvetica;font-size:1.200">
<rect x="3.000" y="63.000" width="32.400" height="3.000" style="fill:none;stroke:#000000"/>
<text x="3.480" y="64.200">Generated by KVEC for Linux vers. 2.94 </text>
<a xlink:href="http://www.kvec.de">
<text x="3.480" y="65.520" style="fill:blue">Copyright 2002 KK-Software</text>
</a>
</g>
</svg>
