<?xml version="1.0" encoding="UTF-8" standalone="no"?>
<!DOCTYPE svg PUBLIC "-//W3C//DTD SVG 20010904//EN"
"http://www.w3.org/TR/2001/REC-SVG-20010904/DTD/svg10.dtd">
<!-- Created with Sodipodi ("http://www.sodipodi.com/") -->
<svg
   version="1"
   x="0"
   y="0"
   width="60"
   height="60"
   viewBox="0 0 60 60"
   id="svg101"
   xmlns="http://www.w3.org/2000/svg"
   xmlns:sodipodi="http://sodipodi.sourceforge.net/DTD/sodipodi-0.dtd"
   xmlns:xlink="http://www.w3.org/1999/xlink"
   sodipodi:version="0.29win"
   sodipodi:docname="h:\java\titanScan\Archangel3b.svg"
   sodipodi:docbase="h:\java\titanScan/">
  <sodipodi:namedview
     id="base" />
  <defs
     id="defs123" />
  <desc
     id="desc102" />
  <path
     d="M 18.3808 10.8747 C 16.7814 11.5051 14.511 13.6436 15.9581 13.9631 C 13.6939 15.7161 11.6768 20.9275 11.0767 27.8278 C 10.411 37.2008 15.7512 49.44 17.5995 49.4367 C 15.6095 46.1204 13.8621 36.0131 14.2101 34.1902 C 14.761 36.5499 16.4255 44.7914 18.8667 45.8134 C 16.9832 42.5616 15.9485 31.2206 16.518 29.4009 C 16.9237 29.9835 17.4834 35.4784 18.754 35.8197 C 19.0634 34.4461 18.2469 27.6096 18.8805 25.7899 C 19.4066 26.3755 19.5137 30.0689 20.4208 31.0925 C 21.1897 29.8415 20.7501 27.7803 21.3475 26.4863 C 21.8311 27.2475 21.7188 29.3717 22.543 29.7242 C 23.0257 29.3899 22.561 28.7213 22.9555 28.1403 C 23.3717 29.062 24.0734 29.7721 24.0457 28.3526 C 23.3064 27.5418 22.703 25.1584 23.6755 24.8076 C 24.6335 24.487 25.2048 22.0246 24.9013 21.9622 C 24.1115 21.7694 24.0405 20.6754 25.4432 18.905 C 23.4417 17.8021 22.9698 15.6066 23.988 13.9824 C 24.5794 13.0692 25.3786 12.8244 24.8743 10.9831 C 23.7336 7.26472 16.7308 9.5322 18.3808 10.8747 z "
     style="font-size:12;fill:#fd8512;fill-rule:evenodd;stroke:#fde4cb;stroke-width:0.1;fill-opacity:1;stroke-opacity:1;"
     id="path125"
     sodipodi:nodetypes="ccccccccccccccsscssc" />
  <path
     d="M 38.6664 9.0344 C 40.0341 8.28717 43.2268 8.86917 42.6095 10.2841 C 43.4504 10.6379 46.7722 12.653 45.4218 13.2187 C 47.4914 14.769 48.222 16.6588 49.171 18.5707 C 50.1938 20.6311 51.4617 26.7882 51.3736 29.4806 C 51.3225 34.5205 50.2666 39.8197 49.7322 41.2425 C 48.9423 43.3457 46.0925 50.1825 44.8591 49.5309 C 45.1325 48.2799 46.7023 46.1013 47.2659 43.9042 C 47.8862 42.2718 48.3616 40.4052 48.2077 39.8677 C 47.3667 40.8524 47.0774 43.1511 45.5277 43.1966 C 45.3437 42.7245 46.6271 40.4813 47.4255 37.3677 C 47.5769 36.0991 48.1993 32.8516 47.969 32.2256 C 47.5175 33.2738 47.1016 38.7416 45.1935 39.0312 C 44.965 37.9169 45.6804 34.4753 45.7195 32.2499 C 45.7195 31.5654 45.9978 26.5426 45.2716 25.6327 C 44.8193 26.3576 45.299 33.077 43.6335 33.5364 C 43.5048 31.6967 43.7217 27.3594 42.9751 25.6258 C 42.4455 26.631 42.773 30.678 41.3978 31.1734 C 40.863 30.8661 41.4495 26.3507 40.6903 25.5155 C 40.1216 26.0463 40.3997 30.3119 38.519 30.3485 C 38.2152 28.87 39.1737 25.7507 38.6683 25.5006 C 38.1476 25.1648 38.429 23.0575 38.0098 22.8221 C 37.2751 22.3876 37.3401 21.7443 37.3963 20.6963 C 36.7554 20.3417 36.4767 19.3649 36.7134 18.8268 C 39.7996 17.2251 38.3944 15.022 36.9749 12.6968 C 36.8585 11.3399 36.7175 10.0294 38.6664 9.0344 z "
     style="font-size:12;fill:#fd8512;fill-rule:evenodd;stroke:#fde4cb;stroke-width:0.1;fill-opacity:1;stroke-opacity:1;"
     id="path126"
     sodipodi:nodetypes="cccscsccccccccccccccsscccc" />
  <path
     d="M 31.1725 23.635 C 29.7231 24.0899 29.5975 24.9679 29.779 25.7499 C 31.5337 25.4087 31.8884 27.04 33.7986 26.7666 C 33.7986 26.4047 33.485 24.6586 31.1725 23.635 z "
     style="font-size:12;fill:#fd8512;fill-rule:evenodd;stroke:#fde4cb;stroke-width:0.1;fill-opacity:1;stroke-opacity:1;"
     id="path127"
     sodipodi:nodetypes="cccc" />
  <rect
     width="58.8189"
     height="58.8189"
     x="0.5315"
     y="0.64955"
     style="font-size:12;fill:none;fill-rule:evenodd;stroke:#000000;stroke-width:0.99455pt;"
     id="rect128" />
  <path
     d="M 31.4457 13.7865 L 29.6535 15.8297 L 29.5939 18.6022 C 28.6841 18.923 28.6743 17.5136 26.8219 18.5389 C 25.0374 19.5933 24.3054 22.2201 25.426 21.6934 C 25.5654 22.4594 24.9513 23.5275 24.8131 24.5418 C 22.8003 25.3999 23.8407 28.1183 25.1412 28.5522 C 25.177 33.516 24.1757 37.166 23.9718 40.8463 C 22.9771 50.9392 21.3662 47.4581 21.3135 49.5275 C 22.4556 50.0147 25.9236 49.7716 27.857 49.7262 C 27.9721 48.7774 28.4062 47.9882 27.5192 47.192 C 25.8512 43.834 28.0772 45.5488 28.0983 44.6855 C 27.6977 43.3356 29.4201 44.7957 28.6234 43.2836 C 28.3835 42.8401 27.0637 41.8888 27.1596 39.2206 C 27.2592 37.9306 28.7817 39.3415 28.8231 38.0891 C 28.8883 36.0785 28.0558 35.1881 27.7317 33.4089 C 29.1681 32.7028 28.0569 32.1861 27.903 30.0236 C 28.5569 29.4516 29.1166 29.0232 28.3811 27.2024 C 27.5365 25.0722 28.1656 23.4667 29.5602 21.367 C 30.4487 22.091 30.7322 22.4438 31.6054 20.277 C 33.1633 21.5028 32.719 24.6497 34.1615 22.5561 C 36.4992 28.195 32.5621 30.5604 34.8679 30.8069 C 34.3436 32.8103 34.3971 32.9775 35.725 32.9056 C 35.5802 36.5435 31.7403 42.2163 34.3383 40.9956 C 34.1206 44.2033 35.1714 43.4264 35.9099 43.7812 C 36.1247 47.2616 34.0641 47.4445 35.5094 48.0012 C 36.054 48.1767 34.485 48.8466 35.0138 49.6872 C 37.6296 49.7489 39.3897 49.8367 41.0957 49.7653 C 41.391 48.6675 40.1755 50.2412 38.8299 41.343 C 38.0023 38.3006 37.5539 30.9753 37.3991 28.5147 C 38.4883 28.3058 38.7369 27.4102 38.5005 25.7854 C 37.7952 25.1475 37.9195 23.7485 36.6287 21.7157 C 37.7527 21.2625 35.7232 19.2043 34.4856 18.6492 C 34.1881 18.3516 34.0371 19.1813 33.2161 18.9538 L 33.2194 15.8091 L 31.4457 13.7865 z "
     transform="matrix(1.00029,0,0,1,-0.0062547,-1.90735e-06)"
     style="font-size:12;fill:#fd8512;fill-rule:evenodd;stroke:#fde4cb;stroke-width:0.1;fill-opacity:1;stroke-opacity:1;"
     id="path129"
     sodipodi:nodetypes="cccsccccccccscsccscccccccscccccccccc" />
  <path
     d="M 30.2557 26.052 C 31.0623 26.4817 32.6291 26.7437 32.6291 27.2996 L 31.8375 27.311 C 31.8023 27.8 32.5874 27.625 32.9428 27.8015 C 33.724 28.389 33.0772 29.9038 32.5447 28.5038 C 31.8965 28.049 31.717 28.874 32.3419 29.5811 L 32.1961 41.594 C 32.1961 42.1247 31.773 44.3591 31.4034 44.3591 C 31.008 44.3591 30.6463 42.1247 30.6463 41.4803 L 30.7419 29.1974 C 31.4059 28.5617 31.1183 28.1858 30.5247 28.2703 C 30.1926 29.302 29.7056 28.4082 29.8571 27.8613 C 30.4208 27.3202 30.7892 27.912 30.8451 27.2928 C 30.4143 27.0745 29.9053 26.8562 30.2557 26.052 z "
     style="font-size:12;fill:#fd8512;fill-rule:evenodd;stroke:#fde4cb;stroke-width:0.1;fill-opacity:1;stroke-opacity:1;"
     id="path130"
     sodipodi:nodetypes="cccccccccccccc" />
  <path
     style="fill:#fd8512;fill-rule:evenodd;stroke:#ffffff;stroke-opacity:1;stroke-width:0.25;stroke-linejoin:miter;stroke-linecap:butt;fill-opacity:1;stroke-dasharray:none;"
     d="M 31.1328 43.4765 L 30.3034 45.8697 L 27.8125 45.9375 L 29.9219 47.4218 L 29.2969 49.8829 L 31.3282 48.4766 L 33.4765 49.8828 L 32.6953 47.3829 L 34.5703 45.8203 L 31.9922 45.8594 L 31.1328 43.4765 z "
     id="path128"
     sodipodi:nodetypes="ccccccccccc" />
</svg>
