<?xml version="1.0" standalone="no"?>
<!DOCTYPE svg PUBLIC "-//W3C//DTD SVG 20001102//EN"
	"http://www.w3.org/TR/2000/CR-SVG-20001102/DTD/svg-20001102.dtd">
<svg width="60.000" height="60.000"
     viewBox="0 0 60 60" preserveAspectRatio="xMidYMid" >
<desc><!-- Generated by KVEC (http://www.kvec.de)-->
</desc>
<!-- Generated by: KVEC for Linux vers. 2.94, KK-Software -->
<!-- SN: 0 -->
<path d="M0 60 L60 60 L60 0 L0 0 L0 60 "
style="fill:rgb(252,252,252); fill-rule:evenodd; stroke:rgb(252,252,252); stroke-width:0 "/>
<path d="M55 31 L55 27 L54 27 L54 25 L55 25 L55 24 L53 24 L54 22 L54 20 L53 21 L51 20 L52 19 L52 18 L51 16 L50 16 L50 18 L48 18 L48 16 L46 14 
L45 14 L45 16 L46 17 L47 17 L47 19 L46 19 L44 17 L42 17 L46 21 L44 22 L44 23 L43 20 L42 21 L41 20 L40 18 L39 18 L39 19 L37 19 
L37 16 L35 16 L35 17 L34 17 L32 16 L32 15 L33 15 L33 13 L31 14 L31 15 L27 15 L27 12 L26 14 L25 14 L25 15 L23 14 L21 14 L21 18 
L19 17 L17 17 L16 20 L16 23 L13 23 L13 25 L11 23 L9 19 L8 18 L7 18 L7 20 L8 20 L8 23 L7 21 L6 21 L6 24 L7 26 L9 27 
L8 29 L7 34 L6 34 L6 36 L8 38 L10 37 L12 36 L12 35 L15 35 L15 37 L14 37 L12 38 L13 39 L12 40 L14 41 L14 42 L15 41 L16 38 
L17 37 L18 35 L19 35 L19 39 L22 39 L20 41 L18 41 L18 43 L17 42 L16 42 L16 43 L14 43 L14 46 L16 47 L18 47 L18 46 L19 46 L19 47 
L21 47 L21 46 L22 46 L22 47 L25 47 L27 44 L28 44 L28 45 L30 45 L30 44 L31 44 L31 40 L30 40 L30 37 L33 37 L33 33 L34 38 L35 40 
L36 40 L36 41 L40 41 L40 43 L36 43 L36 44 L35 44 L35 47 L36 46 L38 48 L39 47 L40 47 L40 48 L42 48 L42 47 L46 47 L46 45 L51 45 
L51 44 L52 44 L52 42 L51 37 L50 37 L52 36 L53 34 L54 34 L54 31 L55 31 "
style="fill:rgb(20,139,20); fill-rule:evenodd; stroke:rgb(20,139,20); stroke-width:0 "/>
<path d="M52 31 L52 28 L51 28 L51 27 L48 27 L48 25 L46 25 L46 23 L44 23 L44 25 L47 28 L48 28 L48 31 L50 31 L50 32 L51 32 L51 31 L52 31 "
style="fill:rgb(252,252,252); fill-rule:evenodd; stroke:rgb(252,252,252); stroke-width:0 "/>
<path d="M39 28 L38 26 L37 29 L36 29 L36 30 L38 30 L38 28 L39 28 "
style="fill:rgb(252,252,252); fill-rule:evenodd; stroke:rgb(252,252,252); stroke-width:0 "/>
<path d="M25 26 L27 29 L28 29 L28 27 L27 27 L27 26 L25 26 "
style="fill:rgb(252,252,252); fill-rule:evenodd; stroke:rgb(252,252,252); stroke-width:0 "/>
<path d="M27 41 L28 41 L28 37 L27 37 L27 41 "
style="fill:rgb(252,252,252); fill-rule:evenodd; stroke:rgb(252,252,252); stroke-width:0 "/>
<path d="M47 36 L47 35 L44 35 L44 36 L47 36 "
style="fill:rgb(252,252,252); fill-rule:evenodd; stroke:rgb(252,252,252); stroke-width:0 "/>
<path d="M47 43 L47 40 L46 40 L46 43 L47 43 "
style="fill:rgb(252,252,252); fill-rule:evenodd; stroke:rgb(252,252,252); stroke-width:0 "/>
<path d="M49 37 L49 36 L47 36 L47 38 L48 38 L48 37 L49 37 "
style="fill:rgb(252,252,252); fill-rule:evenodd; stroke:rgb(252,252,252); stroke-width:0 "/>
<path d="M36 32 L36 30 L34 31 L34 32 L36 32 "
style="fill:rgb(252,252,252); fill-rule:evenodd; stroke:rgb(252,252,252); stroke-width:0 "/>
<path d="M27 36 L28 36 L28 34 L27 34 L27 36 "
style="fill:rgb(252,252,252); fill-rule:evenodd; stroke:rgb(252,252,252); stroke-width:0 "/>
<path d="M35 21 L33 21 L33 22 L35 22 L35 21 "
style="fill:rgb(252,252,252); fill-rule:evenodd; stroke:rgb(252,252,252); stroke-width:0 "/>
<path d="M26 43 L27 43 L27 41 L26 41 L26 43 "
style="fill:rgb(252,252,252); fill-rule:evenodd; stroke:rgb(252,252,252); stroke-width:0 "/>
<path d="M5 19 L5 21 L6 21 L6 19 L5 19 "
style="fill:rgb(20,139,20); fill-rule:evenodd; stroke:rgb(20,139,20); stroke-width:0 "/>
<path d="M39 26 L39 25 L38 25 L38 26 L39 26 "
style="fill:rgb(252,252,252); fill-rule:evenodd; stroke:rgb(252,252,252); stroke-width:0 "/>
<path d="M11 30 L11 31 L12 31 L12 30 L11 30 "
style="fill:rgb(252,252,252); fill-rule:evenodd; stroke:rgb(252,252,252); stroke-width:0 "/>
<path d="M32 20 L31 20 L31 21 L32 21 L32 20 "
style="fill:rgb(252,252,252); fill-rule:evenodd; stroke:rgb(252,252,252); stroke-width:0 "/>
<path d="M11 39 L11 40 L12 40 L12 39 L11 39 "
style="fill:rgb(20,139,20); fill-rule:evenodd; stroke:rgb(20,139,20); stroke-width:0 "/>
<path d="M38 25 L38 24 L37 24 L37 25 L38 25 "
style="fill:rgb(252,252,252); fill-rule:evenodd; stroke:rgb(252,252,252); stroke-width:0 "/>
<path d="M10 31 L10 32 L11 32 L11 31 L10 31 "
style="fill:rgb(252,252,252); fill-rule:evenodd; stroke:rgb(252,252,252); stroke-width:0 "/>
<path d="M8 23 L8 24 L9 24 L9 23 L8 23 "
style="fill:rgb(252,252,252); fill-rule:evenodd; stroke:rgb(252,252,252); stroke-width:0 "/>
<path d="M26 37 L27 37 L27 36 L26 36 L26 37 "
style="fill:rgb(252,252,252); fill-rule:evenodd; stroke:rgb(252,252,252); stroke-width:0 "/>
<path d="M37 23 L36 23 L36 24 L37 24 L37 23 "
style="fill:rgb(252,252,252); fill-rule:evenodd; stroke:rgb(252,252,252); stroke-width:0 "/>
<path d="M12 39 L12 40 L13 40 L13 39 L12 39 "
style="fill:rgb(252,252,252); fill-rule:evenodd; stroke:rgb(252,252,252); stroke-width:0 "/>
<path d="M43 31 L43 30 L42 30 L42 31 L43 31 "
style="fill:rgb(252,252,252); fill-rule:evenodd; stroke:rgb(252,252,252); stroke-width:0 "/>
<path d="M42 16 L41 16 L41 17 L42 17 L42 16 "
style="fill:rgb(20,139,20); fill-rule:evenodd; stroke:rgb(20,139,20); stroke-width:0 "/>
<path d="M45 13 L44 13 L44 14 L45 14 L45 13 "
style="fill:rgb(20,139,20); fill-rule:evenodd; stroke:rgb(20,139,20); stroke-width:0 "/>
<path d="M41 44 L42 44 L42 43 L41 43 L41 44 "
style="fill:rgb(252,252,252); fill-rule:evenodd; stroke:rgb(252,252,252); stroke-width:0 "/>
<path d="M48 40 L48 39 L47 39 L47 40 L48 40 "
style="fill:rgb(252,252,252); fill-rule:evenodd; stroke:rgb(252,252,252); stroke-width:0 "/>
<path d="M41 26 L41 25 L40 25 L40 26 L41 26 "
style="fill:rgb(252,252,252); fill-rule:evenodd; stroke:rgb(252,252,252); stroke-width:0 "/>
<path d="M18 33 L18 34 L19 34 L19 33 L18 33 "
style="fill:rgb(252,252,252); fill-rule:evenodd; stroke:rgb(252,252,252); stroke-width:0 "/>
<path d="M17 30 L17 31 L18 31 L18 30 L17 30 "
style="fill:rgb(252,252,252); fill-rule:evenodd; stroke:rgb(252,252,252); stroke-width:0 "/>
<path d="M18 31 L18 32 L19 32 L19 31 L18 31 "
style="fill:rgb(252,252,252); fill-rule:evenodd; stroke:rgb(252,252,252); stroke-width:0 "/>
<g id="kvec-trailer" style="fill:black;font-family:Helvetica;font-size:1.200">
<rect x="3.000" y="63.000" width="32.400" height="3.000" style="fill:none;stroke:#000000"/>
<text x="3.480" y="64.200">Generated by KVEC for Linux vers. 2.94 </text>
<a xlink:href="http://www.kvec.de">
<text x="3.480" y="65.520" style="fill:blue">Copyright 2002 KK-Software</text>
</a>
</g>
</svg>
