<?xml version="1.0" standalone="no"?>
<!DOCTYPE svg PUBLIC "-//W3C//DTD SVG 20001102//EN"
	"http://www.w3.org/TR/2000/CR-SVG-20001102/DTD/svg-20001102.dtd">
<svg width="60.000" height="60.000"
     viewBox="0 0 60 60" preserveAspectRatio="xMidYMid" >
<desc><!-- Generated by KVEC (http://www.kvec.de)-->
</desc>
<!-- Generated by: KVEC for Linux vers. 2.94, KK-Software -->
<!-- SN: 0 -->
<path d="M0 60 L60 60 L60 0 L0 0 L0 60 "
style="fill:rgb(252,252,252); fill-rule:evenodd; stroke:rgb(252,252,252); stroke-width:0 "/>
<path d="M18 57 L21 57 L21 55 L23 56 L23 57 L25 57 L25 56 L26 56 L26 45 L25 43 L24 43 L24 42 L34 42 L34 45 L37 48 L38 48 L38 54 L36 54 L36 57 
L39 57 L39 55 L41 54 L41 53 L40 53 L40 47 L41 48 L42 48 L42 55 L40 56 L40 57 L44 57 L44 55 L45 55 L45 51 L44 51 L44 50 L45 50 
L45 48 L44 45 L43 45 L43 41 L44 39 L45 46 L46 47 L47 50 L48 51 L49 51 L49 47 L48 47 L48 46 L49 46 L49 43 L48 37 L47 35 L46 35 
L42 33 L41 32 L41 31 L34 31 L34 32 L24 32 L24 31 L22 31 L22 27 L23 27 L23 25 L22 25 L22 24 L23 24 L23 20 L22 20 L20 19 L20 18 
L22 18 L22 16 L21 12 L20 12 L20 11 L17 11 L16 12 L17 13 L17 14 L16 14 L16 18 L17 18 L16 20 L15 20 L15 26 L13 26 L13 25 L12 23 
L11 23 L11 19 L12 21 L13 20 L14 20 L14 16 L13 15 L12 15 L9 16 L9 17 L7 15 L6 16 L5 16 L5 20 L6 21 L8 19 L10 21 L10 23 
L9 23 L9 26 L10 26 L10 30 L9 30 L9 31 L10 31 L10 36 L12 36 L12 32 L17 32 L17 39 L18 41 L19 42 L20 42 L20 54 L19 55 L18 55 
L18 57 "
style="fill:rgb(138,138,18); fill-rule:evenodd; stroke:rgb(138,138,18); stroke-width:0 "/>
<path d="M22 54 L24 54 L24 48 L22 48 L22 54 "
style="fill:rgb(252,252,252); fill-rule:evenodd; stroke:rgb(252,252,252); stroke-width:0 "/>
<path d="M38 47 L40 47 L38 44 L37 44 L37 46 L38 46 L38 47 "
style="fill:rgb(252,252,252); fill-rule:evenodd; stroke:rgb(252,252,252); stroke-width:0 "/>
<path d="M12 28 L12 30 L16 30 L13 29 L13 28 L12 28 "
style="fill:rgb(252,252,252); fill-rule:evenodd; stroke:rgb(252,252,252); stroke-width:0 "/>
<path d="M36 44 L37 44 L37 42 L35 42 L35 43 L36 43 L36 44 "
style="fill:rgb(252,252,252); fill-rule:evenodd; stroke:rgb(252,252,252); stroke-width:0 "/>
<path d="M19 17 L18 17 L18 19 L19 19 L19 17 "
style="fill:rgb(252,252,252); fill-rule:evenodd; stroke:rgb(252,252,252); stroke-width:0 "/>
<path d="M36 39 L37 39 L37 37 L36 37 L36 39 "
style="fill:rgb(252,252,252); fill-rule:evenodd; stroke:rgb(252,252,252); stroke-width:0 "/>
<path d="M23 46 L24 46 L24 44 L23 44 L23 46 "
style="fill:rgb(252,252,252); fill-rule:evenodd; stroke:rgb(252,252,252); stroke-width:0 "/>
<path d="M19 19 L19 20 L20 20 L20 19 L19 19 "
style="fill:rgb(252,252,252); fill-rule:evenodd; stroke:rgb(252,252,252); stroke-width:0 "/>
<path d="M19 31 L19 32 L20 32 L20 31 L19 31 "
style="fill:rgb(252,252,252); fill-rule:evenodd; stroke:rgb(252,252,252); stroke-width:0 "/>
<path d="M35 40 L36 40 L36 39 L35 39 L35 40 "
style="fill:rgb(252,252,252); fill-rule:evenodd; stroke:rgb(252,252,252); stroke-width:0 "/>
<path d="M18 24 L18 25 L19 25 L19 24 L18 24 "
style="fill:rgb(252,252,252); fill-rule:evenodd; stroke:rgb(252,252,252); stroke-width:0 "/>
<path d="M16 28 L16 29 L17 29 L17 28 L16 28 "
style="fill:rgb(252,252,252); fill-rule:evenodd; stroke:rgb(252,252,252); stroke-width:0 "/>
<path d="M26 41 L27 41 L27 40 L26 40 L26 41 "
style="fill:rgb(252,252,252); fill-rule:evenodd; stroke:rgb(252,252,252); stroke-width:0 "/>
<path d="M18 26 L18 27 L19 27 L19 26 L18 26 "
style="fill:rgb(252,252,252); fill-rule:evenodd; stroke:rgb(252,252,252); stroke-width:0 "/>
<g id="kvec-trailer" style="fill:black;font-family:Helvetica;font-size:1.200">
<rect x="3.000" y="63.000" width="32.400" height="3.000" style="fill:none;stroke:#000000"/>
<text x="3.480" y="64.200">Generated by KVEC for Linux vers. 2.94 </text>
<a xlink:href="http://www.kvec.de">
<text x="3.480" y="65.520" style="fill:blue">Copyright 2002 KK-Software</text>
</a>
</g>
</svg>
