<?xml version="1.0" standalone="no"?>
<!DOCTYPE svg PUBLIC "-//W3C//DTD SVG 20001102//EN"
	"http://www.w3.org/TR/2000/CR-SVG-20001102/DTD/svg-20001102.dtd">
<svg width="60.000" height="60.000"
     viewBox="0 0 60 60" preserveAspectRatio="xMidYMid" >
<desc><!-- Generated by KVEC (http://www.kvec.de)-->
</desc>
<!-- Generated by: KVEC for Linux vers. 2.94, KK-Software -->
<!-- SN: 0 -->
<path d="M0 60 L60 60 L60 0 L0 0 L0 60 "
style="fill:rgb(252,252,252); fill-rule:evenodd; stroke:rgb(252,252,252); stroke-width:0 "/>
<path d="M34 56 L36 56 L36 55 L37 56 L39 54 L40 54 L40 48 L38 46 L37 46 L39 31 L42 33 L44 34 L45 36 L46 36 L46 40 L48 40 L48 38 L50 36 L51 33 
L52 33 L51 31 L50 31 L50 28 L51 27 L52 27 L52 25 L54 25 L54 24 L53 22 L52 19 L51 19 L51 20 L49 20 L49 19 L48 19 L48 22 L46 22 
L46 23 L48 26 L48 29 L44 28 L36 20 L32 19 L32 18 L25 18 L25 19 L24 21 L22 23 L21 26 L19 27 L19 28 L14 28 L14 27 L13 27 L13 24 
L15 24 L15 23 L16 20 L17 20 L13 18 L10 17 L10 16 L6 16 L5 17 L8 18 L12 20 L11 21 L11 22 L12 22 L12 25 L11 25 L11 26 L9 26 
L8 29 L8 32 L9 32 L9 36 L11 36 L11 34 L13 34 L13 33 L16 33 L16 34 L17 34 L21 33 L23 31 L25 31 L26 33 L26 35 L25 38 L24 39 
L23 41 L22 44 L21 44 L21 45 L22 47 L23 47 L23 50 L20 52 L21 53 L25 54 L25 55 L27 54 L29 54 L29 52 L30 51 L31 49 L32 50 L33 50 
L33 52 L32 53 L31 53 L31 55 L34 55 L34 56 "
style="fill:rgb(15,136,15); fill-rule:evenodd; stroke:rgb(15,136,15); stroke-width:0 "/>
<path d="M30 49 L31 49 L31 41 L30 42 L29 44 L28 44 L28 45 L29 45 L29 47 L30 47 L30 49 "
style="fill:rgb(252,252,252); fill-rule:evenodd; stroke:rgb(252,252,252); stroke-width:0 "/>
<path d="M29 32 L31 31 L30 29 L28 30 L28 31 L29 31 L29 32 "
style="fill:rgb(252,252,252); fill-rule:evenodd; stroke:rgb(252,252,252); stroke-width:0 "/>
<path d="M30 23 L27 23 L27 24 L30 24 L30 23 "
style="fill:rgb(252,252,252); fill-rule:evenodd; stroke:rgb(252,252,252); stroke-width:0 "/>
<path d="M31 20 L29 20 L29 21 L31 21 L31 20 "
style="fill:rgb(252,252,252); fill-rule:evenodd; stroke:rgb(252,252,252); stroke-width:0 "/>
<path d="M23 45 L25 45 L25 44 L23 44 L23 45 "
style="fill:rgb(252,252,252); fill-rule:evenodd; stroke:rgb(252,252,252); stroke-width:0 "/>
<path d="M26 50 L28 50 L28 49 L26 49 L26 50 "
style="fill:rgb(252,252,252); fill-rule:evenodd; stroke:rgb(252,252,252); stroke-width:0 "/>
<path d="M34 51 L36 51 L36 50 L34 50 L34 51 "
style="fill:rgb(252,252,252); fill-rule:evenodd; stroke:rgb(252,252,252); stroke-width:0 "/>
<path d="M33 47 L35 47 L35 46 L33 46 L33 47 "
style="fill:rgb(252,252,252); fill-rule:evenodd; stroke:rgb(252,252,252); stroke-width:0 "/>
<path d="M27 24 L26 24 L26 25 L27 25 L27 24 "
style="fill:rgb(252,252,252); fill-rule:evenodd; stroke:rgb(252,252,252); stroke-width:0 "/>
<path d="M31 24 L30 24 L30 25 L31 25 L31 24 "
style="fill:rgb(252,252,252); fill-rule:evenodd; stroke:rgb(252,252,252); stroke-width:0 "/>
<path d="M39 31 L39 30 L38 30 L38 31 L39 31 "
style="fill:rgb(252,252,252); fill-rule:evenodd; stroke:rgb(252,252,252); stroke-width:0 "/>
<path d="M27 20 L26 20 L26 21 L27 21 L27 20 "
style="fill:rgb(252,252,252); fill-rule:evenodd; stroke:rgb(252,252,252); stroke-width:0 "/>
<g id="kvec-trailer" style="fill:black;font-family:Helvetica;font-size:1.200">
<rect x="3.000" y="63.000" width="32.400" height="3.000" style="fill:none;stroke:#000000"/>
<text x="3.480" y="64.200">Generated by KVEC for Linux vers. 2.94 </text>
<a xlink:href="http://www.kvec.de">
<text x="3.480" y="65.520" style="fill:blue">Copyright 2002 KK-Software</text>
</a>
</g>
</svg>
