<?xml version="1.0" standalone="no"?>
<!DOCTYPE svg PUBLIC "-//W3C//DTD SVG 20001102//EN"
	"http://www.w3.org/TR/2000/CR-SVG-20001102/DTD/svg-20001102.dtd">
<svg width="60.000" height="60.000"
     viewBox="0 0 60 60" preserveAspectRatio="xMidYMid" >
<desc><!-- Generated by KVEC (http://www.kvec.de)-->
</desc>
<!-- Generated by: KVEC for Linux vers. 2.94, KK-Software -->
<!-- SN: 0 -->
<path d="M0 60 L60 60 L60 0 L0 0 L0 60 "
style="fill:rgb(252,252,252); fill-rule:evenodd; stroke:rgb(252,252,252); stroke-width:0 "/>
<path d="M57 37 L57 28 L56 24 L55 23 L54 21 L51 19 L49 18 L48 17 L46 16 L45 15 L43 14 L41 12 L41 11 L37 11 L37 13 L36 14 L35 14 L35 17 L37 16 
L37 15 L39 15 L39 16 L40 18 L41 22 L42 22 L42 23 L41 26 L40 28 L39 28 L39 29 L37 29 L37 28 L35 30 L33 29 L33 28 L35 28 L35 24 
L33 24 L33 26 L29 26 L28 24 L27 24 L27 28 L25 28 L25 29 L24 35 L23 33 L22 33 L22 32 L23 32 L23 28 L21 26 L20 26 L20 19 L22 15 
L23 14 L26 17 L27 17 L26 13 L23 11 L23 10 L21 10 L20 11 L18 12 L17 13 L15 14 L13 16 L11 17 L9 20 L8 22 L7 23 L5 27 L4 32 
L3 32 L3 35 L4 39 L5 41 L6 42 L7 34 L9 32 L11 34 L12 36 L13 37 L14 37 L14 30 L18 30 L18 34 L21 34 L23 37 L24 36 L26 42 
L27 42 L27 47 L25 47 L25 48 L24 48 L24 50 L29 50 L29 49 L30 49 L30 44 L29 41 L28 41 L28 40 L30 40 L30 43 L31 40 L32 40 L32 47 
L31 47 L31 49 L32 49 L32 50 L34 49 L36 49 L36 50 L37 50 L37 49 L39 50 L41 50 L44 49 L43 48 L38 47 L41 46 L43 45 L43 44 L44 44 
L44 42 L43 39 L41 38 L41 37 L39 37 L36 41 L35 41 L35 38 L37 38 L40 35 L40 34 L42 34 L42 36 L43 35 L44 32 L45 31 L46 32 L47 36 
L48 35 L49 33 L50 33 L50 32 L52 32 L52 33 L53 42 L55 40 L56 40 L56 37 L57 37 "
style="fill:rgb(1,1,1); fill-rule:evenodd; stroke:rgb(1,1,1); stroke-width:0 "/>
<path d="M21 50 L23 48 L24 48 L24 46 L26 46 L26 44 L25 40 L22 38 L22 37 L19 37 L18 39 L16 41 L16 43 L18 44 L21 45 L22 46 L17 47 L16 48 L16 49 
L21 49 L21 50 "
style="fill:rgb(1,1,1); fill-rule:evenodd; stroke:rgb(1,1,1); stroke-width:0 "/>
<path d="M36 48 L38 48 L37 47 L37 46 L35 46 L35 44 L34 44 L34 47 L36 47 L36 48 "
style="fill:rgb(252,252,252); fill-rule:evenodd; stroke:rgb(252,252,252); stroke-width:0 "/>
<path d="M53 44 L53 42 L52 43 L51 43 L51 45 L52 45 L52 44 L53 44 "
style="fill:rgb(1,1,1); fill-rule:evenodd; stroke:rgb(1,1,1); stroke-width:0 "/>
<path d="M7 42 L7 44 L8 44 L8 42 L7 42 "
style="fill:rgb(1,1,1); fill-rule:evenodd; stroke:rgb(1,1,1); stroke-width:0 "/>
<path d="M34 43 L35 43 L35 41 L34 41 L34 43 "
style="fill:rgb(252,252,252); fill-rule:evenodd; stroke:rgb(252,252,252); stroke-width:0 "/>
<path d="M37 36 L37 35 L36 35 L36 36 L37 36 "
style="fill:rgb(252,252,252); fill-rule:evenodd; stroke:rgb(252,252,252); stroke-width:0 "/>
<path d="M31 37 L32 37 L32 36 L31 36 L31 37 "
style="fill:rgb(252,252,252); fill-rule:evenodd; stroke:rgb(252,252,252); stroke-width:0 "/>
<path d="M28 29 L28 30 L29 30 L29 29 L28 29 "
style="fill:rgb(252,252,252); fill-rule:evenodd; stroke:rgb(252,252,252); stroke-width:0 "/>
<path d="M27 28 L27 29 L28 29 L28 28 L27 28 "
style="fill:rgb(252,252,252); fill-rule:evenodd; stroke:rgb(252,252,252); stroke-width:0 "/>
<path d="M51 46 L51 45 L50 45 L50 46 L51 46 "
style="fill:rgb(1,1,1); fill-rule:evenodd; stroke:rgb(1,1,1); stroke-width:0 "/>
<path d="M9 45 L9 46 L10 46 L10 45 L9 45 "
style="fill:rgb(1,1,1); fill-rule:evenodd; stroke:rgb(1,1,1); stroke-width:0 "/>
<path d="M29 37 L30 37 L30 36 L29 36 L29 37 "
style="fill:rgb(252,252,252); fill-rule:evenodd; stroke:rgb(252,252,252); stroke-width:0 "/>
<path d="M8 44 L8 45 L9 45 L9 44 L8 44 "
style="fill:rgb(1,1,1); fill-rule:evenodd; stroke:rgb(1,1,1); stroke-width:0 "/>
<g id="kvec-trailer" style="fill:black;font-family:Helvetica;font-size:1.200">
<rect x="3.000" y="63.000" width="32.400" height="3.000" style="fill:none;stroke:#000000"/>
<text x="3.480" y="64.200">Generated by KVEC for Linux vers. 2.94 </text>
<a xlink:href="http://www.kvec.de">
<text x="3.480" y="65.520" style="fill:blue">Copyright 2002 KK-Software</text>
</a>
</g>
</svg>
