<?xml version="1.0" standalone="no"?>
<!DOCTYPE svg PUBLIC "-//W3C//DTD SVG 20001102//EN"
	"http://www.w3.org/TR/2000/CR-SVG-20001102/DTD/svg-20001102.dtd">
<svg width="60.000" height="60.000"
     viewBox="0 0 60 60" preserveAspectRatio="xMidYMid" >
<desc><!-- Generated by KVEC (http://www.kvec.de)-->
</desc>
<!-- Generated by: KVEC for Linux vers. 2.94, KK-Software -->
<!-- SN: 0 -->
<path d="M0 60 L60 60 L60 0 L0 0 L0 60 "
style="fill:rgb(252,252,252); fill-rule:evenodd; stroke:rgb(252,252,252); stroke-width:0 "/>
<path d="M57 40 L56 36 L57 32 L57 28 L56 26 L55 25 L54 25 L54 28 L55 28 L55 32 L54 29 L53 25 L52 23 L51 22 L50 22 L50 20 L47 20 L47 17 L46 17 
L46 18 L44 18 L42 15 L41 15 L41 16 L38 16 L38 15 L37 16 L36 18 L35 18 L35 19 L33 19 L33 18 L30 21 L29 20 L28 21 L27 21 L27 23 
L25 23 L25 21 L27 19 L28 19 L27 17 L27 15 L25 14 L23 14 L23 12 L21 12 L21 10 L20 10 L20 12 L17 12 L17 14 L14 14 L13 12 L11 13 
L11 14 L9 14 L9 17 L11 17 L11 18 L12 18 L12 17 L20 17 L19 18 L19 19 L15 19 L15 18 L11 21 L11 22 L9 22 L9 21 L8 19 L6 20 
L6 21 L4 21 L3 23 L3 25 L5 25 L5 26 L6 28 L7 29 L8 29 L8 28 L12 28 L9 31 L9 32 L7 32 L7 31 L5 33 L4 33 L4 36 
L5 37 L6 37 L6 36 L10 36 L7 37 L6 38 L10 39 L10 40 L14 39 L16 36 L17 36 L17 37 L22 37 L24 36 L25 34 L26 35 L27 35 L27 37 
L25 38 L25 39 L23 39 L23 38 L22 39 L21 41 L20 41 L22 42 L22 43 L26 42 L30 42 L30 39 L31 38 L32 38 L32 36 L35 36 L35 33 L36 35 
L38 36 L40 37 L40 38 L37 38 L37 37 L36 37 L36 38 L33 38 L33 42 L34 41 L35 41 L39 42 L40 43 L42 44 L42 45 L39 45 L35 43 L31 43 
L29 44 L29 45 L28 45 L28 47 L24 47 L23 46 L23 45 L20 45 L22 46 L23 47 L25 48 L25 49 L28 49 L30 47 L32 46 L32 45 L33 45 L37 46 
L41 48 L41 49 L48 49 L51 45 L52 42 L53 40 L54 40 L54 41 L56 41 L56 40 L57 40 "
style="fill:rgb(254,147,47); fill-rule:evenodd; stroke:rgb(254,147,47); stroke-width:0 "/>
<path d="M12 27 L12 28 L13 30 L14 29 L18 32 L18 33 L20 33 L15 28 L15 27 L12 27 "
style="fill:rgb(252,252,252); fill-rule:evenodd; stroke:rgb(252,252,252); stroke-width:0 "/>
<path d="M6 25 L7 26 L7 27 L9 27 L13 26 L14 25 L14 24 L12 25 L10 25 L10 24 L9 24 L9 25 L6 25 "
style="fill:rgb(252,252,252); fill-rule:evenodd; stroke:rgb(252,252,252); stroke-width:0 "/>
<path d="M13 20 L18 21 L18 22 L20 22 L20 20 L13 20 "
style="fill:rgb(252,252,252); fill-rule:evenodd; stroke:rgb(252,252,252); stroke-width:0 "/>
<path d="M46 45 L46 40 L45 44 L44 44 L44 45 L46 45 "
style="fill:rgb(252,252,252); fill-rule:evenodd; stroke:rgb(252,252,252); stroke-width:0 "/>
<path d="M51 27 L51 24 L49 24 L49 25 L50 25 L50 27 L51 27 "
style="fill:rgb(252,252,252); fill-rule:evenodd; stroke:rgb(252,252,252); stroke-width:0 "/>
<path d="M20 26 L20 28 L22 28 L22 26 L20 26 "
style="fill:rgb(252,252,252); fill-rule:evenodd; stroke:rgb(252,252,252); stroke-width:0 "/>
<path d="M51 42 L51 38 L50 38 L50 42 L51 42 "
style="fill:rgb(252,252,252); fill-rule:evenodd; stroke:rgb(252,252,252); stroke-width:0 "/>
<path d="M32 35 L33 35 L33 33 L32 32 L31 32 L31 34 L32 34 L32 35 "
style="fill:rgb(252,252,252); fill-rule:evenodd; stroke:rgb(252,252,252); stroke-width:0 "/>
<path d="M55 39 L55 36 L54 36 L54 39 L55 39 "
style="fill:rgb(252,252,252); fill-rule:evenodd; stroke:rgb(252,252,252); stroke-width:0 "/>
<path d="M10 35 L10 36 L13 36 L13 35 L10 35 "
style="fill:rgb(252,252,252); fill-rule:evenodd; stroke:rgb(252,252,252); stroke-width:0 "/>
<path d="M52 38 L52 35 L51 35 L51 38 L52 38 "
style="fill:rgb(252,252,252); fill-rule:evenodd; stroke:rgb(252,252,252); stroke-width:0 "/>
<path d="M42 46 L44 46 L44 45 L42 45 L42 46 "
style="fill:rgb(252,252,252); fill-rule:evenodd; stroke:rgb(252,252,252); stroke-width:0 "/>
<path d="M21 14 L19 14 L19 15 L21 15 L21 14 "
style="fill:rgb(252,252,252); fill-rule:evenodd; stroke:rgb(252,252,252); stroke-width:0 "/>
<path d="M22 19 L20 19 L20 20 L22 20 L22 19 "
style="fill:rgb(252,252,252); fill-rule:evenodd; stroke:rgb(252,252,252); stroke-width:0 "/>
<path d="M19 24 L19 26 L20 26 L20 24 L19 24 "
style="fill:rgb(252,252,252); fill-rule:evenodd; stroke:rgb(252,252,252); stroke-width:0 "/>
<path d="M13 22 L13 23 L15 23 L15 22 L13 22 "
style="fill:rgb(252,252,252); fill-rule:evenodd; stroke:rgb(252,252,252); stroke-width:0 "/>
<path d="M13 31 L13 32 L15 32 L15 31 L13 31 "
style="fill:rgb(252,252,252); fill-rule:evenodd; stroke:rgb(252,252,252); stroke-width:0 "/>
<path d="M36 32 L36 31 L35 31 L35 32 L36 32 "
style="fill:rgb(252,252,252); fill-rule:evenodd; stroke:rgb(252,252,252); stroke-width:0 "/>
<path d="M32 23 L31 23 L31 24 L32 24 L32 23 "
style="fill:rgb(252,252,252); fill-rule:evenodd; stroke:rgb(252,252,252); stroke-width:0 "/>
<path d="M41 28 L41 27 L40 27 L40 28 L41 28 "
style="fill:rgb(252,252,252); fill-rule:evenodd; stroke:rgb(252,252,252); stroke-width:0 "/>
<path d="M31 24 L30 24 L30 25 L31 25 L31 24 "
style="fill:rgb(252,252,252); fill-rule:evenodd; stroke:rgb(252,252,252); stroke-width:0 "/>
<path d="M30 32 L31 32 L31 31 L30 31 L30 32 "
style="fill:rgb(252,252,252); fill-rule:evenodd; stroke:rgb(252,252,252); stroke-width:0 "/>
<path d="M36 23 L35 23 L35 24 L36 24 L36 23 "
style="fill:rgb(252,252,252); fill-rule:evenodd; stroke:rgb(252,252,252); stroke-width:0 "/>
<path d="M38 29 L38 28 L37 28 L37 29 L38 29 "
style="fill:rgb(252,252,252); fill-rule:evenodd; stroke:rgb(252,252,252); stroke-width:0 "/>
<path d="M37 31 L37 30 L36 30 L36 31 L37 31 "
style="fill:rgb(252,252,252); fill-rule:evenodd; stroke:rgb(252,252,252); stroke-width:0 "/>
<path d="M23 18 L22 18 L22 19 L23 19 L23 18 "
style="fill:rgb(252,252,252); fill-rule:evenodd; stroke:rgb(252,252,252); stroke-width:0 "/>
<path d="M10 31 L10 32 L11 32 L11 31 L10 31 "
style="fill:rgb(252,252,252); fill-rule:evenodd; stroke:rgb(252,252,252); stroke-width:0 "/>
<path d="M11 37 L11 38 L12 38 L12 37 L11 37 "
style="fill:rgb(252,252,252); fill-rule:evenodd; stroke:rgb(252,252,252); stroke-width:0 "/>
<path d="M46 25 L46 24 L45 24 L45 25 L46 25 "
style="fill:rgb(252,252,252); fill-rule:evenodd; stroke:rgb(252,252,252); stroke-width:0 "/>
<path d="M5 39 L5 40 L6 40 L6 39 L5 39 "
style="fill:rgb(254,147,47); fill-rule:evenodd; stroke:rgb(254,147,47); stroke-width:0 "/>
<path d="M53 35 L53 34 L52 34 L52 35 L53 35 "
style="fill:rgb(252,252,252); fill-rule:evenodd; stroke:rgb(252,252,252); stroke-width:0 "/>
<path d="M53 31 L53 30 L52 30 L52 31 L53 31 "
style="fill:rgb(252,252,252); fill-rule:evenodd; stroke:rgb(252,252,252); stroke-width:0 "/>
<path d="M16 25 L16 26 L17 26 L17 25 L16 25 "
style="fill:rgb(252,252,252); fill-rule:evenodd; stroke:rgb(252,252,252); stroke-width:0 "/>
<path d="M43 30 L43 29 L42 29 L42 30 L43 30 "
style="fill:rgb(252,252,252); fill-rule:evenodd; stroke:rgb(252,252,252); stroke-width:0 "/>
<path d="M42 29 L42 28 L41 28 L41 29 L42 29 "
style="fill:rgb(252,252,252); fill-rule:evenodd; stroke:rgb(252,252,252); stroke-width:0 "/>
<path d="M45 26 L45 25 L44 25 L44 26 L45 26 "
style="fill:rgb(252,252,252); fill-rule:evenodd; stroke:rgb(252,252,252); stroke-width:0 "/>
<path d="M15 26 L15 27 L16 27 L16 26 L15 26 "
style="fill:rgb(252,252,252); fill-rule:evenodd; stroke:rgb(252,252,252); stroke-width:0 "/>
<path d="M15 34 L15 35 L16 35 L16 34 L15 34 "
style="fill:rgb(252,252,252); fill-rule:evenodd; stroke:rgb(252,252,252); stroke-width:0 "/>
<g id="kvec-trailer" style="fill:black;font-family:Helvetica;font-size:1.200">
<rect x="3.000" y="63.000" width="32.400" height="3.000" style="fill:none;stroke:#000000"/>
<text x="3.480" y="64.200">Generated by KVEC for Linux vers. 2.94 </text>
<a xlink:href="http://www.kvec.de">
<text x="3.480" y="65.520" style="fill:blue">Copyright 2002 KK-Software</text>
</a>
</g>
</svg>
