<?xml version="1.0" standalone="no"?>
<!DOCTYPE svg PUBLIC "-//W3C//DTD SVG 20001102//EN"
	"http://www.w3.org/TR/2000/CR-SVG-20001102/DTD/svg-20001102.dtd">
<svg width="60.000" height="60.000"
     viewBox="0 0 60 60" preserveAspectRatio="xMidYMid" >
<desc><!-- Generated by KVEC (http://www.kvec.de)-->
</desc>
<!-- Generated by: KVEC for Linux vers. 2.94, KK-Software -->
<!-- SN: 0 -->
<path d="M0 60 L60 60 L60 0 L0 0 L0 60 "
style="fill:rgb(252,252,252); fill-rule:evenodd; stroke:rgb(252,252,252); stroke-width:0 "/>
<path d="M54 29 L54 27 L51 27 L50 29 L47 27 L48 25 L49 26 L50 25 L51 23 L52 23 L52 22 L54 22 L54 19 L47 13 L47 12 L43 12 L43 13 L41 12 L39 12 
L39 13 L38 13 L38 12 L36 12 L37 13 L33 15 L34 16 L32 17 L33 18 L33 19 L32 19 L32 21 L30 21 L28 23 L26 24 L25 25 L23 26 L20 27 
L18 29 L12 32 L12 33 L9 33 L9 32 L8 32 L8 28 L10 27 L12 26 L18 24 L18 23 L20 23 L20 21 L21 21 L21 20 L20 20 L20 18 L18 18 
L18 17 L10 17 L8 18 L8 19 L7 19 L7 21 L8 21 L8 20 L10 20 L10 21 L11 21 L14 20 L14 19 L18 19 L19 20 L18 21 L16 22 L13 23 
L9 25 L8 27 L7 29 L6 29 L6 32 L8 33 L10 34 L10 35 L11 35 L14 34 L16 33 L16 32 L19 32 L19 36 L18 37 L17 41 L16 44 L15 44 
L15 46 L16 46 L16 47 L21 47 L21 45 L20 45 L20 40 L22 39 L22 38 L24 38 L24 39 L23 39 L24 45 L26 46 L26 47 L30 47 L30 44 L28 44 
L27 42 L27 40 L29 38 L30 38 L30 35 L29 35 L31 34 L31 33 L32 31 L33 33 L34 33 L38 35 L38 36 L45 36 L45 35 L46 35 L46 32 L48 32 
L48 33 L51 33 L52 31 L53 31 L53 29 L54 29 "
style="fill:rgb(255,0,0); fill-rule:evenodd; stroke:rgb(255,0,0); stroke-width:0 "/>
<path d="M44 33 L43 32 L43 31 L40 31 L41 32 L41 33 L44 33 "
style="fill:rgb(252,252,252); fill-rule:evenodd; stroke:rgb(252,252,252); stroke-width:0 "/>
<path d="M32 25 L31 25 L31 28 L32 28 L32 25 "
style="fill:rgb(252,252,252); fill-rule:evenodd; stroke:rgb(252,252,252); stroke-width:0 "/>
<path d="M45 29 L45 28 L43 28 L43 29 L45 29 "
style="fill:rgb(252,252,252); fill-rule:evenodd; stroke:rgb(252,252,252); stroke-width:0 "/>
<path d="M26 36 L27 36 L27 34 L26 34 L26 36 "
style="fill:rgb(252,252,252); fill-rule:evenodd; stroke:rgb(252,252,252); stroke-width:0 "/>
<path d="M24 38 L25 38 L25 37 L24 37 L24 38 "
style="fill:rgb(252,252,252); fill-rule:evenodd; stroke:rgb(252,252,252); stroke-width:0 "/>
<path d="M40 27 L40 26 L39 26 L39 27 L40 27 "
style="fill:rgb(252,252,252); fill-rule:evenodd; stroke:rgb(252,252,252); stroke-width:0 "/>
<path d="M40 29 L40 28 L39 28 L39 29 L40 29 "
style="fill:rgb(252,252,252); fill-rule:evenodd; stroke:rgb(252,252,252); stroke-width:0 "/>
<path d="M25 37 L26 37 L26 36 L25 36 L25 37 "
style="fill:rgb(252,252,252); fill-rule:evenodd; stroke:rgb(252,252,252); stroke-width:0 "/>
<path d="M25 27 L25 28 L26 28 L26 27 L25 27 "
style="fill:rgb(252,252,252); fill-rule:evenodd; stroke:rgb(252,252,252); stroke-width:0 "/>
<path d="M33 30 L33 29 L32 29 L32 30 L33 30 "
style="fill:rgb(252,252,252); fill-rule:evenodd; stroke:rgb(252,252,252); stroke-width:0 "/>
<path d="M43 11 L42 11 L42 12 L43 12 L43 11 "
style="fill:rgb(255,0,0); fill-rule:evenodd; stroke:rgb(255,0,0); stroke-width:0 "/>
<path d="M47 28 L47 27 L46 27 L46 28 L47 28 "
style="fill:rgb(252,252,252); fill-rule:evenodd; stroke:rgb(252,252,252); stroke-width:0 "/>
<path d="M51 23 L51 22 L50 22 L50 23 L51 23 "
style="fill:rgb(252,252,252); fill-rule:evenodd; stroke:rgb(252,252,252); stroke-width:0 "/>
<path d="M50 18 L50 17 L49 17 L49 18 L50 18 "
style="fill:rgb(252,252,252); fill-rule:evenodd; stroke:rgb(252,252,252); stroke-width:0 "/>
<path d="M41 30 L41 29 L40 29 L40 30 L41 30 "
style="fill:rgb(252,252,252); fill-rule:evenodd; stroke:rgb(252,252,252); stroke-width:0 "/>
<path d="M40 31 L40 30 L39 30 L39 31 L40 31 "
style="fill:rgb(252,252,252); fill-rule:evenodd; stroke:rgb(252,252,252); stroke-width:0 "/>
<path d="M35 13 L34 13 L34 14 L35 14 L35 13 "
style="fill:rgb(255,0,0); fill-rule:evenodd; stroke:rgb(255,0,0); stroke-width:0 "/>
<path d="M42 29 L42 28 L41 28 L41 29 L42 29 "
style="fill:rgb(252,252,252); fill-rule:evenodd; stroke:rgb(252,252,252); stroke-width:0 "/>
<g id="kvec-trailer" style="fill:black;font-family:Helvetica;font-size:1.200">
<rect x="3.000" y="63.000" width="32.400" height="3.000" style="fill:none;stroke:#000000"/>
<text x="3.480" y="64.200">Generated by KVEC for Linux vers. 2.94 </text>
<a xlink:href="http://www.kvec.de">
<text x="3.480" y="65.520" style="fill:blue">Copyright 2002 KK-Software</text>
</a>
</g>
</svg>
