<?xml version="1.0" standalone="no"?>
<!DOCTYPE svg PUBLIC "-//W3C//DTD SVG 20001102//EN"
	"http://www.w3.org/TR/2000/CR-SVG-20001102/DTD/svg-20001102.dtd">
<svg width="60.000" height="60.000"
     viewBox="0 0 60 60" preserveAspectRatio="xMidYMid" >
<desc><!-- Generated by KVEC (http://www.kvec.de)-->
</desc>
<!-- Generated by: KVEC for Linux vers. 2.94, KK-Software -->
<!-- SN: 0 -->
<path d="M0 60 L60 60 L60 0 L0 0 L0 60 "
style="fill:rgb(252,252,252); fill-rule:evenodd; stroke:rgb(252,252,252); stroke-width:0 "/>
<path d="M5 17 L5 27 L6 29 L7 27 L8 29 L11 31 L10 32 L10 33 L14 33 L16 32 L16 31 L18 27 L19 29 L22 27 L21 26 L22 24 L23 25 L25 29 L26 29 
L26 30 L25 30 L25 32 L21 32 L17 34 L15 37 L14 37 L14 40 L15 42 L16 45 L17 45 L17 47 L16 47 L14 48 L14 49 L13 49 L13 51 L14 51 
L14 52 L16 52 L22 50 L23 49 L22 47 L21 45 L20 45 L20 44 L21 44 L21 40 L20 40 L27 39 L28 37 L29 39 L30 42 L31 40 L32 39 L35 41 
L35 42 L38 42 L38 44 L42 45 L44 47 L44 48 L43 48 L43 50 L41 50 L41 52 L46 52 L47 49 L47 46 L44 40 L43 40 L41 39 L41 38 L40 36 
L39 35 L38 32 L37 32 L35 31 L34 30 L34 29 L35 26 L36 28 L38 29 L40 30 L41 31 L41 32 L47 32 L47 31 L49 32 L48 33 L48 34 L50 34 
L50 30 L52 30 L52 26 L51 24 L49 25 L47 26 L47 27 L42 27 L42 26 L41 24 L40 20 L38 19 L35 18 L37 17 L38 16 L38 15 L37 12 L36 12 
L36 11 L34 11 L34 12 L35 12 L35 14 L23 14 L25 12 L25 11 L23 11 L22 13 L21 13 L21 16 L23 17 L21 18 L20 20 L19 17 L17 13 L16 13 
L14 12 L14 11 L10 11 L11 12 L10 14 L9 16 L8 17 L7 15 L6 15 L6 17 L5 17 "
style="fill:rgb(139,22,22); fill-rule:evenodd; stroke:rgb(139,22,22); stroke-width:0 "/>
<path d="M56 15 L55 14 L56 13 L52 11 L52 10 L50 11 L48 12 L49 13 L48 14 L49 15 L51 16 L51 17 L52 17 L52 16 L54 16 L54 15 L56 15 "
style="fill:rgb(139,22,22); fill-rule:evenodd; stroke:rgb(139,22,22); stroke-width:0 "/>
<path d="M51 23 L51 22 L50 20 L49 16 L48 15 L46 17 L46 19 L48 21 L49 24 L50 24 L50 23 L51 23 "
style="fill:rgb(139,22,22); fill-rule:evenodd; stroke:rgb(139,22,22); stroke-width:0 "/>
<path d="M6 18 L6 26 L7 26 L7 22 L9 22 L9 23 L10 23 L10 20 L9 20 L9 21 L7 21 L7 18 L6 18 "
style="fill:rgb(252,252,252); fill-rule:evenodd; stroke:rgb(252,252,252); stroke-width:0 "/>
<path d="M13 20 L13 23 L14 23 L14 22 L16 22 L16 23 L17 23 L17 21 L14 21 L14 20 L13 20 "
style="fill:rgb(252,252,252); fill-rule:evenodd; stroke:rgb(252,252,252); stroke-width:0 "/>
<path d="M19 21 L19 27 L20 27 L20 21 L19 21 "
style="fill:rgb(252,252,252); fill-rule:evenodd; stroke:rgb(252,252,252); stroke-width:0 "/>
<path d="M10 18 L10 20 L11 19 L12 20 L13 20 L13 18 L10 18 "
style="fill:rgb(252,252,252); fill-rule:evenodd; stroke:rgb(252,252,252); stroke-width:0 "/>
<path d="M52 36 L51 34 L50 35 L49 35 L49 37 L50 37 L50 36 L52 36 "
style="fill:rgb(139,22,22); fill-rule:evenodd; stroke:rgb(139,22,22); stroke-width:0 "/>
<path d="M10 24 L10 26 L11 25 L12 26 L13 26 L13 24 L10 24 "
style="fill:rgb(252,252,252); fill-rule:evenodd; stroke:rgb(252,252,252); stroke-width:0 "/>
<path d="M14 12 L13 12 L13 14 L14 14 L14 15 L16 15 L16 14 L15 14 L15 13 L14 13 L14 12 "
style="fill:rgb(252,252,252); fill-rule:evenodd; stroke:rgb(252,252,252); stroke-width:0 "/>
<path d="M7 15 L7 17 L8 16 L9 16 L9 14 L8 14 L8 15 L7 15 "
style="fill:rgb(252,252,252); fill-rule:evenodd; stroke:rgb(252,252,252); stroke-width:0 "/>
<path d="M14 29 L14 31 L16 30 L16 29 L14 29 "
style="fill:rgb(252,252,252); fill-rule:evenodd; stroke:rgb(252,252,252); stroke-width:0 "/>
<path d="M29 22 L26 22 L26 23 L29 23 L29 22 "
style="fill:rgb(252,252,252); fill-rule:evenodd; stroke:rgb(252,252,252); stroke-width:0 "/>
<path d="M28 32 L31 32 L31 31 L28 31 L28 32 "
style="fill:rgb(252,252,252); fill-rule:evenodd; stroke:rgb(252,252,252); stroke-width:0 "/>
<path d="M26 30 L26 31 L28 31 L28 30 L26 30 "
style="fill:rgb(252,252,252); fill-rule:evenodd; stroke:rgb(252,252,252); stroke-width:0 "/>
<path d="M32 38 L33 38 L33 36 L32 36 L32 38 "
style="fill:rgb(252,252,252); fill-rule:evenodd; stroke:rgb(252,252,252); stroke-width:0 "/>
<path d="M9 27 L9 29 L10 29 L10 27 L9 27 "
style="fill:rgb(252,252,252); fill-rule:evenodd; stroke:rgb(252,252,252); stroke-width:0 "/>
<path d="M40 28 L40 27 L38 27 L38 28 L40 28 "
style="fill:rgb(252,252,252); fill-rule:evenodd; stroke:rgb(252,252,252); stroke-width:0 "/>
<path d="M52 38 L52 37 L50 37 L50 38 L52 38 "
style="fill:rgb(139,22,22); fill-rule:evenodd; stroke:rgb(139,22,22); stroke-width:0 "/>
<path d="M7 27 L7 29 L8 29 L8 27 L7 27 "
style="fill:rgb(252,252,252); fill-rule:evenodd; stroke:rgb(252,252,252); stroke-width:0 "/>
<path d="M52 37 L52 36 L50 36 L50 37 L52 37 "
style="fill:rgb(252,252,252); fill-rule:evenodd; stroke:rgb(252,252,252); stroke-width:0 "/>
<path d="M31 16 L29 16 L29 17 L31 17 L31 16 "
style="fill:rgb(252,252,252); fill-rule:evenodd; stroke:rgb(252,252,252); stroke-width:0 "/>
<path d="M26 16 L24 16 L24 17 L26 17 L26 16 "
style="fill:rgb(252,252,252); fill-rule:evenodd; stroke:rgb(252,252,252); stroke-width:0 "/>
<path d="M33 31 L33 30 L31 30 L31 31 L33 31 "
style="fill:rgb(252,252,252); fill-rule:evenodd; stroke:rgb(252,252,252); stroke-width:0 "/>
<path d="M29 19 L28 19 L28 20 L29 20 L29 19 "
style="fill:rgb(252,252,252); fill-rule:evenodd; stroke:rgb(252,252,252); stroke-width:0 "/>
<path d="M16 26 L16 27 L17 27 L17 26 L16 26 "
style="fill:rgb(252,252,252); fill-rule:evenodd; stroke:rgb(252,252,252); stroke-width:0 "/>
<path d="M26 19 L25 19 L25 20 L26 20 L26 19 "
style="fill:rgb(252,252,252); fill-rule:evenodd; stroke:rgb(252,252,252); stroke-width:0 "/>
<path d="M16 37 L16 38 L17 38 L17 37 L16 37 "
style="fill:rgb(252,252,252); fill-rule:evenodd; stroke:rgb(252,252,252); stroke-width:0 "/>
<path d="M34 18 L33 18 L33 19 L34 19 L34 18 "
style="fill:rgb(252,252,252); fill-rule:evenodd; stroke:rgb(252,252,252); stroke-width:0 "/>
<path d="M33 19 L32 19 L32 20 L33 20 L33 19 "
style="fill:rgb(252,252,252); fill-rule:evenodd; stroke:rgb(252,252,252); stroke-width:0 "/>
<path d="M37 41 L38 41 L38 40 L37 40 L37 41 "
style="fill:rgb(252,252,252); fill-rule:evenodd; stroke:rgb(252,252,252); stroke-width:0 "/>
<path d="M27 37 L28 37 L28 36 L27 36 L27 37 "
style="fill:rgb(252,252,252); fill-rule:evenodd; stroke:rgb(252,252,252); stroke-width:0 "/>
<path d="M35 25 L34 25 L34 26 L35 26 L35 25 "
style="fill:rgb(252,252,252); fill-rule:evenodd; stroke:rgb(252,252,252); stroke-width:0 "/>
<path d="M22 25 L22 26 L23 26 L23 25 L22 25 "
style="fill:rgb(139,22,22); fill-rule:evenodd; stroke:rgb(139,22,22); stroke-width:0 "/>
<path d="M33 36 L34 36 L34 35 L33 35 L33 36 "
style="fill:rgb(252,252,252); fill-rule:evenodd; stroke:rgb(252,252,252); stroke-width:0 "/>
<path d="M26 36 L27 36 L27 35 L26 35 L26 36 "
style="fill:rgb(252,252,252); fill-rule:evenodd; stroke:rgb(252,252,252); stroke-width:0 "/>
<path d="M37 25 L37 24 L36 24 L36 25 L37 25 "
style="fill:rgb(252,252,252); fill-rule:evenodd; stroke:rgb(252,252,252); stroke-width:0 "/>
<path d="M34 34 L34 33 L33 33 L33 34 L34 34 "
style="fill:rgb(252,252,252); fill-rule:evenodd; stroke:rgb(252,252,252); stroke-width:0 "/>
<path d="M32 20 L31 20 L31 21 L32 21 L32 20 "
style="fill:rgb(252,252,252); fill-rule:evenodd; stroke:rgb(252,252,252); stroke-width:0 "/>
<path d="M36 40 L37 40 L37 39 L36 39 L36 40 "
style="fill:rgb(252,252,252); fill-rule:evenodd; stroke:rgb(252,252,252); stroke-width:0 "/>
<path d="M22 24 L22 25 L23 25 L23 24 L22 24 "
style="fill:rgb(252,252,252); fill-rule:evenodd; stroke:rgb(252,252,252); stroke-width:0 "/>
<path d="M38 27 L38 26 L37 26 L37 27 L38 27 "
style="fill:rgb(252,252,252); fill-rule:evenodd; stroke:rgb(252,252,252); stroke-width:0 "/>
<path d="M21 25 L21 26 L22 26 L22 25 L21 25 "
style="fill:rgb(252,252,252); fill-rule:evenodd; stroke:rgb(252,252,252); stroke-width:0 "/>
<path d="M9 12 L9 13 L10 13 L10 12 L9 12 "
style="fill:rgb(139,22,22); fill-rule:evenodd; stroke:rgb(139,22,22); stroke-width:0 "/>
<path d="M51 24 L51 23 L50 23 L50 24 L51 24 "
style="fill:rgb(252,252,252); fill-rule:evenodd; stroke:rgb(252,252,252); stroke-width:0 "/>
<path d="M8 30 L8 31 L9 31 L9 30 L8 30 "
style="fill:rgb(139,22,22); fill-rule:evenodd; stroke:rgb(139,22,22); stroke-width:0 "/>
<path d="M9 30 L9 31 L10 31 L10 30 L9 30 "
style="fill:rgb(252,252,252); fill-rule:evenodd; stroke:rgb(252,252,252); stroke-width:0 "/>
<path d="M9 16 L9 17 L10 17 L10 16 L9 16 "
style="fill:rgb(252,252,252); fill-rule:evenodd; stroke:rgb(252,252,252); stroke-width:0 "/>
<path d="M9 13 L9 14 L10 14 L10 13 L9 13 "
style="fill:rgb(252,252,252); fill-rule:evenodd; stroke:rgb(252,252,252); stroke-width:0 "/>
<path d="M8 29 L8 30 L9 30 L9 29 L8 29 "
style="fill:rgb(252,252,252); fill-rule:evenodd; stroke:rgb(252,252,252); stroke-width:0 "/>
<path d="M7 14 L7 15 L8 15 L8 14 L7 14 "
style="fill:rgb(139,22,22); fill-rule:evenodd; stroke:rgb(139,22,22); stroke-width:0 "/>
<path d="M53 37 L53 36 L52 36 L52 37 L53 37 "
style="fill:rgb(139,22,22); fill-rule:evenodd; stroke:rgb(139,22,22); stroke-width:0 "/>
<path d="M55 17 L55 16 L54 16 L54 17 L55 17 "
style="fill:rgb(139,22,22); fill-rule:evenodd; stroke:rgb(139,22,22); stroke-width:0 "/>
<path d="M8 13 L8 14 L9 14 L9 13 L8 13 "
style="fill:rgb(139,22,22); fill-rule:evenodd; stroke:rgb(139,22,22); stroke-width:0 "/>
<path d="M52 24 L52 23 L51 23 L51 24 L52 24 "
style="fill:rgb(139,22,22); fill-rule:evenodd; stroke:rgb(139,22,22); stroke-width:0 "/>
<path d="M7 29 L7 30 L8 30 L8 29 L7 29 "
style="fill:rgb(139,22,22); fill-rule:evenodd; stroke:rgb(139,22,22); stroke-width:0 "/>
<path d="M13 16 L13 17 L14 17 L14 16 L13 16 "
style="fill:rgb(252,252,252); fill-rule:evenodd; stroke:rgb(252,252,252); stroke-width:0 "/>
<path d="M48 19 L48 18 L47 18 L47 19 L48 19 "
style="fill:rgb(252,252,252); fill-rule:evenodd; stroke:rgb(252,252,252); stroke-width:0 "/>
<path d="M48 32 L48 31 L47 31 L47 32 L48 32 "
style="fill:rgb(252,252,252); fill-rule:evenodd; stroke:rgb(252,252,252); stroke-width:0 "/>
<path d="M16 17 L16 18 L17 18 L17 17 L16 17 "
style="fill:rgb(252,252,252); fill-rule:evenodd; stroke:rgb(252,252,252); stroke-width:0 "/>
<path d="M13 31 L13 32 L14 32 L14 31 L13 31 "
style="fill:rgb(252,252,252); fill-rule:evenodd; stroke:rgb(252,252,252); stroke-width:0 "/>
<path d="M13 27 L13 28 L14 28 L14 27 L13 27 "
style="fill:rgb(252,252,252); fill-rule:evenodd; stroke:rgb(252,252,252); stroke-width:0 "/>
<path d="M48 33 L48 32 L47 32 L47 33 L48 33 "
style="fill:rgb(139,22,22); fill-rule:evenodd; stroke:rgb(139,22,22); stroke-width:0 "/>
<path d="M10 31 L10 32 L11 32 L11 31 L10 31 "
style="fill:rgb(252,252,252); fill-rule:evenodd; stroke:rgb(252,252,252); stroke-width:0 "/>
<path d="M10 12 L10 13 L11 13 L11 12 L10 12 "
style="fill:rgb(252,252,252); fill-rule:evenodd; stroke:rgb(252,252,252); stroke-width:0 "/>
<path d="M9 31 L9 32 L10 32 L10 31 L9 31 "
style="fill:rgb(139,22,22); fill-rule:evenodd; stroke:rgb(139,22,22); stroke-width:0 "/>
<path d="M49 16 L49 15 L48 15 L48 16 L49 16 "
style="fill:rgb(252,252,252); fill-rule:evenodd; stroke:rgb(252,252,252); stroke-width:0 "/>
<path d="M49 31 L49 30 L48 30 L48 31 L49 31 "
style="fill:rgb(252,252,252); fill-rule:evenodd; stroke:rgb(252,252,252); stroke-width:0 "/>
<path d="M49 33 L49 32 L48 32 L48 33 L49 33 "
style="fill:rgb(252,252,252); fill-rule:evenodd; stroke:rgb(252,252,252); stroke-width:0 "/>
<g id="kvec-trailer" style="fill:black;font-family:Helvetica;font-size:1.200">
<rect x="3.000" y="63.000" width="32.400" height="3.000" style="fill:none;stroke:#000000"/>
<text x="3.480" y="64.200">Generated by KVEC for Linux vers. 2.94 </text>
<a xlink:href="http://www.kvec.de">
<text x="3.480" y="65.520" style="fill:blue">Copyright 2002 KK-Software</text>
</a>
</g>
</svg>
