<?xml version="1.0" standalone="no"?>
<!DOCTYPE svg PUBLIC "-//W3C//DTD SVG 20001102//EN"
	"http://www.w3.org/TR/2000/CR-SVG-20001102/DTD/svg-20001102.dtd">
<svg width="60.000" height="60.000"
     viewBox="0 0 60 60" preserveAspectRatio="xMidYMid" >
<desc><!-- Generated by KVEC (http://www.kvec.de)-->
</desc>
<!-- Generated by: KVEC for Linux vers. 2.94, KK-Software -->
<!-- SN: 0 -->
<path d="M0 60 L60 60 L60 0 L0 0 L0 60 "
style="fill:rgb(252,252,252); fill-rule:evenodd; stroke:rgb(252,252,252); stroke-width:0 "/>
<path d="M4 29 L4 31 L5 31 L7 32 L7 33 L9 32 L11 30 L13 30 L13 32 L14 35 L15 37 L16 38 L17 38 L17 40 L16 41 L15 41 L16 43 L16 45 L18 45 
L18 46 L21 46 L19 43 L18 43 L18 41 L22 41 L22 40 L24 40 L25 42 L27 41 L32 40 L32 39 L33 39 L37 41 L40 42 L40 43 L42 47 L43 47 
L45 49 L47 49 L47 47 L49 47 L49 45 L47 44 L47 43 L45 43 L44 41 L44 39 L42 38 L40 38 L40 34 L41 34 L41 37 L45 38 L45 39 L49 39 
L51 38 L52 37 L51 36 L44 35 L42 34 L41 33 L38 32 L38 31 L36 31 L36 29 L38 28 L38 27 L41 27 L41 25 L43 25 L44 24 L46 23 L46 22 
L47 22 L47 20 L50 20 L50 17 L52 16 L50 15 L51 14 L51 13 L47 14 L44 15 L42 16 L36 18 L36 19 L34 19 L36 17 L35 16 L35 15 L31 16 
L30 17 L27 18 L26 19 L24 20 L24 21 L23 19 L22 18 L19 20 L21 21 L20 23 L19 23 L19 22 L17 22 L17 20 L16 20 L17 19 L17 18 L14 18 
L13 19 L13 20 L15 20 L15 22 L16 23 L17 23 L17 25 L15 24 L13 24 L13 25 L11 23 L10 25 L8 26 L6 27 L6 28 L5 28 L5 29 L4 29 "
style="fill:rgb(205,2,205); fill-rule:evenodd; stroke:rgb(205,2,205); stroke-width:0 "/>
<path d="M11 38 L11 43 L12 43 L12 44 L14 44 L14 41 L13 41 L13 40 L16 40 L16 38 L15 38 L15 37 L12 37 L12 38 L11 38 "
style="fill:rgb(205,2,205); fill-rule:evenodd; stroke:rgb(205,2,205); stroke-width:0 "/>
<path d="M29 14 L26 14 L21 15 L19 16 L19 17 L22 17 L27 16 L27 15 L29 15 L29 14 "
style="fill:rgb(205,2,205); fill-rule:evenodd; stroke:rgb(205,2,205); stroke-width:0 "/>
<path d="M34 19 L28 19 L28 20 L34 20 L34 19 "
style="fill:rgb(252,252,252); fill-rule:evenodd; stroke:rgb(252,252,252); stroke-width:0 "/>
<path d="M27 21 L26 21 L26 25 L27 25 L27 21 "
style="fill:rgb(252,252,252); fill-rule:evenodd; stroke:rgb(252,252,252); stroke-width:0 "/>
<path d="M28 25 L27 25 L27 29 L28 29 L28 25 "
style="fill:rgb(252,252,252); fill-rule:evenodd; stroke:rgb(252,252,252); stroke-width:0 "/>
<path d="M24 32 L24 34 L25 35 L26 35 L26 33 L25 33 L25 32 L24 32 "
style="fill:rgb(252,252,252); fill-rule:evenodd; stroke:rgb(252,252,252); stroke-width:0 "/>
<path d="M19 17 L17 17 L17 18 L19 18 L19 17 "
style="fill:rgb(205,2,205); fill-rule:evenodd; stroke:rgb(205,2,205); stroke-width:0 "/>
<path d="M16 38 L16 40 L17 40 L17 38 L16 38 "
style="fill:rgb(252,252,252); fill-rule:evenodd; stroke:rgb(252,252,252); stroke-width:0 "/>
<path d="M25 18 L23 18 L23 19 L25 19 L25 18 "
style="fill:rgb(205,2,205); fill-rule:evenodd; stroke:rgb(205,2,205); stroke-width:0 "/>
<path d="M25 29 L25 30 L27 30 L27 29 L25 29 "
style="fill:rgb(252,252,252); fill-rule:evenodd; stroke:rgb(252,252,252); stroke-width:0 "/>
<path d="M50 16 L50 15 L49 15 L49 16 L50 16 "
style="fill:rgb(252,252,252); fill-rule:evenodd; stroke:rgb(252,252,252); stroke-width:0 "/>
<path d="M28 20 L27 20 L27 21 L28 21 L28 20 "
style="fill:rgb(252,252,252); fill-rule:evenodd; stroke:rgb(252,252,252); stroke-width:0 "/>
<path d="M47 47 L47 46 L46 46 L46 47 L47 47 "
style="fill:rgb(252,252,252); fill-rule:evenodd; stroke:rgb(252,252,252); stroke-width:0 "/>
<path d="M22 29 L22 30 L23 30 L23 29 L22 29 "
style="fill:rgb(252,252,252); fill-rule:evenodd; stroke:rgb(252,252,252); stroke-width:0 "/>
<path d="M52 13 L52 12 L51 12 L51 13 L52 13 "
style="fill:rgb(205,2,205); fill-rule:evenodd; stroke:rgb(205,2,205); stroke-width:0 "/>
<path d="M9 22 L9 23 L10 23 L10 22 L9 22 "
style="fill:rgb(205,2,205); fill-rule:evenodd; stroke:rgb(205,2,205); stroke-width:0 "/>
<path d="M9 27 L9 28 L10 28 L10 27 L9 27 "
style="fill:rgb(252,252,252); fill-rule:evenodd; stroke:rgb(252,252,252); stroke-width:0 "/>
<path d="M18 26 L18 27 L19 27 L19 26 L18 26 "
style="fill:rgb(252,252,252); fill-rule:evenodd; stroke:rgb(252,252,252); stroke-width:0 "/>
<path d="M26 17 L25 17 L25 18 L26 18 L26 17 "
style="fill:rgb(205,2,205); fill-rule:evenodd; stroke:rgb(205,2,205); stroke-width:0 "/>
<path d="M15 37 L15 38 L16 38 L16 37 L15 37 "
style="fill:rgb(252,252,252); fill-rule:evenodd; stroke:rgb(252,252,252); stroke-width:0 "/>
<path d="M44 44 L44 43 L43 43 L43 44 L44 44 "
style="fill:rgb(252,252,252); fill-rule:evenodd; stroke:rgb(252,252,252); stroke-width:0 "/>
<path d="M45 45 L45 44 L44 44 L44 45 L45 45 "
style="fill:rgb(252,252,252); fill-rule:evenodd; stroke:rgb(252,252,252); stroke-width:0 "/>
<path d="M46 46 L46 45 L45 45 L45 46 L46 46 "
style="fill:rgb(252,252,252); fill-rule:evenodd; stroke:rgb(252,252,252); stroke-width:0 "/>
<path d="M17 32 L17 33 L18 33 L18 32 L17 32 "
style="fill:rgb(252,252,252); fill-rule:evenodd; stroke:rgb(252,252,252); stroke-width:0 "/>
<path d="M17 25 L17 26 L18 26 L18 25 L17 25 "
style="fill:rgb(252,252,252); fill-rule:evenodd; stroke:rgb(252,252,252); stroke-width:0 "/>
<g id="kvec-trailer" style="fill:black;font-family:Helvetica;font-size:1.200">
<rect x="3.000" y="63.000" width="32.400" height="3.000" style="fill:none;stroke:#000000"/>
<text x="3.480" y="64.200">Generated by KVEC for Linux vers. 2.94 </text>
<a xlink:href="http://www.kvec.de">
<text x="3.480" y="65.520" style="fill:blue">Copyright 2002 KK-Software</text>
</a>
</g>
</svg>
