<?xml version="1.0" standalone="no"?>
<!DOCTYPE svg PUBLIC "-//W3C//DTD SVG 20001102//EN"
	"http://www.w3.org/TR/2000/CR-SVG-20001102/DTD/svg-20001102.dtd">
<svg width="60.000" height="60.000"
     viewBox="0 0 60 60" preserveAspectRatio="xMidYMid" >
<desc><!-- Generated by KVEC (http://www.kvec.de)-->
</desc>
<!-- Generated by: KVEC for Linux vers. 2.94, KK-Software -->
<!-- SN: 0 -->
<path d="M0 60 L60 60 L60 0 L0 0 L0 60 "
style="fill:rgb(252,252,252); fill-rule:evenodd; stroke:rgb(252,252,252); stroke-width:0 "/>
<path d="M16 56 L20 56 L20 54 L22 56 L23 56 L23 55 L25 55 L25 53 L23 51 L22 51 L22 46 L25 43 L26 43 L26 41 L25 41 L26 39 L27 39 L27 40 L36 40 
L36 39 L37 39 L37 51 L36 51 L37 55 L38 55 L38 56 L41 56 L41 52 L40 52 L40 43 L41 41 L42 41 L46 40 L47 39 L47 38 L49 38 L50 39 
L50 40 L49 42 L48 42 L48 43 L49 43 L49 45 L51 45 L52 43 L53 43 L53 38 L52 36 L51 36 L47 35 L47 34 L48 34 L48 26 L46 24 L46 22 
L47 23 L48 23 L48 25 L50 25 L50 26 L52 24 L53 24 L53 21 L52 20 L50 18 L50 16 L54 13 L54 12 L52 12 L50 15 L49 13 L47 14 L47 15 
L44 15 L44 14 L39 14 L40 15 L39 16 L36 17 L36 18 L37 18 L37 20 L35 21 L36 23 L37 23 L37 25 L30 25 L35 26 L38 27 L37 28 L37 29 
L25 29 L25 28 L22 28 L17 29 L15 32 L13 36 L10 38 L10 39 L8 39 L8 36 L9 36 L9 35 L7 35 L6 37 L6 39 L4 39 L4 42 L5 42 
L5 44 L7 44 L6 45 L9 47 L12 47 L15 43 L16 39 L17 39 L17 44 L16 45 L15 45 L15 54 L16 54 L16 56 "
style="fill:rgb(255,142,34); fill-rule:evenodd; stroke:rgb(255,142,34); stroke-width:0 "/>
<path d="M19 54 L20 54 L20 50 L19 48 L18 48 L18 52 L19 52 L19 54 "
style="fill:rgb(252,252,252); fill-rule:evenodd; stroke:rgb(252,252,252); stroke-width:0 "/>
<path d="M40 18 L39 18 L39 20 L40 20 L40 18 "
style="fill:rgb(252,252,252); fill-rule:evenodd; stroke:rgb(252,252,252); stroke-width:0 "/>
<path d="M36 18 L35 18 L35 19 L36 19 L36 18 "
style="fill:rgb(255,142,34); fill-rule:evenodd; stroke:rgb(255,142,34); stroke-width:0 "/>
<path d="M25 41 L26 41 L26 40 L25 40 L25 41 "
style="fill:rgb(252,252,252); fill-rule:evenodd; stroke:rgb(252,252,252); stroke-width:0 "/>
<path d="M24 42 L25 42 L25 41 L24 41 L24 42 "
style="fill:rgb(252,252,252); fill-rule:evenodd; stroke:rgb(252,252,252); stroke-width:0 "/>
<path d="M41 17 L40 17 L40 18 L41 18 L41 17 "
style="fill:rgb(252,252,252); fill-rule:evenodd; stroke:rgb(252,252,252); stroke-width:0 "/>
<path d="M26 41 L27 41 L27 40 L26 40 L26 41 "
style="fill:rgb(255,142,34); fill-rule:evenodd; stroke:rgb(255,142,34); stroke-width:0 "/>
<path d="M40 22 L40 21 L39 21 L39 22 L40 22 "
style="fill:rgb(252,252,252); fill-rule:evenodd; stroke:rgb(252,252,252); stroke-width:0 "/>
<path d="M39 27 L39 26 L38 26 L38 27 L39 27 "
style="fill:rgb(252,252,252); fill-rule:evenodd; stroke:rgb(252,252,252); stroke-width:0 "/>
<path d="M40 24 L40 23 L39 23 L39 24 L40 24 "
style="fill:rgb(252,252,252); fill-rule:evenodd; stroke:rgb(252,252,252); stroke-width:0 "/>
<path d="M26 40 L27 40 L27 39 L26 39 L26 40 "
style="fill:rgb(252,252,252); fill-rule:evenodd; stroke:rgb(252,252,252); stroke-width:0 "/>
<path d="M40 26 L40 25 L39 25 L39 26 L40 26 "
style="fill:rgb(252,252,252); fill-rule:evenodd; stroke:rgb(252,252,252); stroke-width:0 "/>
<path d="M11 42 L11 43 L12 43 L12 42 L11 42 "
style="fill:rgb(252,252,252); fill-rule:evenodd; stroke:rgb(252,252,252); stroke-width:0 "/>
<path d="M12 41 L12 42 L13 42 L13 41 L12 41 "
style="fill:rgb(252,252,252); fill-rule:evenodd; stroke:rgb(252,252,252); stroke-width:0 "/>
<path d="M49 19 L49 18 L48 18 L48 19 L49 19 "
style="fill:rgb(252,252,252); fill-rule:evenodd; stroke:rgb(252,252,252); stroke-width:0 "/>
<path d="M55 12 L55 11 L54 11 L54 12 L55 12 "
style="fill:rgb(255,142,34); fill-rule:evenodd; stroke:rgb(255,142,34); stroke-width:0 "/>
<path d="M10 43 L10 44 L11 44 L11 43 L10 43 "
style="fill:rgb(252,252,252); fill-rule:evenodd; stroke:rgb(252,252,252); stroke-width:0 "/>
<path d="M19 47 L20 47 L20 46 L19 46 L19 47 "
style="fill:rgb(252,252,252); fill-rule:evenodd; stroke:rgb(252,252,252); stroke-width:0 "/>
<path d="M42 16 L41 16 L41 17 L42 17 L42 16 "
style="fill:rgb(252,252,252); fill-rule:evenodd; stroke:rgb(252,252,252); stroke-width:0 "/>
<path d="M23 43 L24 43 L24 42 L23 42 L23 43 "
style="fill:rgb(252,252,252); fill-rule:evenodd; stroke:rgb(252,252,252); stroke-width:0 "/>
<path d="M22 44 L23 44 L23 43 L22 43 L22 44 "
style="fill:rgb(252,252,252); fill-rule:evenodd; stroke:rgb(252,252,252); stroke-width:0 "/>
<path d="M20 46 L21 46 L21 45 L20 45 L20 46 "
style="fill:rgb(252,252,252); fill-rule:evenodd; stroke:rgb(252,252,252); stroke-width:0 "/>
<path d="M15 38 L15 39 L16 39 L16 38 L15 38 "
style="fill:rgb(252,252,252); fill-rule:evenodd; stroke:rgb(252,252,252); stroke-width:0 "/>
<g id="kvec-trailer" style="fill:black;font-family:Helvetica;font-size:1.200">
<rect x="3.000" y="63.000" width="32.400" height="3.000" style="fill:none;stroke:#000000"/>
<text x="3.480" y="64.200">Generated by KVEC for Linux vers. 2.94 </text>
<a xlink:href="http://www.kvec.de">
<text x="3.480" y="65.520" style="fill:blue">Copyright 2002 KK-Software</text>
</a>
</g>
</svg>
