<?xml version="1.0" standalone="no"?>
<!DOCTYPE svg PUBLIC "-//W3C//DTD SVG 20001102//EN"
	"http://www.w3.org/TR/2000/CR-SVG-20001102/DTD/svg-20001102.dtd">
<svg width="60.000" height="60.000"
     viewBox="0 0 60 60" preserveAspectRatio="xMidYMid" >
<desc><!-- Generated by KVEC (http://www.kvec.de)-->
</desc>
<!-- Generated by: KVEC for Linux vers. 2.94, KK-Software -->
<!-- SN: 0 -->
<path d="M0 60 L60 60 L60 0 L0 0 L0 60 "
style="fill:rgb(252,252,252); fill-rule:evenodd; stroke:rgb(252,252,252); stroke-width:0 "/>
<path d="M56 35 L56 34 L55 32 L53 26 L49 23 L47 22 L45 20 L43 19 L42 18 L38 16 L37 15 L37 14 L27 14 L26 15 L18 19 L14 20 L13 21 L11 22 L9 25 
L8 29 L7 29 L7 34 L9 40 L10 41 L11 47 L12 47 L12 48 L27 48 L28 47 L28 46 L25 42 L25 40 L28 40 L28 41 L29 44 L30 46 L33 48 
L33 49 L38 49 L38 47 L39 47 L39 48 L42 48 L43 47 L43 46 L42 46 L42 44 L43 40 L44 38 L45 38 L45 37 L47 37 L50 38 L50 39 L52 38 
L54 37 L54 36 L55 36 L55 35 L56 35 "
style="fill:rgb(133,133,9); fill-rule:evenodd; stroke:rgb(133,133,9); stroke-width:0 "/>
<path d="M18 46 L19 46 L19 43 L18 43 L18 46 "
style="fill:rgb(252,252,252); fill-rule:evenodd; stroke:rgb(252,252,252); stroke-width:0 "/>
<path d="M36 43 L37 43 L37 40 L36 40 L36 43 "
style="fill:rgb(252,252,252); fill-rule:evenodd; stroke:rgb(252,252,252); stroke-width:0 "/>
<path d="M27 39 L28 39 L28 36 L27 36 L27 39 "
style="fill:rgb(252,252,252); fill-rule:evenodd; stroke:rgb(252,252,252); stroke-width:0 "/>
<path d="M52 37 L52 35 L50 35 L50 36 L51 36 L51 37 L52 37 "
style="fill:rgb(252,252,252); fill-rule:evenodd; stroke:rgb(252,252,252); stroke-width:0 "/>
<path d="M19 43 L20 43 L20 41 L19 41 L19 43 "
style="fill:rgb(252,252,252); fill-rule:evenodd; stroke:rgb(252,252,252); stroke-width:0 "/>
<path d="M21 40 L23 40 L23 39 L21 39 L21 40 "
style="fill:rgb(252,252,252); fill-rule:evenodd; stroke:rgb(252,252,252); stroke-width:0 "/>
<path d="M37 46 L38 46 L38 44 L37 44 L37 46 "
style="fill:rgb(252,252,252); fill-rule:evenodd; stroke:rgb(252,252,252); stroke-width:0 "/>
<path d="M37 39 L38 39 L38 38 L37 38 L37 39 "
style="fill:rgb(252,252,252); fill-rule:evenodd; stroke:rgb(252,252,252); stroke-width:0 "/>
<path d="M39 38 L39 37 L38 37 L38 38 L39 38 "
style="fill:rgb(252,252,252); fill-rule:evenodd; stroke:rgb(252,252,252); stroke-width:0 "/>
<path d="M34 25 L33 25 L33 26 L34 26 L34 25 "
style="fill:rgb(252,252,252); fill-rule:evenodd; stroke:rgb(252,252,252); stroke-width:0 "/>
<path d="M33 26 L32 26 L32 27 L33 27 L33 26 "
style="fill:rgb(252,252,252); fill-rule:evenodd; stroke:rgb(252,252,252); stroke-width:0 "/>
<path d="M22 35 L22 36 L23 36 L23 35 L22 35 "
style="fill:rgb(252,252,252); fill-rule:evenodd; stroke:rgb(252,252,252); stroke-width:0 "/>
<path d="M25 37 L26 37 L26 36 L25 36 L25 37 "
style="fill:rgb(252,252,252); fill-rule:evenodd; stroke:rgb(252,252,252); stroke-width:0 "/>
<path d="M28 40 L29 40 L29 39 L28 39 L28 40 "
style="fill:rgb(252,252,252); fill-rule:evenodd; stroke:rgb(252,252,252); stroke-width:0 "/>
<path d="M45 36 L45 35 L44 35 L44 36 L45 36 "
style="fill:rgb(252,252,252); fill-rule:evenodd; stroke:rgb(252,252,252); stroke-width:0 "/>
<path d="M20 47 L21 47 L21 46 L20 46 L20 47 "
style="fill:rgb(252,252,252); fill-rule:evenodd; stroke:rgb(252,252,252); stroke-width:0 "/>
<path d="M51 31 L51 30 L50 30 L50 31 L51 31 "
style="fill:rgb(252,252,252); fill-rule:evenodd; stroke:rgb(252,252,252); stroke-width:0 "/>
<path d="M44 34 L44 33 L43 33 L43 34 L44 34 "
style="fill:rgb(252,252,252); fill-rule:evenodd; stroke:rgb(252,252,252); stroke-width:0 "/>
<path d="M41 37 L41 36 L40 36 L40 37 L41 37 "
style="fill:rgb(252,252,252); fill-rule:evenodd; stroke:rgb(252,252,252); stroke-width:0 "/>
<path d="M20 41 L21 41 L21 40 L20 40 L20 41 "
style="fill:rgb(252,252,252); fill-rule:evenodd; stroke:rgb(252,252,252); stroke-width:0 "/>
<path d="M43 37 L43 36 L42 36 L42 37 L43 37 "
style="fill:rgb(252,252,252); fill-rule:evenodd; stroke:rgb(252,252,252); stroke-width:0 "/>
<g id="kvec-trailer" style="fill:black;font-family:Helvetica;font-size:1.200">
<rect x="3.000" y="63.000" width="32.400" height="3.000" style="fill:none;stroke:#000000"/>
<text x="3.480" y="64.200">Generated by KVEC for Linux vers. 2.94 </text>
<a xlink:href="http://www.kvec.de">
<text x="3.480" y="65.520" style="fill:blue">Copyright 2002 KK-Software</text>
</a>
</g>
</svg>
