<?xml version="1.0" encoding="UTF-8" standalone="no"?>
<!DOCTYPE svg PUBLIC "-//W3C//DTD SVG 20010904//EN"
"http://www.w3.org/TR/2001/REC-SVG-20010904/DTD/svg10.dtd">
<!-- Created with Sodipodi ("http://www.sodipodi.com/") -->
<svg
   id="svg104"
   sodipodi:version="0.29win"
   width="17mm"
   height="17mm"
   sodipodi:docname="h:\java\titanScan\Angel3b.svg"
   xmlns="http://www.w3.org/2000/svg"
   xmlns:sodipodi="http://sodipodi.sourceforge.net/DTD/sodipodi-0.dtd"
   xmlns:xlink="http://www.w3.org/1999/xlink"
   sodipodi:docbase="h:\java\titanScan/">
  <defs
     id="defs106">
    <linearGradient
       id="linearGradient110">
      <stop
         style="stop-color:#000;stop-opacity:1;"
         offset="0"
         id="stop111" />
      <stop
         style="stop-color:#fff;stop-opacity:1;"
         offset="1"
         id="stop112" />
    </linearGradient>
    <linearGradient
       xlink:href="#linearGradient110"
       id="linearGradient113" />
    <radialGradient
       xlink:href="#linearGradient110"
       id="radialGradient114"
       cx="0.5"
       cy="0.5"
       fx="0.5"
       fy="0.5"
       r="0.5"
       gradientUnits="objectBoundingBox"
       spreadMethod="pad" />
  </defs>
  <sodipodi:namedview
     id="base" />
  <path
     style="fill:#0000ff;fill-rule:evenodd;stroke:#ababff;stroke-opacity:1;stroke-width:1pt;stroke-linejoin:round;stroke-linecap:butt;fill-opacity:1;"
     d="M 630.438 477.621 C 597.996 487.015 492.224 517.625 475.609 517.625 C 462.354 517.625 502.14 509.662 483.369 506.739 C 417.12 528.325 404.936 516.555 381.198 531.315 C 368.282 539.043 374.85 560.258 388.958 573.773 C 406.427 570.546 407.479 582.445 407.674 592.762 C 408.03 611.163 394.998 621.138 375.778 627.213 C 390.334 655.549 395.193 640.731 398.832 690.178 C 415.837 694.23 433.575 696.59 430.137 690.33 C 416.639 667.968 444.326 694.85 456.141 689.808 C 436.437 653.787 463.623 684.684 478.861 672.013 C 477.437 656.62 470.508 665.89 470.508 656.04 C 483.445 662.105 484.889 657.466 502.394 657.466 C 512.968 645.678 499.217 648.892 487.306 636.218 C 499.026 638.644 519.949 645.248 533.292 637.406 C 537.393 622.899 513.665 630.885 508.08 616.705 C 522.638 618.675 548.147 629.088 565.129 604.355 C 550.311 599.11 540.594 600.666 522.755 594.601 C 540.698 591.446 577.29 604.005 586.187 575.492 C 567.731 575.185 544.431 576.929 519.123 570.864 C 535.799 563.586 592.664 583.213 610.858 541.976 C 600.812 540.524 556.046 550.369 535.441 549.156 C 560.035 538.78 599.84 549.651 628.656 511.255 C 625.28 501.17 582.091 519.625 574.813 518.798 C 582.175 515.159 630.009 494.115 630.438 477.621 z "
     id="path108"
     sodipodi:nodetypes="cccscsccscccccccccccccccc"
     transform="matrix(0.0801795,0,0,0.0801795,1.89148,-25.4222)" />
  <path
     style="fill:#0000ff;fill-rule:evenodd;stroke:#ababff;stroke-opacity:1;stroke-width:1pt;stroke-linejoin:miter;stroke-linecap:round;fill-opacity:1;"
     d="M 190.713 507.819 C 183.67 507.819 204.051 518.058 193.595 518.058 C 103.697 498.651 59.2366 477.569 51.8682 483.252 C 82.2053 525.558 134.061 523.504 154.681 532.386 C 132.848 530.753 72.0393 513.475 54.7498 509.642 C 64.6075 554.397 140.736 543.187 161.356 548.315 C 144.098 550.439 84.0212 542.514 69.6133 542.552 C 82.5246 584.402 148.85 564.821 163.788 568.184 C 145.211 574.549 105.542 574.232 91.6073 576.146 C 110.639 608.772 153.856 588.415 176.681 585.929 C 164.852 592.725 131.339 603.152 115.49 603.065 C 142.102 632.029 170.447 615.972 177.666 616.032 C 172.814 619.499 153.253 626.083 143.168 630.212 C 161.289 651.628 174.264 637.643 189.272 637.643 C 184.07 649.17 184.039 643.712 173.953 651.295 C 191.771 671.545 211.005 637.265 209.518 656.676 C 209.376 666.713 236.478 646.017 231.859 658.188 C 229.364 664.104 255.704 654.401 268.744 659.631 C 270.776 646.288 274.359 638.28 285.276 626.545 C 272.403 622.429 254.365 607.776 252.757 593.891 C 249.624 569.2 274.255 571.186 288.073 570.211 C 293.097 562.723 302.943 546.944 288.539 530.945 C 279.198 519.615 225.493 527.38 190.713 507.819 z "
     id="path116"
     sodipodi:nodetypes="cccccccccccccccssccscsc"
     transform="matrix(0.0801795,0,0,0.0801795,1.89148,-25.4222)" />
  <path
     style="fill:#0000ff;fill-rule:evenodd;stroke:#ababff;stroke-opacity:1;stroke-width:1pt;stroke-linejoin:round;stroke-linecap:butt;fill-opacity:1;"
     d="M 233.863 666.232 C 214.001 666.232 199.338 667.673 182.98 673.436 C 181.693 712.337 172.23 823.901 240.993 895.545 C 307.976 853.467 302.109 704.353 297.029 669.341 C 276.403 666.94 257.908 664.484 242.205 665.776 C 239.495 709.154 246.528 799.468 242.735 815.858 C 237.534 802.663 234.047 701.116 233.863 666.232 z "
     id="path117"
     sodipodi:nodetypes="ccccccc"
     transform="matrix(0.0801795,0,0,0.0801795,1.89148,-25.4222)" />
  <path
     style="fill:#0000ff;fill-rule:evenodd;stroke:#ababff;stroke-opacity:1;stroke-width:1pt;stroke-linejoin:miter;stroke-linecap:butt;fill-opacity:1;"
     d="M 188.743 777.172 C 188.743 776.692 188.743 776.212 188.743 775.731 "
     id="path118"
     transform="matrix(0.0801795,0,0,0.0801795,1.89148,-25.4222)" />
  <path
     style="font-size:12;fill:#0000ff;fill-opacity:1;fill-rule:evenodd;stroke-width:0.1;stroke:#ababff;stroke-opacity:1;"
     d="M 48.8672 22.5409 C 48.125 22.8487 48.0533 23.7518 48.3984 24.2987 C 49.0234 24.0669 49.4531 23.0357 48.8672 22.5409 z M 38.9921 34.3249 C 38.4844 29.7063 40.8804 29.3059 40.489 30.1534 C 40.8659 30.7622 40.946 30.3612 41.378 29.3205 C 42.1242 27.2792 43.5729 28.4225 43.7368 29.5809 C 44.0437 28.515 43.3193 27.2409 44.7105 27.5569 C 44.7105 26.9575 45.7255 24.2726 46.8177 24.2726 C 47.2412 24.696 47.0977 24.7407 48.1524 25.7562 C 48.5363 24.8645 48.5487 25.6857 49.0426 25.7388 C 49.1988 24.8204 50.408 23.7548 48.4059 25.0664 C 46.8095 24.158 48.0376 22.1814 49.0183 21.4874 C 49.9539 22.284 49.4747 24.0456 50.0606 23.8595 C 50.285 21.8357 51.2748 20.8667 51.8583 20.7358 C 51.631 21.7412 52.2194 23.243 52.3926 22.6996 C 52.7563 21.2531 54.6983 24.0816 53.6409 25.4891 C 54.1088 25.4747 54.3375 27.3542 52.7449 28.2123 C 52.7449 28.5131 52.8594 29.8313 51.5281 29.7431 C 51.095 31.2326 50.7301 32.4889 48.8909 32.361 C 48.7177 33.0798 47.5683 34.2888 46.1065 33.9965 C 45.687 34.5668 45.4313 35.6599 43.7779 35.4925 C 43.2741 35.7843 42.9852 36.9353 41.7834 36.2888 C 42.4294 35.8739 42.8838 35.565 43.2003 34.8842 C 44.3674 35.5583 45.6674 33.7604 45.9481 33.0906 C 47.5028 33.7714 48.2984 32.4464 48.6874 31.4949 C 50.6428 31.9145 50.4043 31.0431 51.2183 29.3898 C 52.3073 29.3278 52.312 28.4531 52.5065 27.972 C 53.7836 26.792 53.6319 26.0353 53.0866 25.6242 C 53.9251 24.5057 53.1326 22.8924 52.6694 23.2638 C 52.1466 23.6517 51.5757 23.0618 51.4809 22.7368 C 51.3899 22.4641 51.382 20.3187 50.5502 24.6517 C 49.307 24.8211 50.565 24.8344 49.0361 26.4878 C 47.7319 26.3184 48.0707 27.2019 47.4204 27.1881 C 47.2259 25.7624 47.1656 25.6044 46.5229 25.0074 C 44.8909 26.5849 46.0266 28.7558 44.425 28.2444 C 44.5031 30.3362 43.7993 31.2389 43.2631 31.1607 C 43.3998 29.2283 42.7313 28.9226 42.3557 29.0207 C 41.5418 29.2724 41.87 31.7208 40.272 31.2289 C 40.1158 30.0802 39.5549 31.1348 39.427 31.8285 C 39.2306 32.9535 39.6433 34.3783 38.9921 34.3249 z "
     id="path125"
     sodipodi:nodetypes="cccccccccccccccccccccccccccccsscccccccccc" />
  <path
     style="fill:#0000ff;fill-rule:evenodd;stroke:#ababff;stroke-opacity:1;stroke-width:0.1;stroke-linejoin:miter;stroke-linecap:butt;fill-opacity:1;stroke-dasharray:none;"
     d="M 26.9141 22.6972 C 27.0312 22.0268 26.2016 21.8465 26.2109 20.9003 C 26.2289 19.1567 28.9789 19.1944 29.2578 19.2597 C 30.2192 19.4941 30.8053 20.0663 31.0156 20.705 C 31.3979 21.9053 30.4501 22.2675 30.5469 22.8925 C 31.5625 22.864 32.2065 20.8149 31.4844 20.041 C 31.0864 19.5725 30.2364 18.9182 29.0625 18.83 C 26.7363 18.6608 25.5147 19.5426 25.4297 20.7831 C 25.3458 22.0457 26.5234 22.8274 26.9141 22.6972 z "
     id="path126"
     sodipodi:nodetypes="cssscsssc" />
  <path
     style="font-size:12;fill:#0000ff;fill-opacity:1;fill-rule:evenodd;stroke:#ababff;stroke-width:0.1;stroke-linejoin:round;stroke-opacity:1;"
     d="M 24.9775 25.2842 C 24.5974 25.5142 23.6079 27.6918 24.0415 27.6918 C 24.0415 28.0218 25.1236 27.7395 26.1633 27.7649 C 26.3614 28.8046 26.6496 34.2677 26.1633 34.8838 C 26.6496 35.6154 26.2903 37.4271 25.5126 40.4723 C 24.9716 46.3729 22.5439 51.8966 22.3694 52.9663 L 35.0767 53.0818 C 34.612 51.349 33.5379 49.8724 32.9545 45.9728 C 32.6337 44.4864 31.3435 34.2015 31.3435 33.2551 C 33.1256 35.0373 32.1836 38.2131 33.1919 38.7448 C 33.6325 40.7934 33.6849 43.2458 34.8941 43.8031 C 35.5749 41.9598 36.3711 37.7356 36.7602 38.6405 C 38.0454 39.8196 37.5528 38.7283 38.8729 38.5993 C 38.7326 37.651 39.4763 38.1361 40.1961 38.0951 C 41.204 37.5744 39.042 37.0148 39.2954 36.508 C 40.8254 36.5226 41.2363 35.3594 42.569 34.4086 C 45.8423 31.7938 48.3434 30.0265 49.8506 29.2834 C 51.2517 28.6312 52.1799 26.8328 52.6478 25.7828 C 51.8069 25.88 49.1197 26.8877 47.8443 28.1703 C 46.7724 29.2163 43.8745 31.7912 41.6534 33.4926 C 39.7132 35.0364 39.2028 34.3627 38.9399 35.7435 C 38.2279 35.7435 39.097 34.2532 37.6394 34.319 C 37.5382 36.9804 35.7891 33.5732 34.404 32.7993 C 34.5012 31.0207 33.0614 31.6063 33.3532 27.3967 C 33.0614 26.1846 31.908 25.8106 31.908 25.2609 C 31.2237 25.2605 31.03 25.2267 30.6589 25.0704 C 31.0226 24.3095 30.2111 23.7071 30.1365 22.6842 C 29.9994 21.8684 30.1859 20.4477 28.6859 20.4115 C 27.0349 20.4746 27.7496 22.0453 27.4459 22.7915 C 27.3486 23.553 26.2309 24.1473 26.7286 24.7613 C 25.7563 24.925 25.5972 24.9092 24.9775 25.2842 z M 28.7891 47.2675 L 28.0469 49.1034 L 26.1719 49.1034 L 27.5782 50.2362 L 27.1484 52.3065 L 28.9063 51.2128 L 30.5078 52.3456 L 30 50.2753 L 31.5234 49.1424 L 29.4921 49.1035 L 28.7891 47.2675 z "
     id="path131"
     transform="" />
</svg>
