<?xml version="1.0" standalone="no"?>
<!DOCTYPE svg PUBLIC "-//W3C//DTD SVG 20001102//EN"
	"http://www.w3.org/TR/2000/CR-SVG-20001102/DTD/svg-20001102.dtd">
<svg width="60.000" height="60.000"
     viewBox="0 0 60 60" preserveAspectRatio="xMidYMid" >
<desc><!-- Generated by KVEC (http://www.kvec.de)-->
</desc>
<!-- Generated by: KVEC for Linux vers. 2.94, KK-Software -->
<!-- SN: 0 -->
<path d="M0 60 L60 60 L60 0 L0 0 L0 60 "
style="fill:rgb(252,252,252); fill-rule:evenodd; stroke:rgb(252,252,252); stroke-width:0 "/>
<path d="M2 14 L2 18 L3 18 L3 19 L6 19 L6 17 L8 17 L9 18 L6 22 L5 24 L4 24 L4 32 L5 34 L7 36 L8 32 L9 32 L9 44 L11 44 L11 36 
L12 35 L13 35 L13 33 L15 33 L16 31 L17 31 L17 27 L19 27 L19 26 L20 26 L20 29 L24 29 L24 30 L22 30 L22 32 L23 32 L23 33 L28 33 
L28 32 L30 32 L29 33 L30 35 L32 34 L31 33 L31 32 L33 32 L36 33 L36 34 L38 32 L39 32 L39 30 L37 30 L37 29 L40 29 L40 27 L41 27 
L41 26 L43 26 L43 27 L44 27 L44 29 L48 30 L48 31 L49 30 L51 32 L52 31 L53 31 L53 36 L51 37 L51 38 L53 38 L55 35 L56 31 L57 31 
L57 18 L56 14 L55 14 L55 12 L53 12 L53 13 L52 13 L52 12 L50 12 L50 14 L48 15 L48 16 L49 19 L50 20 L51 20 L51 25 L50 22 L49 22 
L49 21 L43 21 L41 24 L40 24 L40 26 L38 26 L37 25 L34 24 L34 23 L35 23 L35 20 L31 20 L31 23 L32 23 L31 25 L29 24 L29 23 L30 23 
L30 20 L26 20 L26 24 L24 21 L24 18 L22 18 L22 15 L19 15 L19 16 L18 15 L17 13 L16 13 L16 12 L13 12 L13 14 L12 15 L11 13 L10 13 
L10 12 L8 12 L8 14 L6 14 L6 12 L4 12 L4 13 L3 13 L3 14 L2 14 "
style="fill:rgb(206,6,206); fill-rule:evenodd; stroke:rgb(206,6,206); stroke-width:0 "/>
<path d="M23 52 L30 52 L30 51 L31 45 L32 46 L33 42 L35 43 L35 44 L40 44 L41 42 L42 42 L42 43 L45 43 L45 42 L46 42 L46 40 L48 40 L50 38 L50 37 
L49 37 L49 35 L45 35 L45 34 L40 34 L38 35 L38 36 L37 36 L37 35 L33 35 L33 36 L28 36 L26 35 L26 34 L23 34 L23 37 L20 37 L18 38 
L18 39 L17 41 L15 43 L14 43 L14 46 L15 46 L15 47 L14 47 L14 49 L16 50 L16 51 L19 51 L20 50 L19 49 L19 48 L22 48 L22 49 L21 49 
L21 51 L23 50 L23 49 L25 49 L25 50 L24 50 L24 51 L23 51 L23 52 "
style="fill:rgb(206,6,206); fill-rule:evenodd; stroke:rgb(206,6,206); stroke-width:0 "/>
<path d="M39 52 L49 52 L48 51 L48 50 L46 50 L50 42 L50 40 L48 40 L46 42 L47 43 L46 45 L45 45 L45 44 L41 44 L41 47 L40 49 L39 49 L39 52 "
style="fill:rgb(206,6,206); fill-rule:evenodd; stroke:rgb(206,6,206); stroke-width:0 "/>
<path d="M30 11 L28 13 L27 13 L27 12 L25 12 L25 14 L23 14 L23 17 L25 18 L25 19 L29 19 L29 16 L26 16 L26 15 L34 15 L34 16 L31 16 L31 19 L34 19 
L36 18 L37 17 L37 16 L36 14 L34 13 L34 12 L30 12 L30 11 "
style="fill:rgb(206,6,206); fill-rule:evenodd; stroke:rgb(206,6,206); stroke-width:0 "/>
<path d="M46 20 L46 16 L43 16 L42 14 L41 14 L41 15 L38 15 L38 18 L36 18 L36 23 L38 25 L39 24 L40 24 L40 21 L43 21 L43 20 L46 20 "
style="fill:rgb(206,6,206); fill-rule:evenodd; stroke:rgb(206,6,206); stroke-width:0 "/>
<path d="M34 15 L26 15 L26 16 L29 16 L29 19 L25 19 L25 18 L24 18 L25 24 L26 24 L26 20 L30 20 L30 23 L29 23 L30 25 L32 24 L32 23 L31 23 L31 20 
L35 20 L35 23 L34 23 L34 24 L37 24 L37 23 L36 23 L36 18 L34 18 L34 19 L31 19 L31 16 L34 16 L34 15 "
style="fill:rgb(252,252,252); fill-rule:evenodd; stroke:rgb(252,252,252); stroke-width:0 "/>
<path d="M11 17 L11 20 L12 20 L12 22 L15 22 L17 19 L18 19 L18 17 L15 20 L14 18 L13 18 L13 17 L11 17 "
style="fill:rgb(252,252,252); fill-rule:evenodd; stroke:rgb(252,252,252); stroke-width:0 "/>
<path d="M55 33 L55 15 L54 19 L53 19 L53 20 L54 20 L54 33 L55 33 "
style="fill:rgb(252,252,252); fill-rule:evenodd; stroke:rgb(252,252,252); stroke-width:0 "/>
<path d="M9 26 L9 27 L10 34 L11 30 L12 30 L12 29 L11 29 L11 26 L9 26 "
style="fill:rgb(252,252,252); fill-rule:evenodd; stroke:rgb(252,252,252); stroke-width:0 "/>
<path d="M53 36 L53 31 L51 32 L51 33 L52 33 L51 35 L51 37 L52 37 L52 36 L53 36 "
style="fill:rgb(252,252,252); fill-rule:evenodd; stroke:rgb(252,252,252); stroke-width:0 "/>
<path d="M52 35 L52 33 L51 32 L50 32 L50 37 L51 37 L51 35 L52 35 "
style="fill:rgb(206,6,206); fill-rule:evenodd; stroke:rgb(206,6,206); stroke-width:0 "/>
<path d="M43 22 L43 21 L40 21 L40 24 L41 24 L41 23 L42 23 L42 22 L43 22 "
style="fill:rgb(252,252,252); fill-rule:evenodd; stroke:rgb(252,252,252); stroke-width:0 "/>
<path d="M49 29 L49 26 L48 26 L46 27 L48 28 L48 29 L49 29 "
style="fill:rgb(252,252,252); fill-rule:evenodd; stroke:rgb(252,252,252); stroke-width:0 "/>
<path d="M7 27 L7 28 L8 31 L9 31 L9 27 L7 27 "
style="fill:rgb(252,252,252); fill-rule:evenodd; stroke:rgb(252,252,252); stroke-width:0 "/>
<path d="M45 38 L45 36 L43 36 L42 37 L42 38 L45 38 "
style="fill:rgb(252,252,252); fill-rule:evenodd; stroke:rgb(252,252,252); stroke-width:0 "/>
<path d="M20 24 L20 26 L23 26 L21 25 L21 24 L20 24 "
style="fill:rgb(252,252,252); fill-rule:evenodd; stroke:rgb(252,252,252); stroke-width:0 "/>
<path d="M23 47 L25 46 L24 44 L23 44 L23 47 "
style="fill:rgb(252,252,252); fill-rule:evenodd; stroke:rgb(252,252,252); stroke-width:0 "/>
<path d="M26 49 L27 48 L28 48 L28 46 L27 47 L26 47 L26 49 "
style="fill:rgb(252,252,252); fill-rule:evenodd; stroke:rgb(252,252,252); stroke-width:0 "/>
<path d="M18 22 L19 24 L20 24 L20 22 L18 22 "
style="fill:rgb(252,252,252); fill-rule:evenodd; stroke:rgb(252,252,252); stroke-width:0 "/>
<path d="M42 40 L42 38 L40 39 L40 40 L42 40 "
style="fill:rgb(252,252,252); fill-rule:evenodd; stroke:rgb(252,252,252); stroke-width:0 "/>
<path d="M12 25 L12 26 L14 26 L14 24 L13 24 L13 25 L12 25 "
style="fill:rgb(252,252,252); fill-rule:evenodd; stroke:rgb(252,252,252); stroke-width:0 "/>
<path d="M40 26 L40 24 L38 25 L38 26 L40 26 "
style="fill:rgb(252,252,252); fill-rule:evenodd; stroke:rgb(252,252,252); stroke-width:0 "/>
<path d="M48 41 L48 40 L46 40 L46 42 L47 42 L47 41 L48 41 "
style="fill:rgb(252,252,252); fill-rule:evenodd; stroke:rgb(252,252,252); stroke-width:0 "/>
<path d="M53 19 L53 17 L52 17 L52 19 L53 19 "
style="fill:rgb(252,252,252); fill-rule:evenodd; stroke:rgb(252,252,252); stroke-width:0 "/>
<path d="M14 26 L14 28 L15 28 L15 26 L14 26 "
style="fill:rgb(252,252,252); fill-rule:evenodd; stroke:rgb(252,252,252); stroke-width:0 "/>
<path d="M23 20 L21 20 L21 21 L23 21 L23 20 "
style="fill:rgb(252,252,252); fill-rule:evenodd; stroke:rgb(252,252,252); stroke-width:0 "/>
<path d="M53 12 L53 10 L52 10 L52 12 L53 12 "
style="fill:rgb(206,6,206); fill-rule:evenodd; stroke:rgb(206,6,206); stroke-width:0 "/>
<path d="M28 44 L30 44 L30 43 L28 43 L28 44 "
style="fill:rgb(252,252,252); fill-rule:evenodd; stroke:rgb(252,252,252); stroke-width:0 "/>
<path d="M46 40 L46 38 L45 38 L45 40 L46 40 "
style="fill:rgb(252,252,252); fill-rule:evenodd; stroke:rgb(252,252,252); stroke-width:0 "/>
<path d="M33 41 L34 41 L34 40 L33 40 L33 41 "
style="fill:rgb(252,252,252); fill-rule:evenodd; stroke:rgb(252,252,252); stroke-width:0 "/>
<path d="M34 40 L35 40 L35 39 L34 39 L34 40 "
style="fill:rgb(252,252,252); fill-rule:evenodd; stroke:rgb(252,252,252); stroke-width:0 "/>
<path d="M38 19 L37 19 L37 20 L38 20 L38 19 "
style="fill:rgb(252,252,252); fill-rule:evenodd; stroke:rgb(252,252,252); stroke-width:0 "/>
<path d="M38 25 L38 24 L37 24 L37 25 L38 25 "
style="fill:rgb(252,252,252); fill-rule:evenodd; stroke:rgb(252,252,252); stroke-width:0 "/>
<path d="M24 37 L25 37 L25 36 L24 36 L24 37 "
style="fill:rgb(252,252,252); fill-rule:evenodd; stroke:rgb(252,252,252); stroke-width:0 "/>
<path d="M24 28 L24 29 L25 29 L25 28 L24 28 "
style="fill:rgb(252,252,252); fill-rule:evenodd; stroke:rgb(252,252,252); stroke-width:0 "/>
<path d="M25 38 L26 38 L26 37 L25 37 L25 38 "
style="fill:rgb(252,252,252); fill-rule:evenodd; stroke:rgb(252,252,252); stroke-width:0 "/>
<path d="M40 20 L39 20 L39 21 L40 21 L40 20 "
style="fill:rgb(252,252,252); fill-rule:evenodd; stroke:rgb(252,252,252); stroke-width:0 "/>
<path d="M20 21 L20 22 L21 22 L21 21 L20 21 "
style="fill:rgb(252,252,252); fill-rule:evenodd; stroke:rgb(252,252,252); stroke-width:0 "/>
<path d="M35 39 L36 39 L36 38 L35 38 L35 39 "
style="fill:rgb(252,252,252); fill-rule:evenodd; stroke:rgb(252,252,252); stroke-width:0 "/>
<path d="M27 41 L28 41 L28 40 L27 40 L27 41 "
style="fill:rgb(252,252,252); fill-rule:evenodd; stroke:rgb(252,252,252); stroke-width:0 "/>
<path d="M17 48 L18 48 L18 47 L17 47 L17 48 "
style="fill:rgb(252,252,252); fill-rule:evenodd; stroke:rgb(252,252,252); stroke-width:0 "/>
<path d="M22 48 L23 48 L23 47 L22 47 L22 48 "
style="fill:rgb(252,252,252); fill-rule:evenodd; stroke:rgb(252,252,252); stroke-width:0 "/>
<path d="M12 30 L12 31 L13 31 L13 30 L12 30 "
style="fill:rgb(252,252,252); fill-rule:evenodd; stroke:rgb(252,252,252); stroke-width:0 "/>
<path d="M54 15 L54 14 L53 14 L53 15 L54 15 "
style="fill:rgb(252,252,252); fill-rule:evenodd; stroke:rgb(252,252,252); stroke-width:0 "/>
<path d="M53 13 L53 12 L52 12 L52 13 L53 13 "
style="fill:rgb(252,252,252); fill-rule:evenodd; stroke:rgb(252,252,252); stroke-width:0 "/>
<path d="M50 26 L50 25 L49 25 L49 26 L50 26 "
style="fill:rgb(252,252,252); fill-rule:evenodd; stroke:rgb(252,252,252); stroke-width:0 "/>
<path d="M16 47 L17 47 L17 46 L16 46 L16 47 "
style="fill:rgb(252,252,252); fill-rule:evenodd; stroke:rgb(252,252,252); stroke-width:0 "/>
<path d="M22 44 L23 44 L23 43 L22 43 L22 44 "
style="fill:rgb(252,252,252); fill-rule:evenodd; stroke:rgb(252,252,252); stroke-width:0 "/>
<path d="M21 43 L22 43 L22 42 L21 42 L21 43 "
style="fill:rgb(252,252,252); fill-rule:evenodd; stroke:rgb(252,252,252); stroke-width:0 "/>
<path d="M19 42 L20 42 L20 41 L19 41 L19 42 "
style="fill:rgb(252,252,252); fill-rule:evenodd; stroke:rgb(252,252,252); stroke-width:0 "/>
<path d="M46 27 L46 26 L45 26 L45 27 L46 27 "
style="fill:rgb(252,252,252); fill-rule:evenodd; stroke:rgb(252,252,252); stroke-width:0 "/>
<path d="M14 29 L14 30 L15 30 L15 29 L14 29 "
style="fill:rgb(252,252,252); fill-rule:evenodd; stroke:rgb(252,252,252); stroke-width:0 "/>
<path d="M30 45 L31 45 L31 44 L30 44 L30 45 "
style="fill:rgb(252,252,252); fill-rule:evenodd; stroke:rgb(252,252,252); stroke-width:0 "/>
<g id="kvec-trailer" style="fill:black;font-family:Helvetica;font-size:1.200">
<rect x="3.000" y="63.000" width="32.400" height="3.000" style="fill:none;stroke:#000000"/>
<text x="3.480" y="64.200">Generated by KVEC for Linux vers. 2.94 </text>
<a xlink:href="http://www.kvec.de">
<text x="3.480" y="65.520" style="fill:blue">Copyright 2002 KK-Software</text>
</a>
</g>
</svg>
