<?xml version="1.0" standalone="no"?>
<!DOCTYPE svg PUBLIC "-//W3C//DTD SVG 20001102//EN"
	"http://www.w3.org/TR/2000/CR-SVG-20001102/DTD/svg-20001102.dtd">
<svg width="60.000" height="60.000"
     viewBox="0 0 60 60" preserveAspectRatio="xMidYMid" >
<desc><!-- Generated by KVEC (http://www.kvec.de)-->
</desc>
<!-- Generated by: KVEC for Linux vers. 2.94, KK-Software -->
<!-- SN: 0 -->
<path d="M0 60 L60 60 L60 0 L0 0 L0 60 "
style="fill:rgb(252,252,252); fill-rule:evenodd; stroke:rgb(252,252,252); stroke-width:0 "/>
<path d="M56 24 L55 23 L52 22 L52 21 L50 19 L50 17 L51 17 L49 16 L50 14 L51 14 L51 12 L47 15 L47 16 L44 16 L44 15 L43 16 L42 14 L41 14 L41 15 
L39 15 L39 14 L38 16 L37 16 L37 15 L35 15 L36 16 L33 17 L33 18 L34 18 L34 20 L33 20 L34 21 L34 22 L33 22 L33 24 L35 24 L36 26 
L36 28 L34 28 L32 25 L31 26 L29 24 L28 26 L27 24 L26 24 L26 21 L27 19 L30 16 L31 17 L32 17 L32 14 L31 14 L31 13 L29 13 L29 14 
L18 14 L18 13 L13 13 L13 14 L10 14 L10 16 L11 16 L9 19 L8 21 L7 21 L7 24 L9 22 L9 20 L11 20 L12 18 L13 18 L11 22 L11 24 
L14 22 L14 21 L17 21 L16 23 L16 25 L18 24 L18 23 L20 23 L20 28 L17 28 L17 29 L15 29 L15 31 L12 31 L13 32 L11 33 L10 34 L10 35 
L8 35 L8 37 L7 37 L7 45 L9 46 L11 47 L11 48 L14 48 L16 47 L16 46 L21 46 L21 49 L20 48 L18 49 L16 50 L19 51 L19 52 L21 52 
L21 50 L22 49 L23 49 L23 47 L28 47 L28 46 L29 46 L29 47 L33 46 L33 45 L36 47 L36 48 L42 48 L42 47 L44 47 L44 48 L45 48 L45 46 
L44 46 L41 44 L38 44 L38 42 L36 41 L37 39 L38 39 L38 40 L42 40 L43 38 L44 38 L44 35 L40 35 L40 36 L39 36 L39 34 L44 34 L45 33 
L43 32 L43 31 L44 31 L44 28 L43 28 L43 26 L39 26 L39 27 L37 26 L38 24 L39 24 L39 25 L41 25 L40 23 L39 23 L39 20 L43 20 L43 21 
L42 21 L42 23 L43 23 L43 24 L45 24 L45 26 L48 28 L47 29 L50 30 L50 31 L51 30 L52 30 L52 28 L49 28 L47 25 L46 25 L46 23 L49 25 
L51 26 L51 27 L55 27 L55 24 L56 24 "
style="fill:rgb(255,0,0); fill-rule:evenodd; stroke:rgb(255,0,0); stroke-width:0 "/>
<path d="M56 36 L56 35 L52 35 L52 33 L53 33 L53 32 L51 32 L50 34 L49 34 L49 36 L45 36 L45 38 L43 39 L46 40 L46 41 L48 41 L48 40 L54 40 L54 38 
L52 38 L55 37 L55 36 L56 36 "
style="fill:rgb(255,0,0); fill-rule:evenodd; stroke:rgb(255,0,0); stroke-width:0 "/>
<path d="M21 45 L22 45 L26 44 L26 43 L28 43 L32 44 L32 45 L33 45 L33 41 L31 41 L31 42 L30 42 L30 41 L28 41 L28 42 L27 41 L26 41 L26 42 L24 42 
L24 41 L22 42 L18 43 L18 44 L21 44 L21 45 "
style="fill:rgb(252,252,252); fill-rule:evenodd; stroke:rgb(252,252,252); stroke-width:0 "/>
<path d="M24 41 L25 41 L25 39 L32 39 L32 37 L30 37 L30 38 L26 38 L26 37 L24 37 L24 41 "
style="fill:rgb(252,252,252); fill-rule:evenodd; stroke:rgb(252,252,252); stroke-width:0 "/>
<path d="M11 42 L11 43 L12 43 L12 45 L16 45 L14 44 L13 43 L13 42 L15 42 L15 40 L13 40 L13 41 L12 41 L12 42 L11 42 "
style="fill:rgb(252,252,252); fill-rule:evenodd; stroke:rgb(252,252,252); stroke-width:0 "/>
<path d="M36 28 L35 26 L35 24 L33 24 L32 25 L34 27 L34 28 L36 28 "
style="fill:rgb(252,252,252); fill-rule:evenodd; stroke:rgb(252,252,252); stroke-width:0 "/>
<path d="M42 33 L42 31 L41 31 L39 32 L39 33 L42 33 "
style="fill:rgb(252,252,252); fill-rule:evenodd; stroke:rgb(252,252,252); stroke-width:0 "/>
<path d="M48 21 L48 19 L46 19 L46 20 L47 20 L47 21 L48 21 "
style="fill:rgb(252,252,252); fill-rule:evenodd; stroke:rgb(252,252,252); stroke-width:0 "/>
<path d="M38 19 L36 19 L36 21 L37 21 L37 20 L38 20 L38 19 "
style="fill:rgb(252,252,252); fill-rule:evenodd; stroke:rgb(252,252,252); stroke-width:0 "/>
<path d="M6 24 L6 27 L7 27 L7 24 L6 24 "
style="fill:rgb(255,0,0); fill-rule:evenodd; stroke:rgb(255,0,0); stroke-width:0 "/>
<path d="M43 29 L43 28 L41 28 L41 29 L43 29 "
style="fill:rgb(252,252,252); fill-rule:evenodd; stroke:rgb(252,252,252); stroke-width:0 "/>
<path d="M41 30 L41 29 L39 29 L39 30 L41 30 "
style="fill:rgb(252,252,252); fill-rule:evenodd; stroke:rgb(252,252,252); stroke-width:0 "/>
<path d="M42 39 L42 38 L40 38 L40 39 L42 39 "
style="fill:rgb(252,252,252); fill-rule:evenodd; stroke:rgb(252,252,252); stroke-width:0 "/>
<path d="M38 31 L38 30 L36 30 L36 31 L38 31 "
style="fill:rgb(252,252,252); fill-rule:evenodd; stroke:rgb(252,252,252); stroke-width:0 "/>
<path d="M37 22 L36 22 L36 24 L37 24 L37 22 "
style="fill:rgb(252,252,252); fill-rule:evenodd; stroke:rgb(252,252,252); stroke-width:0 "/>
<path d="M21 35 L21 36 L23 36 L23 35 L21 35 "
style="fill:rgb(252,252,252); fill-rule:evenodd; stroke:rgb(252,252,252); stroke-width:0 "/>
<path d="M40 38 L40 37 L39 37 L39 38 L40 38 "
style="fill:rgb(252,252,252); fill-rule:evenodd; stroke:rgb(252,252,252); stroke-width:0 "/>
<path d="M33 24 L32 24 L32 25 L33 25 L33 24 "
style="fill:rgb(255,0,0); fill-rule:evenodd; stroke:rgb(255,0,0); stroke-width:0 "/>
<path d="M32 37 L33 37 L33 36 L32 36 L32 37 "
style="fill:rgb(252,252,252); fill-rule:evenodd; stroke:rgb(252,252,252); stroke-width:0 "/>
<path d="M23 37 L24 37 L24 36 L23 36 L23 37 "
style="fill:rgb(252,252,252); fill-rule:evenodd; stroke:rgb(252,252,252); stroke-width:0 "/>
<path d="M38 26 L38 25 L37 25 L37 26 L38 26 "
style="fill:rgb(252,252,252); fill-rule:evenodd; stroke:rgb(252,252,252); stroke-width:0 "/>
<path d="M39 26 L39 25 L38 25 L38 26 L39 26 "
style="fill:rgb(255,0,0); fill-rule:evenodd; stroke:rgb(255,0,0); stroke-width:0 "/>
<path d="M39 25 L39 24 L38 24 L38 25 L39 25 "
style="fill:rgb(252,252,252); fill-rule:evenodd; stroke:rgb(252,252,252); stroke-width:0 "/>
<path d="M39 27 L39 26 L38 26 L38 27 L39 27 "
style="fill:rgb(252,252,252); fill-rule:evenodd; stroke:rgb(252,252,252); stroke-width:0 "/>
<path d="M20 21 L20 22 L21 22 L21 21 L20 21 "
style="fill:rgb(252,252,252); fill-rule:evenodd; stroke:rgb(252,252,252); stroke-width:0 "/>
<path d="M39 32 L39 31 L38 31 L38 32 L39 32 "
style="fill:rgb(252,252,252); fill-rule:evenodd; stroke:rgb(252,252,252); stroke-width:0 "/>
<path d="M52 16 L52 15 L51 15 L51 16 L52 16 "
style="fill:rgb(255,0,0); fill-rule:evenodd; stroke:rgb(255,0,0); stroke-width:0 "/>
<path d="M49 17 L49 16 L48 16 L48 17 L49 17 "
style="fill:rgb(252,252,252); fill-rule:evenodd; stroke:rgb(252,252,252); stroke-width:0 "/>
<path d="M47 31 L47 30 L46 30 L46 31 L47 31 "
style="fill:rgb(255,0,0); fill-rule:evenodd; stroke:rgb(255,0,0); stroke-width:0 "/>
<path d="M52 24 L52 23 L51 23 L51 24 L52 24 "
style="fill:rgb(252,252,252); fill-rule:evenodd; stroke:rgb(252,252,252); stroke-width:0 "/>
<path d="M55 41 L55 40 L54 40 L54 41 L55 41 "
style="fill:rgb(255,0,0); fill-rule:evenodd; stroke:rgb(255,0,0); stroke-width:0 "/>
<path d="M54 14 L54 13 L53 13 L53 14 L54 14 "
style="fill:rgb(255,0,0); fill-rule:evenodd; stroke:rgb(255,0,0); stroke-width:0 "/>
<path d="M53 15 L53 14 L52 14 L52 15 L53 15 "
style="fill:rgb(255,0,0); fill-rule:evenodd; stroke:rgb(255,0,0); stroke-width:0 "/>
<path d="M44 39 L44 38 L43 38 L43 39 L44 39 "
style="fill:rgb(252,252,252); fill-rule:evenodd; stroke:rgb(252,252,252); stroke-width:0 "/>
<path d="M19 17 L18 17 L18 18 L19 18 L19 17 "
style="fill:rgb(252,252,252); fill-rule:evenodd; stroke:rgb(252,252,252); stroke-width:0 "/>
<path d="M39 18 L38 18 L38 19 L39 19 L39 18 "
style="fill:rgb(252,252,252); fill-rule:evenodd; stroke:rgb(252,252,252); stroke-width:0 "/>
<path d="M15 17 L15 18 L16 18 L16 17 L15 17 "
style="fill:rgb(252,252,252); fill-rule:evenodd; stroke:rgb(252,252,252); stroke-width:0 "/>
<path d="M22 46 L23 46 L23 45 L22 45 L22 46 "
style="fill:rgb(252,252,252); fill-rule:evenodd; stroke:rgb(252,252,252); stroke-width:0 "/>
<path d="M27 45 L28 45 L28 44 L27 44 L27 45 "
style="fill:rgb(252,252,252); fill-rule:evenodd; stroke:rgb(252,252,252); stroke-width:0 "/>
<path d="M30 15 L29 15 L29 16 L30 16 L30 15 "
style="fill:rgb(252,252,252); fill-rule:evenodd; stroke:rgb(252,252,252); stroke-width:0 "/>
<g id="kvec-trailer" style="fill:black;font-family:Helvetica;font-size:1.200">
<rect x="3.000" y="63.000" width="32.400" height="3.000" style="fill:none;stroke:#000000"/>
<text x="3.480" y="64.200">Generated by KVEC for Linux vers. 2.94 </text>
<a xlink:href="http://www.kvec.de">
<text x="3.480" y="65.520" style="fill:blue">Copyright 2002 KK-Software</text>
</a>
</g>
</svg>
