<?xml version="1.0" standalone="no"?>
<!DOCTYPE svg PUBLIC "-//W3C//DTD SVG 20001102//EN"
	"http://www.w3.org/TR/2000/CR-SVG-20001102/DTD/svg-20001102.dtd">
<svg width="60.000" height="60.000"
     viewBox="0 0 60 60" preserveAspectRatio="xMidYMid" >
<desc><!-- Generated by KVEC (http://www.kvec.de)-->
</desc>
<!-- Generated by: KVEC for Linux vers. 2.94, KK-Software -->
<!-- SN: 0 -->
<path d="M0 60 L60 60 L60 0 L0 0 L0 60 "
style="fill:rgb(252,252,252); fill-rule:evenodd; stroke:rgb(252,252,252); stroke-width:0 "/>
<path d="M5 20 L5 21 L6 21 L6 23 L10 23 L10 22 L13 22 L13 25 L15 26 L18 27 L18 28 L22 28 L23 27 L23 26 L26 26 L28 27 L28 28 L26 32 L25 33 
L24 35 L23 40 L22 51 L21 51 L19 52 L18 53 L18 54 L23 54 L23 53 L27 53 L27 51 L26 51 L26 47 L27 46 L28 46 L28 44 L27 44 L27 41 
L30 38 L31 36 L32 35 L33 37 L34 38 L35 40 L36 41 L37 47 L38 48 L39 48 L39 54 L48 54 L44 52 L44 51 L43 51 L43 45 L44 45 L44 44 
L43 39 L42 36 L41 34 L40 33 L39 33 L39 31 L45 33 L50 34 L50 35 L52 34 L51 32 L50 25 L47 22 L46 19 L45 18 L44 16 L42 15 L42 14 
L36 14 L36 10 L35 10 L35 9 L30 9 L30 13 L29 13 L24 14 L23 16 L22 18 L21 18 L22 19 L21 20 L21 21 L18 21 L17 20 L14 19 L14 18 
L13 14 L12 14 L8 15 L8 16 L7 16 L7 18 L6 18 L6 20 L5 20 "
style="fill:rgb(2,2,212); fill-rule:evenodd; stroke:rgb(2,2,212); stroke-width:0 "/>
<path d="M46 29 L46 28 L45 25 L41 21 L40 22 L39 25 L38 27 L37 27 L39 28 L39 29 L46 29 "
style="fill:rgb(252,252,252); fill-rule:evenodd; stroke:rgb(252,252,252); stroke-width:0 "/>
<path d="M26 22 L25 22 L25 24 L27 24 L27 23 L26 23 L26 22 "
style="fill:rgb(252,252,252); fill-rule:evenodd; stroke:rgb(252,252,252); stroke-width:0 "/>
<path d="M31 28 L30 28 L30 29 L31 29 L31 28 "
style="fill:rgb(252,252,252); fill-rule:evenodd; stroke:rgb(252,252,252); stroke-width:0 "/>
<g id="kvec-trailer" style="fill:black;font-family:Helvetica;font-size:1.200">
<rect x="3.000" y="63.000" width="32.400" height="3.000" style="fill:none;stroke:#000000"/>
<text x="3.480" y="64.200">Generated by KVEC for Linux vers. 2.94 </text>
<a xlink:href="http://www.kvec.de">
<text x="3.480" y="65.520" style="fill:blue">Copyright 2002 KK-Software</text>
</a>
</g>
</svg>
