<?xml version="1.0" standalone="no"?>
<!DOCTYPE svg PUBLIC "-//W3C//DTD SVG 20001102//EN"
	"http://www.w3.org/TR/2000/CR-SVG-20001102/DTD/svg-20001102.dtd">
<svg width="60.000" height="60.000"
     viewBox="0 0 60 60" preserveAspectRatio="xMidYMid" >
<desc><!-- Generated by KVEC (http://www.kvec.de)-->
</desc>
<!-- Generated by: KVEC for Linux vers. 2.94, KK-Software -->
<!-- SN: 0 -->
<path d="M0 60 L60 60 L60 0 L0 0 L0 60 "
style="fill:rgb(252,252,252); fill-rule:evenodd; stroke:rgb(252,252,252); stroke-width:0 "/>
<path d="M2 38 L3 39 L6 40 L6 41 L7 41 L7 40 L9 40 L9 44 L11 46 L12 46 L12 45 L15 45 L16 41 L17 41 L17 40 L20 40 L19 42 L17 44 L17 46 
L20 48 L20 49 L22 49 L22 48 L23 48 L23 46 L21 45 L21 44 L23 44 L25 46 L27 48 L29 48 L30 47 L28 45 L28 44 L26 44 L26 41 L27 40 
L28 40 L28 41 L31 41 L31 40 L36 40 L36 42 L38 42 L39 44 L40 46 L42 47 L42 48 L44 48 L44 45 L48 48 L48 49 L51 49 L51 48 L49 46 
L49 44 L47 44 L47 41 L46 39 L45 38 L44 36 L43 36 L43 35 L46 35 L46 37 L51 41 L51 42 L55 42 L55 41 L56 39 L57 39 L57 36 L55 32 
L53 31 L50 30 L50 29 L48 25 L46 24 L44 23 L44 22 L43 22 L43 20 L49 21 L50 22 L52 23 L54 26 L55 28 L56 29 L57 29 L56 25 L55 24 
L54 22 L50 19 L48 18 L47 17 L41 14 L36 13 L36 12 L22 12 L20 13 L20 14 L17 14 L17 20 L19 20 L20 22 L21 22 L21 25 L20 25 L18 26 
L17 27 L15 28 L13 31 L12 33 L11 36 L10 36 L6 39 L4 39 L4 38 L2 38 "
style="fill:rgb(2,2,2); fill-rule:evenodd; stroke:rgb(2,2,2); stroke-width:0 "/>
<path d="M55 40 L55 35 L54 35 L52 34 L49 33 L45 31 L44 29 L43 29 L43 27 L45 28 L45 29 L47 29 L48 28 L47 27 L45 26 L44 25 L40 24 L40 23 L38 23 
L38 26 L40 26 L40 28 L35 28 L39 29 L43 31 L44 32 L46 33 L48 36 L49 38 L51 39 L51 40 L55 40 "
style="fill:rgb(252,252,252); fill-rule:evenodd; stroke:rgb(252,252,252); stroke-width:0 "/>
<path d="M10 18 L10 22 L12 22 L12 20 L14 19 L16 19 L16 16 L13 16 L11 17 L11 18 L10 18 "
style="fill:rgb(2,2,2); fill-rule:evenodd; stroke:rgb(2,2,2); stroke-width:0 "/>
<path d="M26 19 L25 19 L25 24 L26 24 L26 19 "
style="fill:rgb(252,252,252); fill-rule:evenodd; stroke:rgb(252,252,252); stroke-width:0 "/>
<path d="M24 17 L20 17 L20 18 L24 18 L24 17 "
style="fill:rgb(252,252,252); fill-rule:evenodd; stroke:rgb(252,252,252); stroke-width:0 "/>
<path d="M34 38 L36 38 L36 36 L35 36 L35 37 L34 37 L34 38 "
style="fill:rgb(252,252,252); fill-rule:evenodd; stroke:rgb(252,252,252); stroke-width:0 "/>
<path d="M20 18 L18 18 L18 19 L20 19 L20 18 "
style="fill:rgb(252,252,252); fill-rule:evenodd; stroke:rgb(252,252,252); stroke-width:0 "/>
<path d="M37 35 L37 33 L36 33 L36 35 L37 35 "
style="fill:rgb(252,252,252); fill-rule:evenodd; stroke:rgb(252,252,252); stroke-width:0 "/>
<path d="M24 24 L24 26 L25 26 L25 24 L24 24 "
style="fill:rgb(252,252,252); fill-rule:evenodd; stroke:rgb(252,252,252); stroke-width:0 "/>
<path d="M43 45 L44 45 L44 43 L43 43 L43 45 "
style="fill:rgb(252,252,252); fill-rule:evenodd; stroke:rgb(252,252,252); stroke-width:0 "/>
<path d="M25 37 L26 37 L26 36 L25 36 L25 37 "
style="fill:rgb(252,252,252); fill-rule:evenodd; stroke:rgb(252,252,252); stroke-width:0 "/>
<path d="M24 36 L25 36 L25 35 L24 35 L24 36 "
style="fill:rgb(252,252,252); fill-rule:evenodd; stroke:rgb(252,252,252); stroke-width:0 "/>
<path d="M43 43 L43 42 L42 42 L42 43 L43 43 "
style="fill:rgb(252,252,252); fill-rule:evenodd; stroke:rgb(252,252,252); stroke-width:0 "/>
<path d="M11 40 L11 41 L12 41 L12 40 L11 40 "
style="fill:rgb(252,252,252); fill-rule:evenodd; stroke:rgb(252,252,252); stroke-width:0 "/>
<path d="M19 30 L19 31 L20 31 L20 30 L19 30 "
style="fill:rgb(252,252,252); fill-rule:evenodd; stroke:rgb(252,252,252); stroke-width:0 "/>
<path d="M25 18 L24 18 L24 19 L25 19 L25 18 "
style="fill:rgb(252,252,252); fill-rule:evenodd; stroke:rgb(252,252,252); stroke-width:0 "/>
<g id="kvec-trailer" style="fill:black;font-family:Helvetica;font-size:1.200">
<rect x="3.000" y="63.000" width="32.400" height="3.000" style="fill:none;stroke:#000000"/>
<text x="3.480" y="64.200">Generated by KVEC for Linux vers. 2.94 </text>
<a xlink:href="http://www.kvec.de">
<text x="3.480" y="65.520" style="fill:blue">Copyright 2002 KK-Software</text>
</a>
</g>
</svg>
