<?xml version="1.0" standalone="no"?>
<!DOCTYPE svg PUBLIC "-//W3C//DTD SVG 20001102//EN"
	"http://www.w3.org/TR/2000/CR-SVG-20001102/DTD/svg-20001102.dtd">
<svg width="60.000" height="60.000"
     viewBox="0 0 60 60" preserveAspectRatio="xMidYMid" >
<desc><!-- Generated by KVEC (http://www.kvec.de)-->
</desc>
<!-- Generated by: KVEC for Linux vers. 2.94, KK-Software -->
<!-- SN: 0 -->
<path d="M0 60 L60 60 L60 0 L0 0 L0 60 "
style="fill:rgb(252,252,252); fill-rule:evenodd; stroke:rgb(252,252,252); stroke-width:0 "/>
<path d="M53 14 L53 13 L50 13 L45 15 L40 15 L42 14 L42 13 L25 13 L25 14 L23 14 L22 16 L22 18 L25 21 L26 21 L25 25 L23 27 L22 26 L21 23 L20 21 
L19 21 L19 18 L17 18 L12 19 L10 20 L10 21 L9 21 L9 23 L10 23 L10 22 L13 22 L12 23 L12 24 L14 24 L14 32 L15 33 L16 33 L16 35 
L15 35 L15 36 L13 36 L13 34 L14 34 L12 32 L8 33 L10 34 L8 35 L8 36 L11 36 L11 38 L10 38 L10 39 L13 39 L13 37 L19 37 L19 38 
L20 40 L23 37 L24 37 L31 38 L31 39 L32 39 L32 41 L34 41 L34 43 L35 43 L32 46 L33 47 L33 48 L37 48 L37 47 L36 47 L36 44 L38 44 
L37 45 L37 46 L40 46 L40 40 L37 38 L37 37 L40 37 L40 35 L37 33 L35 32 L31 31 L32 29 L33 30 L34 28 L36 27 L36 26 L38 26 L38 24 
L40 24 L39 23 L42 22 L44 21 L43 20 L47 19 L50 18 L47 17 L50 16 L52 15 L52 14 L53 14 "
style="fill:rgb(255,142,38); fill-rule:evenodd; stroke:rgb(255,142,38); stroke-width:0 "/>
<path d="M51 38 L51 34 L49 30 L48 31 L47 31 L47 27 L48 27 L48 26 L46 26 L45 28 L44 28 L44 32 L45 32 L49 34 L49 35 L48 39 L47 39 L47 40 L44 40 
L43 39 L43 38 L41 38 L43 40 L43 41 L48 41 L48 40 L50 40 L50 38 L51 38 "
style="fill:rgb(255,142,38); fill-rule:evenodd; stroke:rgb(255,142,38); stroke-width:0 "/>
<path d="M14 41 L14 42 L16 42 L16 45 L18 45 L18 44 L17 44 L17 42 L18 42 L20 44 L22 44 L21 42 L20 40 L19 41 L18 41 L18 40 L15 40 L15 41 L14 41 "
style="fill:rgb(255,142,38); fill-rule:evenodd; stroke:rgb(255,142,38); stroke-width:0 "/>
<path d="M22 34 L22 37 L23 37 L23 34 L22 34 "
style="fill:rgb(252,252,252); fill-rule:evenodd; stroke:rgb(252,252,252); stroke-width:0 "/>
<path d="M30 35 L32 35 L32 34 L30 34 L30 35 "
style="fill:rgb(252,252,252); fill-rule:evenodd; stroke:rgb(252,252,252); stroke-width:0 "/>
<path d="M19 28 L19 29 L20 29 L20 28 L19 28 "
style="fill:rgb(252,252,252); fill-rule:evenodd; stroke:rgb(252,252,252); stroke-width:0 "/>
<path d="M41 38 L41 37 L40 37 L40 38 L41 38 "
style="fill:rgb(255,142,38); fill-rule:evenodd; stroke:rgb(255,142,38); stroke-width:0 "/>
<path d="M20 27 L20 28 L21 28 L21 27 L20 27 "
style="fill:rgb(252,252,252); fill-rule:evenodd; stroke:rgb(252,252,252); stroke-width:0 "/>
<path d="M35 40 L36 40 L36 39 L35 39 L35 40 "
style="fill:rgb(252,252,252); fill-rule:evenodd; stroke:rgb(252,252,252); stroke-width:0 "/>
<path d="M18 29 L18 30 L19 30 L19 29 L18 29 "
style="fill:rgb(252,252,252); fill-rule:evenodd; stroke:rgb(252,252,252); stroke-width:0 "/>
<path d="M12 20 L12 21 L13 21 L13 20 L12 20 "
style="fill:rgb(252,252,252); fill-rule:evenodd; stroke:rgb(252,252,252); stroke-width:0 "/>
<path d="M54 13 L54 12 L53 12 L53 13 L54 13 "
style="fill:rgb(255,142,38); fill-rule:evenodd; stroke:rgb(255,142,38); stroke-width:0 "/>
<path d="M36 41 L37 41 L37 40 L36 40 L36 41 "
style="fill:rgb(252,252,252); fill-rule:evenodd; stroke:rgb(252,252,252); stroke-width:0 "/>
<path d="M18 41 L19 41 L19 40 L18 40 L18 41 "
style="fill:rgb(252,252,252); fill-rule:evenodd; stroke:rgb(252,252,252); stroke-width:0 "/>
<path d="M18 39 L18 40 L19 40 L19 39 L18 39 "
style="fill:rgb(255,142,38); fill-rule:evenodd; stroke:rgb(255,142,38); stroke-width:0 "/>
<g id="kvec-trailer" style="fill:black;font-family:Helvetica;font-size:1.200">
<rect x="3.000" y="63.000" width="32.400" height="3.000" style="fill:none;stroke:#000000"/>
<text x="3.480" y="64.200">Generated by KVEC for Linux vers. 2.94 </text>
<a xlink:href="http://www.kvec.de">
<text x="3.480" y="65.520" style="fill:blue">Copyright 2002 KK-Software</text>
</a>
</g>
</svg>
