<?xml version="1.0" standalone="no"?>
<!DOCTYPE svg PUBLIC "-//W3C//DTD SVG 20001102//EN"
	"http://www.w3.org/TR/2000/CR-SVG-20001102/DTD/svg-20001102.dtd">
<svg width="60.000" height="60.000"
     viewBox="0 0 60 60" preserveAspectRatio="xMidYMid" >
<desc><!-- Generated by KVEC (http://www.kvec.de)-->
</desc>
<!-- Generated by: KVEC for Linux vers. 2.94, KK-Software -->
<!-- SN: 0 -->
<path d="M0 60 L60 60 L60 0 L0 0 L0 60 "
style="fill:rgb(252,252,252); fill-rule:evenodd; stroke:rgb(252,252,252); stroke-width:0 "/>
<path d="M5 23 L5 26 L6 26 L6 27 L8 27 L8 29 L7 29 L7 36 L9 38 L9 40 L11 40 L15 41 L17 42 L17 43 L21 43 L21 41 L23 41 L25 43 L28 44 
L30 46 L32 46 L33 45 L35 43 L37 43 L37 41 L39 41 L39 42 L42 42 L42 41 L44 43 L46 41 L47 39 L48 39 L48 36 L50 36 L50 37 L51 35 
L52 34 L53 31 L54 31 L54 27 L53 27 L53 24 L54 24 L54 23 L53 20 L52 18 L51 18 L47 16 L48 15 L47 14 L47 13 L40 13 L38 14 L37 15 
L30 16 L30 17 L22 17 L19 16 L19 15 L12 15 L9 16 L8 18 L7 20 L6 20 L6 23 L5 23 "
style="fill:rgb(205,1,205); fill-rule:evenodd; stroke:rgb(205,1,205); stroke-width:0 "/>
<path d="M33 23 L28 23 L28 24 L25 24 L25 26 L26 26 L31 25 L31 24 L33 24 L33 23 "
style="fill:rgb(252,252,252); fill-rule:evenodd; stroke:rgb(252,252,252); stroke-width:0 "/>
<path d="M25 20 L22 20 L24 22 L26 22 L26 21 L25 21 L25 20 "
style="fill:rgb(252,252,252); fill-rule:evenodd; stroke:rgb(252,252,252); stroke-width:0 "/>
<path d="M36 19 L35 19 L35 20 L33 20 L33 22 L34 22 L34 21 L36 21 L36 19 "
style="fill:rgb(252,252,252); fill-rule:evenodd; stroke:rgb(252,252,252); stroke-width:0 "/>
<path d="M34 24 L33 24 L33 25 L34 25 L34 24 "
style="fill:rgb(252,252,252); fill-rule:evenodd; stroke:rgb(252,252,252); stroke-width:0 "/>
<path d="M47 17 L47 16 L46 16 L46 17 L47 17 "
style="fill:rgb(252,252,252); fill-rule:evenodd; stroke:rgb(252,252,252); stroke-width:0 "/>
<g id="kvec-trailer" style="fill:black;font-family:Helvetica;font-size:1.200">
<rect x="3.000" y="63.000" width="32.400" height="3.000" style="fill:none;stroke:#000000"/>
<text x="3.480" y="64.200">Generated by KVEC for Linux vers. 2.94 </text>
<a xlink:href="http://www.kvec.de">
<text x="3.480" y="65.520" style="fill:blue">Copyright 2002 KK-Software</text>
</a>
</g>
</svg>
