<?xml version="1.0" standalone="no"?>
<!DOCTYPE svg PUBLIC "-//W3C//DTD SVG 20001102//EN"
	"http://www.w3.org/TR/2000/CR-SVG-20001102/DTD/svg-20001102.dtd">
<svg width="60.000" height="60.000"
     viewBox="0 0 60 60" preserveAspectRatio="xMidYMid" >
<desc><!-- Generated by KVEC (http://www.kvec.de)-->
</desc>
<!-- Generated by: KVEC for Linux vers. 2.94, KK-Software -->
<!-- SN: 0 -->
<path d="M0 60 L60 60 L60 0 L0 0 L0 60 "
style="fill:rgb(252,252,252); fill-rule:evenodd; stroke:rgb(252,252,252); stroke-width:0 "/>
<path d="M21 56 L22 56 L26 54 L30 54 L30 51 L29 44 L28 44 L28 43 L29 41 L30 41 L30 40 L33 40 L33 43 L34 51 L35 51 L35 52 L34 52 L34 56 L36 56 
L36 55 L37 55 L37 56 L39 56 L42 55 L42 54 L41 52 L40 47 L39 46 L38 40 L37 40 L37 37 L38 37 L38 30 L40 30 L40 38 L39 38 L39 40 
L41 40 L42 41 L42 42 L45 42 L45 41 L47 41 L47 38 L48 38 L48 36 L46 36 L46 34 L45 30 L43 28 L43 26 L41 26 L40 25 L38 24 L37 22 
L36 23 L33 21 L29 20 L29 19 L27 19 L23 20 L23 21 L22 21 L22 23 L24 23 L22 24 L22 25 L21 31 L20 31 L20 32 L17 32 L14 29 L14 28 
L15 24 L16 19 L17 17 L18 17 L17 16 L18 15 L16 13 L16 12 L12 12 L12 13 L13 13 L13 15 L10 15 L10 16 L12 16 L12 24 L13 24 L13 25 
L12 29 L11 30 L10 33 L9 33 L9 34 L10 36 L11 36 L11 39 L10 39 L10 40 L12 40 L12 39 L13 39 L13 37 L23 36 L25 33 L26 34 L27 34 
L27 39 L25 41 L24 44 L23 48 L22 48 L23 49 L22 50 L20 51 L20 52 L17 52 L17 55 L21 55 L21 56 "
style="fill:rgb(134,13,13); fill-rule:evenodd; stroke:rgb(134,13,13); stroke-width:0 "/>
<path d="M29 22 L27 22 L27 23 L29 23 L29 22 "
style="fill:rgb(252,252,252); fill-rule:evenodd; stroke:rgb(252,252,252); stroke-width:0 "/>
<path d="M27 25 L25 25 L25 26 L27 26 L27 25 "
style="fill:rgb(252,252,252); fill-rule:evenodd; stroke:rgb(252,252,252); stroke-width:0 "/>
<path d="M24 26 L24 27 L25 27 L25 26 L24 26 "
style="fill:rgb(252,252,252); fill-rule:evenodd; stroke:rgb(252,252,252); stroke-width:0 "/>
<path d="M29 25 L28 25 L28 26 L29 26 L29 25 "
style="fill:rgb(252,252,252); fill-rule:evenodd; stroke:rgb(252,252,252); stroke-width:0 "/>
<path d="M36 24 L35 24 L35 25 L36 25 L36 24 "
style="fill:rgb(252,252,252); fill-rule:evenodd; stroke:rgb(252,252,252); stroke-width:0 "/>
<path d="M38 27 L38 26 L37 26 L37 27 L38 27 "
style="fill:rgb(252,252,252); fill-rule:evenodd; stroke:rgb(252,252,252); stroke-width:0 "/>
<path d="M35 37 L36 37 L36 36 L35 36 L35 37 "
style="fill:rgb(252,252,252); fill-rule:evenodd; stroke:rgb(252,252,252); stroke-width:0 "/>
<path d="M36 35 L36 34 L35 34 L35 35 L36 35 "
style="fill:rgb(252,252,252); fill-rule:evenodd; stroke:rgb(252,252,252); stroke-width:0 "/>
<g id="kvec-trailer" style="fill:black;font-family:Helvetica;font-size:1.200">
<rect x="3.000" y="63.000" width="32.400" height="3.000" style="fill:none;stroke:#000000"/>
<text x="3.480" y="64.200">Generated by KVEC for Linux vers. 2.94 </text>
<a xlink:href="http://www.kvec.de">
<text x="3.480" y="65.520" style="fill:blue">Copyright 2002 KK-Software</text>
</a>
</g>
</svg>
