<?xml version="1.0" encoding="UTF-8" standalone="no"?>
<!DOCTYPE svg PUBLIC "-//W3C//DTD SVG 20010904//EN"
"http://www.w3.org/TR/2001/REC-SVG-20010904/DTD/svg10.dtd">
<!-- Created with Sodipodi ("http://www.sodipodi.com/") -->
<svg
   width="60.000"
   height="60.000"
   viewBox="0 0 60 60"
   preserveAspectRatio="xMidYMid"
   id="svg106"
   sodipodi:version="0.31.1"
   sodipodi:docname="/home/dripton/src/Colossus/Default/images/Rangestrike.svg"
   sodipodi:docbase="/home/dripton/src/Colossus/Default/images/"
   xmlns="http://www.w3.org/2000/svg"
   xmlns:sodipodi="http://sodipodi.sourceforge.net/DTD/sodipodi-0.dtd"
   xmlns:xlink="http://www.w3.org/1999/xlink">
  <defs
     id="defs117" />
  <sodipodi:namedview
     id="base" />
  <desc
     id="desc107" />
  <path
     style="fill:none;fill-rule:evenodd;stroke:black;stroke-opacity:1;stroke-width:1pt;stroke-linejoin:miter;stroke-linecap:butt;fill-opacity:1;"
     d="M 29.0577 58.3427 C 29.0945 58.3427 29.1313 58.3427 29.1682 58.3427 C 29.016 58.3427 29.885 58.2605 30.1625 58.1217 C 30.4105 57.8737 31.1329 57.3483 31.4884 57.3483 C 31.4884 56.9827 32.2871 56.8811 32.4827 56.6854 C 32.8924 56.4806 33.1456 56.3847 33.1456 56.7959 C 33.1456 57.3115 33.1456 57.8271 33.1456 58.3427 C 33.1456 58.8744 33.5394 58.5325 33.919 58.3427 C 34.1977 58.064 35.1344 57.912 35.1344 57.4588 C 35.5229 57.4588 35.6378 57.0169 36.0183 57.0169 C 36.2707 56.7644 36.8103 56.575 37.1231 56.575 C 37.1231 56.3475 37.5651 56.4709 37.5651 56.2435 "
     id="path133"
     transform="matrix(1.41326,0,0,1.69692,-16.4986,-41.1564)" />
</svg>
