<?xml version="1.0" standalone="no"?>
<!DOCTYPE svg PUBLIC "-//W3C//DTD SVG 20001102//EN"
	"http://www.w3.org/TR/2000/CR-SVG-20001102/DTD/svg-20001102.dtd">
<svg width="60.000" height="60.000"
     viewBox="0 0 60 60" preserveAspectRatio="xMidYMid" >
<desc><!-- Generated by KVEC (http://www.kvec.de)-->
</desc>
<!-- Generated by: KVEC for Linux vers. 2.94, KK-Software -->
<!-- SN: 0 -->
<path d="M0 60 L60 60 L60 0 L0 0 L0 60 "
style="fill:rgb(252,252,252); fill-rule:evenodd; stroke:rgb(252,252,252); stroke-width:0 "/>
<path d="M27 54 L35 54 L37 53 L37 52 L38 50 L39 49 L40 47 L41 47 L43 46 L44 44 L45 45 L46 47 L47 47 L47 43 L45 43 L45 41 L46 41 L46 37 L45 35 
L43 34 L45 33 L48 32 L50 31 L51 29 L52 27 L53 24 L54 24 L54 22 L53 21 L52 18 L50 17 L48 16 L47 15 L42 14 L42 13 L32 13 L20 14 
L15 15 L15 16 L14 16 L14 19 L15 19 L15 20 L17 20 L17 18 L18 18 L18 19 L20 19 L20 18 L21 18 L21 19 L23 19 L23 18 L24 18 L24 19 
L26 19 L26 18 L29 18 L25 20 L21 21 L18 22 L21 23 L21 24 L20 24 L20 26 L16 26 L15 27 L13 28 L12 30 L11 33 L10 35 L9 35 L10 41 
L11 43 L13 44 L15 45 L18 47 L21 47 L22 45 L23 51 L25 52 L25 53 L27 53 L27 54 "
style="fill:rgb(255,142,35); fill-rule:evenodd; stroke:rgb(255,142,35); stroke-width:0 "/>
<path d="M47 22 L47 21 L46 19 L45 19 L42 18 L42 17 L35 17 L35 18 L33 18 L33 20 L30 22 L26 24 L38 25 L38 26 L42 26 L45 25 L45 24 L46 24 L46 22 
L47 22 "
style="fill:rgb(252,252,252); fill-rule:evenodd; stroke:rgb(252,252,252); stroke-width:0 "/>
<path d="M18 35 L20 37 L20 38 L23 38 L24 37 L26 36 L28 34 L30 33 L30 32 L22 32 L20 33 L20 34 L19 34 L19 35 L18 35 "
style="fill:rgb(252,252,252); fill-rule:evenodd; stroke:rgb(252,252,252); stroke-width:0 "/>
<path d="M29 50 L35 50 L36 48 L37 48 L37 46 L36 47 L35 47 L35 46 L29 46 L29 50 "
style="fill:rgb(252,252,252); fill-rule:evenodd; stroke:rgb(252,252,252); stroke-width:0 "/>
<path d="M31 41 L38 41 L38 39 L34 39 L34 40 L31 40 L31 41 "
style="fill:rgb(252,252,252); fill-rule:evenodd; stroke:rgb(252,252,252); stroke-width:0 "/>
<path d="M13 24 L14 26 L16 25 L18 24 L18 23 L15 23 L15 24 L13 24 "
style="fill:rgb(255,142,35); fill-rule:evenodd; stroke:rgb(255,142,35); stroke-width:0 "/>
<path d="M34 32 L34 31 L31 31 L31 32 L34 32 "
style="fill:rgb(252,252,252); fill-rule:evenodd; stroke:rgb(252,252,252); stroke-width:0 "/>
<path d="M17 20 L17 21 L19 21 L19 20 L17 20 "
style="fill:rgb(255,142,35); fill-rule:evenodd; stroke:rgb(255,142,35); stroke-width:0 "/>
<path d="M24 22 L22 22 L22 23 L24 23 L24 22 "
style="fill:rgb(252,252,252); fill-rule:evenodd; stroke:rgb(252,252,252); stroke-width:0 "/>
<path d="M23 15 L21 15 L21 16 L23 16 L23 15 "
style="fill:rgb(252,252,252); fill-rule:evenodd; stroke:rgb(252,252,252); stroke-width:0 "/>
<path d="M23 45 L24 45 L24 43 L23 43 L23 45 "
style="fill:rgb(252,252,252); fill-rule:evenodd; stroke:rgb(252,252,252); stroke-width:0 "/>
<path d="M45 48 L46 48 L46 47 L45 47 L45 48 "
style="fill:rgb(255,142,35); fill-rule:evenodd; stroke:rgb(255,142,35); stroke-width:0 "/>
<path d="M41 43 L42 43 L42 42 L41 42 L41 43 "
style="fill:rgb(252,252,252); fill-rule:evenodd; stroke:rgb(252,252,252); stroke-width:0 "/>
<path d="M24 43 L25 43 L25 42 L24 42 L24 43 "
style="fill:rgb(252,252,252); fill-rule:evenodd; stroke:rgb(252,252,252); stroke-width:0 "/>
<path d="M39 44 L40 44 L40 43 L39 43 L39 44 "
style="fill:rgb(252,252,252); fill-rule:evenodd; stroke:rgb(252,252,252); stroke-width:0 "/>
<g id="kvec-trailer" style="fill:black;font-family:Helvetica;font-size:1.200">
<rect x="3.000" y="63.000" width="32.400" height="3.000" style="fill:none;stroke:#000000"/>
<text x="3.480" y="64.200">Generated by KVEC for Linux vers. 2.94 </text>
<a xlink:href="http://www.kvec.de">
<text x="3.480" y="65.520" style="fill:blue">Copyright 2002 KK-Software</text>
</a>
</g>
</svg>
