<?xml version="1.0" standalone="no"?>
<!DOCTYPE svg PUBLIC "-//W3C//DTD SVG 20001102//EN"
	"http://www.w3.org/TR/2000/CR-SVG-20001102/DTD/svg-20001102.dtd">
<svg width="60.000" height="60.000"
     viewBox="0 0 60 60" preserveAspectRatio="xMidYMid" >
<desc><!-- Generated by KVEC (http://www.kvec.de)-->
</desc>
<!-- Generated by: KVEC for Linux vers. 2.94, KK-Software -->
<!-- SN: 0 -->
<path d="M0 60 L60 60 L60 0 L0 0 L0 60 "
style="fill:rgb(252,252,252); fill-rule:evenodd; stroke:rgb(252,252,252); stroke-width:0 "/>
<path d="M33 3 L32 5 L31 5 L31 4 L28 4 L28 5 L27 3 L25 4 L26 6 L27 6 L27 9 L25 7 L24 7 L25 9 L25 11 L23 10 L23 9 L21 9 L18 17 
L13 21 L13 22 L9 22 L9 24 L8 24 L8 27 L9 27 L9 29 L8 32 L7 34 L6 38 L5 38 L5 45 L6 48 L7 48 L7 49 L9 49 L13 48 
L20 47 L20 46 L41 46 L46 47 L50 48 L50 49 L53 49 L53 46 L54 46 L54 36 L53 34 L52 31 L51 31 L51 22 L46 22 L44 19 L43 17 L41 15 
L40 13 L39 10 L38 10 L38 9 L36 9 L35 11 L34 11 L34 9 L32 9 L32 7 L33 6 L34 6 L34 4 L33 4 L33 3 "
style="fill:rgb(2,2,2); fill-rule:evenodd; stroke:rgb(2,2,2); stroke-width:0 "/>
<path d="M9 24 L9 25 L12 25 L12 31 L16 31 L16 28 L15 28 L15 26 L16 25 L17 25 L17 26 L19 26 L19 25 L20 25 L20 29 L19 29 L19 31 L23 31 L23 23 
L20 23 L20 24 L18 24 L18 23 L10 23 L10 24 L9 24 "
style="fill:rgb(252,252,252); fill-rule:evenodd; stroke:rgb(252,252,252); stroke-width:0 "/>
<path d="M50 31 L50 24 L47 24 L47 25 L48 25 L48 27 L45 25 L43 23 L41 23 L41 31 L42 32 L43 31 L44 29 L46 30 L48 31 L48 32 L49 32 L49 31 L50 31 "
style="fill:rgb(252,252,252); fill-rule:evenodd; stroke:rgb(252,252,252); stroke-width:0 "/>
<path d="M40 32 L38 26 L38 23 L35 23 L35 24 L33 28 L32 28 L32 31 L38 31 L38 32 L40 32 "
style="fill:rgb(252,252,252); fill-rule:evenodd; stroke:rgb(252,252,252); stroke-width:0 "/>
<path d="M32 23 L24 23 L24 26 L26 26 L26 27 L27 27 L26 29 L26 31 L30 31 L30 26 L33 26 L33 24 L32 24 L32 23 "
style="fill:rgb(252,252,252); fill-rule:evenodd; stroke:rgb(252,252,252); stroke-width:0 "/>
<path d="M39 43 L41 42 L41 41 L43 41 L43 39 L41 39 L41 35 L39 35 L35 39 L36 40 L36 41 L39 41 L39 43 "
style="fill:rgb(252,252,252); fill-rule:evenodd; stroke:rgb(252,252,252); stroke-width:0 "/>
<path d="M17 35 L19 38 L20 38 L20 40 L22 40 L23 41 L23 42 L26 42 L23 39 L26 36 L26 35 L23 35 L23 37 L21 37 L20 36 L20 35 L17 35 "
style="fill:rgb(252,252,252); fill-rule:evenodd; stroke:rgb(252,252,252); stroke-width:0 "/>
<path d="M28 39 L32 39 L32 38 L28 38 L28 39 "
style="fill:rgb(252,252,252); fill-rule:evenodd; stroke:rgb(252,252,252); stroke-width:0 "/>
<path d="M31 6 L28 6 L29 8 L30 8 L30 7 L31 7 L31 6 "
style="fill:rgb(252,252,252); fill-rule:evenodd; stroke:rgb(252,252,252); stroke-width:0 "/>
<path d="M17 42 L20 42 L20 40 L19 40 L19 41 L17 41 L17 42 "
style="fill:rgb(252,252,252); fill-rule:evenodd; stroke:rgb(252,252,252); stroke-width:0 "/>
<path d="M40 39 L40 37 L38 38 L38 39 L40 39 "
style="fill:rgb(2,2,2); fill-rule:evenodd; stroke:rgb(2,2,2); stroke-width:0 "/>
<path d="M36 29 L36 27 L35 27 L35 29 L36 29 "
style="fill:rgb(2,2,2); fill-rule:evenodd; stroke:rgb(2,2,2); stroke-width:0 "/>
<path d="M35 8 L34 8 L34 9 L35 9 L35 8 "
style="fill:rgb(2,2,2); fill-rule:evenodd; stroke:rgb(2,2,2); stroke-width:0 "/>
<g id="kvec-trailer" style="fill:black;font-family:Helvetica;font-size:1.200">
<rect x="3.000" y="63.000" width="32.400" height="3.000" style="fill:none;stroke:#000000"/>
<text x="3.480" y="64.200">Generated by KVEC for Linux vers. 2.94 </text>
<a xlink:href="http://www.kvec.de">
<text x="3.480" y="65.520" style="fill:blue">Copyright 2002 KK-Software</text>
</a>
</g>
</svg>
