<?xml version="1.0" standalone="no"?>
<!DOCTYPE svg PUBLIC "-//W3C//DTD SVG 20001102//EN"
	"http://www.w3.org/TR/2000/CR-SVG-20001102/DTD/svg-20001102.dtd">
<svg width="60.000" height="60.000"
     viewBox="0 0 60 60" preserveAspectRatio="xMidYMid" >
<desc><!-- Generated by KVEC (http://www.kvec.de)-->
</desc>
<!-- Generated by: KVEC for Linux vers. 2.94, KK-Software -->
<!-- SN: 0 -->
<path d="M0 60 L60 60 L60 0 L0 0 L0 60 "
style="fill:rgb(252,252,252); fill-rule:evenodd; stroke:rgb(252,252,252); stroke-width:0 "/>
<path d="M21 55 L27 55 L27 54 L28 54 L28 55 L40 55 L40 54 L41 54 L40 50 L39 47 L38 47 L38 45 L39 42 L40 41 L41 32 L42 32 L42 27 L40 23 L39 23 
L41 22 L41 21 L43 19 L42 15 L41 15 L38 14 L38 13 L36 13 L36 15 L35 16 L34 18 L33 18 L33 16 L29 16 L27 15 L26 13 L24 14 L22 15 
L22 16 L21 19 L20 20 L19 20 L19 22 L21 22 L24 23 L24 24 L21 24 L21 27 L22 27 L18 32 L17 32 L18 36 L19 34 L20 36 L21 36 L21 37 
L20 37 L20 39 L22 39 L22 38 L26 38 L24 44 L23 44 L23 47 L24 49 L25 49 L25 52 L24 52 L24 53 L21 53 L21 55 "
style="fill:rgb(1,1,211); fill-rule:evenodd; stroke:rgb(1,1,211); stroke-width:0 "/>
<path d="M29 47 L30 45 L31 45 L31 42 L30 44 L29 44 L29 47 "
style="fill:rgb(252,252,252); fill-rule:evenodd; stroke:rgb(252,252,252); stroke-width:0 "/>
<path d="M31 21 L29 21 L29 22 L28 22 L28 25 L29 23 L30 23 L30 22 L31 22 L31 21 "
style="fill:rgb(252,252,252); fill-rule:evenodd; stroke:rgb(252,252,252); stroke-width:0 "/>
<path d="M31 52 L33 52 L33 51 L32 49 L31 49 L31 52 "
style="fill:rgb(252,252,252); fill-rule:evenodd; stroke:rgb(252,252,252); stroke-width:0 "/>
<path d="M23 28 L23 30 L26 30 L24 29 L24 28 L23 28 "
style="fill:rgb(252,252,252); fill-rule:evenodd; stroke:rgb(252,252,252); stroke-width:0 "/>
<path d="M34 20 L31 20 L31 21 L34 21 L34 20 "
style="fill:rgb(252,252,252); fill-rule:evenodd; stroke:rgb(252,252,252); stroke-width:0 "/>
<path d="M28 25 L27 25 L27 28 L28 28 L28 25 "
style="fill:rgb(252,252,252); fill-rule:evenodd; stroke:rgb(252,252,252); stroke-width:0 "/>
<path d="M33 32 L33 30 L32 30 L32 32 L33 32 "
style="fill:rgb(252,252,252); fill-rule:evenodd; stroke:rgb(252,252,252); stroke-width:0 "/>
<path d="M39 21 L37 21 L37 22 L39 22 L39 21 "
style="fill:rgb(252,252,252); fill-rule:evenodd; stroke:rgb(252,252,252); stroke-width:0 "/>
<path d="M28 36 L29 36 L29 34 L28 34 L28 36 "
style="fill:rgb(252,252,252); fill-rule:evenodd; stroke:rgb(252,252,252); stroke-width:0 "/>
<path d="M30 49 L31 49 L31 47 L30 47 L30 49 "
style="fill:rgb(252,252,252); fill-rule:evenodd; stroke:rgb(252,252,252); stroke-width:0 "/>
<path d="M35 18 L34 18 L34 20 L35 20 L35 18 "
style="fill:rgb(252,252,252); fill-rule:evenodd; stroke:rgb(252,252,252); stroke-width:0 "/>
<path d="M24 18 L22 18 L22 19 L24 19 L24 18 "
style="fill:rgb(252,252,252); fill-rule:evenodd; stroke:rgb(252,252,252); stroke-width:0 "/>
<path d="M24 24 L24 25 L25 25 L25 24 L24 24 "
style="fill:rgb(252,252,252); fill-rule:evenodd; stroke:rgb(252,252,252); stroke-width:0 "/>
<path d="M35 34 L35 33 L34 33 L34 34 L35 34 "
style="fill:rgb(252,252,252); fill-rule:evenodd; stroke:rgb(252,252,252); stroke-width:0 "/>
<path d="M29 31 L30 31 L30 30 L29 30 L29 31 "
style="fill:rgb(252,252,252); fill-rule:evenodd; stroke:rgb(252,252,252); stroke-width:0 "/>
<path d="M31 29 L30 29 L30 30 L31 30 L31 29 "
style="fill:rgb(252,252,252); fill-rule:evenodd; stroke:rgb(252,252,252); stroke-width:0 "/>
<path d="M28 32 L29 32 L29 31 L28 31 L28 32 "
style="fill:rgb(252,252,252); fill-rule:evenodd; stroke:rgb(252,252,252); stroke-width:0 "/>
<path d="M34 33 L34 32 L33 32 L33 33 L34 33 "
style="fill:rgb(252,252,252); fill-rule:evenodd; stroke:rgb(252,252,252); stroke-width:0 "/>
<path d="M26 28 L26 29 L27 29 L27 28 L26 28 "
style="fill:rgb(252,252,252); fill-rule:evenodd; stroke:rgb(252,252,252); stroke-width:0 "/>
<path d="M39 27 L39 26 L38 26 L38 27 L39 27 "
style="fill:rgb(252,252,252); fill-rule:evenodd; stroke:rgb(252,252,252); stroke-width:0 "/>
<path d="M26 38 L27 38 L27 37 L26 37 L26 38 "
style="fill:rgb(252,252,252); fill-rule:evenodd; stroke:rgb(252,252,252); stroke-width:0 "/>
<path d="M20 33 L20 34 L21 34 L21 33 L20 33 "
style="fill:rgb(252,252,252); fill-rule:evenodd; stroke:rgb(252,252,252); stroke-width:0 "/>
<path d="M24 13 L23 13 L23 14 L24 14 L24 13 "
style="fill:rgb(1,1,211); fill-rule:evenodd; stroke:rgb(1,1,211); stroke-width:0 "/>
<path d="M30 14 L29 14 L29 15 L30 15 L30 14 "
style="fill:rgb(1,1,211); fill-rule:evenodd; stroke:rgb(1,1,211); stroke-width:0 "/>
<path d="M38 26 L38 25 L37 25 L37 26 L38 26 "
style="fill:rgb(252,252,252); fill-rule:evenodd; stroke:rgb(252,252,252); stroke-width:0 "/>
<path d="M37 25 L37 24 L36 24 L36 25 L37 25 "
style="fill:rgb(252,252,252); fill-rule:evenodd; stroke:rgb(252,252,252); stroke-width:0 "/>
<path d="M36 23 L35 23 L35 24 L36 24 L36 23 "
style="fill:rgb(252,252,252); fill-rule:evenodd; stroke:rgb(252,252,252); stroke-width:0 "/>
<path d="M37 31 L37 30 L36 30 L36 31 L37 31 "
style="fill:rgb(252,252,252); fill-rule:evenodd; stroke:rgb(252,252,252); stroke-width:0 "/>
<path d="M37 22 L36 22 L36 23 L37 23 L37 22 "
style="fill:rgb(252,252,252); fill-rule:evenodd; stroke:rgb(252,252,252); stroke-width:0 "/>
<path d="M27 37 L28 37 L28 36 L27 36 L27 37 "
style="fill:rgb(252,252,252); fill-rule:evenodd; stroke:rgb(252,252,252); stroke-width:0 "/>
<g id="kvec-trailer" style="fill:black;font-family:Helvetica;font-size:1.200">
<rect x="3.000" y="63.000" width="32.400" height="3.000" style="fill:none;stroke:#000000"/>
<text x="3.480" y="64.200">Generated by KVEC for Linux vers. 2.94 </text>
<a xlink:href="http://www.kvec.de">
<text x="3.480" y="65.520" style="fill:blue">Copyright 2002 KK-Software</text>
</a>
</g>
</svg>
