<?xml version="1.0" standalone="no"?>
<!DOCTYPE svg PUBLIC "-//W3C//DTD SVG 20001102//EN"
	"http://www.w3.org/TR/2000/CR-SVG-20001102/DTD/svg-20001102.dtd">
<svg width="60.000" height="60.000"
     viewBox="0 0 60 60" preserveAspectRatio="xMidYMid" >
<desc><!-- Generated by KVEC (http://www.kvec.de)-->
</desc>
<!-- Generated by: KVEC for Linux vers. 2.94, KK-Software -->
<!-- SN: 0 -->
<path d="M0 60 L60 60 L60 0 L0 0 L0 60 "
style="fill:rgb(252,252,252); fill-rule:evenodd; stroke:rgb(252,252,252); stroke-width:0 "/>
<path d="M22 53 L43 53 L43 40 L42 48 L41 47 L40 45 L39 44 L38 42 L37 39 L36 33 L35 33 L35 31 L32 31 L32 34 L30 34 L30 35 L29 35 L29 33 L26 33 
L26 36 L25 40 L24 42 L23 48 L22 48 L22 53 "
style="fill:rgb(254,154,54); fill-rule:evenodd; stroke:rgb(254,154,54); stroke-width:0 "/>
<path d="M34 13 L32 13 L28 17 L29 18 L27 20 L24 21 L24 22 L23 22 L19 20 L15 15 L14 15 L14 17 L16 19 L17 24 L19 26 L19 28 L21 28 L21 26 L25 26 
L25 28 L26 31 L27 31 L27 32 L31 32 L31 31 L32 28 L33 27 L37 30 L36 31 L36 32 L37 34 L39 36 L40 34 L41 40 L42 40 L42 32 L41 32 
L41 26 L42 26 L42 23 L41 15 L40 14 L39 14 L39 16 L40 16 L40 24 L39 24 L40 25 L40 26 L37 26 L37 24 L35 24 L35 23 L34 23 L34 21 
L32 21 L32 17 L33 17 L33 15 L34 15 L34 13 "
style="fill:rgb(254,154,54); fill-rule:evenodd; stroke:rgb(254,154,54); stroke-width:0 "/>
<path d="M41 48 L42 48 L42 40 L41 34 L40 36 L38 34 L37 32 L36 32 L37 31 L34 27 L33 28 L32 28 L32 31 L35 31 L35 33 L36 39 L37 42 L38 44 L39 45 
L40 47 L41 47 L41 48 "
style="fill:rgb(252,252,252); fill-rule:evenodd; stroke:rgb(252,252,252); stroke-width:0 "/>
<path d="M22 41 L23 39 L24 35 L25 35 L25 28 L24 31 L23 35 L22 35 L22 41 "
style="fill:rgb(254,154,54); fill-rule:evenodd; stroke:rgb(254,154,54); stroke-width:0 "/>
<path d="M32 42 L33 42 L33 35 L32 35 L32 42 "
style="fill:rgb(252,252,252); fill-rule:evenodd; stroke:rgb(252,252,252); stroke-width:0 "/>
<path d="M30 25 L27 25 L27 27 L29 27 L29 26 L30 26 L30 25 "
style="fill:rgb(252,252,252); fill-rule:evenodd; stroke:rgb(252,252,252); stroke-width:0 "/>
<path d="M33 22 L31 23 L31 24 L33 24 L33 22 "
style="fill:rgb(252,252,252); fill-rule:evenodd; stroke:rgb(252,252,252); stroke-width:0 "/>
<path d="M34 38 L35 38 L35 36 L34 36 L34 38 "
style="fill:rgb(252,252,252); fill-rule:evenodd; stroke:rgb(252,252,252); stroke-width:0 "/>
<path d="M14 11 L13 11 L13 13 L14 13 L14 11 "
style="fill:rgb(254,154,54); fill-rule:evenodd; stroke:rgb(254,154,54); stroke-width:0 "/>
<path d="M43 21 L43 20 L42 20 L42 21 L43 21 "
style="fill:rgb(254,154,54); fill-rule:evenodd; stroke:rgb(254,154,54); stroke-width:0 "/>
<path d="M43 19 L43 18 L42 18 L42 19 L43 19 "
style="fill:rgb(254,154,54); fill-rule:evenodd; stroke:rgb(254,154,54); stroke-width:0 "/>
<path d="M36 17 L35 17 L35 18 L36 18 L36 17 "
style="fill:rgb(254,154,54); fill-rule:evenodd; stroke:rgb(254,154,54); stroke-width:0 "/>
<path d="M36 15 L35 15 L35 16 L36 16 L36 15 "
style="fill:rgb(254,154,54); fill-rule:evenodd; stroke:rgb(254,154,54); stroke-width:0 "/>
<path d="M33 44 L34 44 L34 43 L33 43 L33 44 "
style="fill:rgb(252,252,252); fill-rule:evenodd; stroke:rgb(252,252,252); stroke-width:0 "/>
<path d="M18 16 L17 16 L17 17 L18 17 L18 16 "
style="fill:rgb(254,154,54); fill-rule:evenodd; stroke:rgb(254,154,54); stroke-width:0 "/>
<path d="M34 34 L34 33 L33 33 L33 34 L34 34 "
style="fill:rgb(252,252,252); fill-rule:evenodd; stroke:rgb(252,252,252); stroke-width:0 "/>
<path d="M38 20 L37 20 L37 21 L38 21 L38 20 "
style="fill:rgb(254,154,54); fill-rule:evenodd; stroke:rgb(254,154,54); stroke-width:0 "/>
<path d="M26 23 L25 23 L25 24 L26 24 L26 23 "
style="fill:rgb(252,252,252); fill-rule:evenodd; stroke:rgb(252,252,252); stroke-width:0 "/>
<path d="M25 22 L24 22 L24 23 L25 23 L25 22 "
style="fill:rgb(252,252,252); fill-rule:evenodd; stroke:rgb(252,252,252); stroke-width:0 "/>
<path d="M27 24 L26 24 L26 25 L27 25 L27 24 "
style="fill:rgb(252,252,252); fill-rule:evenodd; stroke:rgb(252,252,252); stroke-width:0 "/>
<path d="M31 24 L30 24 L30 25 L31 25 L31 24 "
style="fill:rgb(252,252,252); fill-rule:evenodd; stroke:rgb(252,252,252); stroke-width:0 "/>
<path d="M40 30 L40 29 L39 29 L39 30 L40 30 "
style="fill:rgb(252,252,252); fill-rule:evenodd; stroke:rgb(252,252,252); stroke-width:0 "/>
<path d="M44 15 L43 15 L43 16 L44 16 L44 15 "
style="fill:rgb(254,154,54); fill-rule:evenodd; stroke:rgb(254,154,54); stroke-width:0 "/>
<path d="M11 19 L11 20 L12 20 L12 19 L11 19 "
style="fill:rgb(254,154,54); fill-rule:evenodd; stroke:rgb(254,154,54); stroke-width:0 "/>
<path d="M11 12 L11 13 L12 13 L12 12 L11 12 "
style="fill:rgb(254,154,54); fill-rule:evenodd; stroke:rgb(254,154,54); stroke-width:0 "/>
<path d="M16 12 L15 12 L15 13 L16 13 L16 12 "
style="fill:rgb(254,154,54); fill-rule:evenodd; stroke:rgb(254,154,54); stroke-width:0 "/>
<path d="M40 12 L39 12 L39 13 L40 13 L40 12 "
style="fill:rgb(254,154,54); fill-rule:evenodd; stroke:rgb(254,154,54); stroke-width:0 "/>
<path d="M39 11 L38 11 L38 12 L39 12 L39 11 "
style="fill:rgb(254,154,54); fill-rule:evenodd; stroke:rgb(254,154,54); stroke-width:0 "/>
<path d="M9 16 L9 17 L10 17 L10 16 L9 16 "
style="fill:rgb(254,154,54); fill-rule:evenodd; stroke:rgb(254,154,54); stroke-width:0 "/>
<path d="M9 14 L9 15 L10 15 L10 14 L9 14 "
style="fill:rgb(254,154,54); fill-rule:evenodd; stroke:rgb(254,154,54); stroke-width:0 "/>
<path d="M42 11 L41 11 L41 12 L42 12 L42 11 "
style="fill:rgb(254,154,54); fill-rule:evenodd; stroke:rgb(254,154,54); stroke-width:0 "/>
<path d="M10 18 L10 19 L11 19 L11 18 L10 18 "
style="fill:rgb(254,154,54); fill-rule:evenodd; stroke:rgb(254,154,54); stroke-width:0 "/>
<path d="M46 18 L46 17 L45 17 L45 18 L46 18 "
style="fill:rgb(254,154,54); fill-rule:evenodd; stroke:rgb(254,154,54); stroke-width:0 "/>
<path d="M13 20 L13 21 L14 21 L14 20 L13 20 "
style="fill:rgb(254,154,54); fill-rule:evenodd; stroke:rgb(254,154,54); stroke-width:0 "/>
<path d="M45 20 L45 19 L44 19 L44 20 L45 20 "
style="fill:rgb(254,154,54); fill-rule:evenodd; stroke:rgb(254,154,54); stroke-width:0 "/>
<path d="M37 14 L36 14 L36 15 L37 15 L37 14 "
style="fill:rgb(254,154,54); fill-rule:evenodd; stroke:rgb(254,154,54); stroke-width:0 "/>
<path d="M13 17 L13 18 L14 18 L14 17 L13 17 "
style="fill:rgb(254,154,54); fill-rule:evenodd; stroke:rgb(254,154,54); stroke-width:0 "/>
<path d="M41 13 L40 13 L40 14 L41 14 L41 13 "
style="fill:rgb(254,154,54); fill-rule:evenodd; stroke:rgb(254,154,54); stroke-width:0 "/>
<path d="M45 13 L44 13 L44 14 L45 14 L45 13 "
style="fill:rgb(254,154,54); fill-rule:evenodd; stroke:rgb(254,154,54); stroke-width:0 "/>
<path d="M13 14 L13 15 L14 15 L14 14 L13 14 "
style="fill:rgb(254,154,54); fill-rule:evenodd; stroke:rgb(254,154,54); stroke-width:0 "/>
<path d="M18 13 L17 13 L17 14 L18 14 L18 13 "
style="fill:rgb(254,154,54); fill-rule:evenodd; stroke:rgb(254,154,54); stroke-width:0 "/>
<g id="kvec-trailer" style="fill:black;font-family:Helvetica;font-size:1.200">
<rect x="3.000" y="63.000" width="32.400" height="3.000" style="fill:none;stroke:#000000"/>
<text x="3.480" y="64.200">Generated by KVEC for Linux vers. 2.94 </text>
<a xlink:href="http://www.kvec.de">
<text x="3.480" y="65.520" style="fill:blue">Copyright 2002 KK-Software</text>
</a>
</g>
</svg>
