<?xml version="1.0" standalone="no"?>
<!DOCTYPE svg PUBLIC "-//W3C//DTD SVG 20001102//EN"
	"http://www.w3.org/TR/2000/CR-SVG-20001102/DTD/svg-20001102.dtd">
<svg width="60.000" height="60.000"
     viewBox="0 0 60 60" preserveAspectRatio="xMidYMid" >
<desc><!-- Generated by KVEC (http://www.kvec.de)-->
</desc>
<!-- Generated by: KVEC for Linux vers. 2.94, KK-Software -->
<!-- SN: 0 -->
<path d="M0 60 L60 60 L60 0 L0 0 L0 60 "
style="fill:rgb(252,252,252); fill-rule:evenodd; stroke:rgb(252,252,252); stroke-width:0 "/>
<path d="M54 30 L54 26 L53 26 L51 25 L51 24 L50 22 L49 21 L48 22 L46 21 L46 20 L48 18 L48 16 L47 17 L46 19 L44 20 L44 21 L42 21 L41 20 L41 19 
L38 19 L38 20 L40 20 L40 22 L37 22 L37 21 L33 21 L36 22 L35 23 L35 24 L32 24 L32 27 L33 26 L34 26 L34 28 L32 30 L31 28 L30 28 
L30 20 L31 19 L32 19 L32 17 L34 17 L35 19 L36 19 L36 15 L35 15 L23 14 L23 13 L18 13 L16 14 L10 15 L8 18 L7 20 L6 20 L6 24 
L8 22 L8 20 L12 18 L14 18 L14 19 L15 19 L15 21 L14 22 L12 24 L12 26 L13 25 L14 25 L14 23 L16 23 L16 22 L20 22 L21 23 L20 25 
L19 25 L19 27 L23 27 L23 28 L24 28 L24 32 L22 31 L22 30 L13 30 L11 31 L10 33 L9 36 L8 36 L8 40 L9 42 L12 44 L14 45 L14 46 
L22 46 L24 45 L24 44 L21 44 L21 45 L19 45 L19 43 L17 42 L17 41 L11 41 L11 36 L13 35 L13 34 L19 34 L21 35 L22 37 L23 39 L24 39 
L24 40 L26 40 L26 44 L27 45 L28 45 L28 44 L33 44 L35 45 L33 46 L34 47 L34 48 L36 48 L36 47 L39 47 L39 44 L38 44 L38 43 L42 43 
L43 44 L42 45 L42 46 L45 46 L46 45 L45 44 L45 43 L47 43 L47 41 L46 41 L46 40 L44 40 L44 41 L43 41 L43 39 L44 39 L44 38 L41 38 
L41 36 L42 36 L42 33 L39 30 L38 30 L38 25 L42 25 L42 27 L41 27 L43 28 L46 29 L47 30 L47 31 L49 31 L47 29 L47 28 L50 28 L50 29 
L51 29 L51 31 L53 31 L53 30 L54 30 "
style="fill:rgb(205,1,205); fill-rule:evenodd; stroke:rgb(205,1,205); stroke-width:0 "/>
<path d="M38 41 L41 41 L41 38 L40 38 L40 39 L38 39 L38 41 "
style="fill:rgb(252,252,252); fill-rule:evenodd; stroke:rgb(252,252,252); stroke-width:0 "/>
<path d="M35 32 L35 30 L33 31 L33 32 L35 32 "
style="fill:rgb(252,252,252); fill-rule:evenodd; stroke:rgb(252,252,252); stroke-width:0 "/>
<path d="M32 16 L30 16 L30 17 L32 17 L32 16 "
style="fill:rgb(252,252,252); fill-rule:evenodd; stroke:rgb(252,252,252); stroke-width:0 "/>
<path d="M33 31 L33 30 L32 30 L32 31 L33 31 "
style="fill:rgb(252,252,252); fill-rule:evenodd; stroke:rgb(252,252,252); stroke-width:0 "/>
<path d="M24 21 L23 21 L23 22 L24 22 L24 21 "
style="fill:rgb(252,252,252); fill-rule:evenodd; stroke:rgb(252,252,252); stroke-width:0 "/>
<path d="M24 24 L24 25 L25 25 L25 24 L24 24 "
style="fill:rgb(252,252,252); fill-rule:evenodd; stroke:rgb(252,252,252); stroke-width:0 "/>
<path d="M48 25 L48 24 L47 24 L47 25 L48 25 "
style="fill:rgb(252,252,252); fill-rule:evenodd; stroke:rgb(252,252,252); stroke-width:0 "/>
<path d="M49 16 L49 15 L48 15 L48 16 L49 16 "
style="fill:rgb(205,1,205); fill-rule:evenodd; stroke:rgb(205,1,205); stroke-width:0 "/>
<path d="M47 28 L47 27 L46 27 L46 28 L47 28 "
style="fill:rgb(252,252,252); fill-rule:evenodd; stroke:rgb(252,252,252); stroke-width:0 "/>
<path d="M32 42 L33 42 L33 41 L32 41 L32 42 "
style="fill:rgb(252,252,252); fill-rule:evenodd; stroke:rgb(252,252,252); stroke-width:0 "/>
<path d="M19 17 L18 17 L18 18 L19 18 L19 17 "
style="fill:rgb(252,252,252); fill-rule:evenodd; stroke:rgb(252,252,252); stroke-width:0 "/>
<g id="kvec-trailer" style="fill:black;font-family:Helvetica;font-size:1.200">
<rect x="3.000" y="63.000" width="32.400" height="3.000" style="fill:none;stroke:#000000"/>
<text x="3.480" y="64.200">Generated by KVEC for Linux vers. 2.94 </text>
<a xlink:href="http://www.kvec.de">
<text x="3.480" y="65.520" style="fill:blue">Copyright 2002 KK-Software</text>
</a>
</g>
</svg>
